SplineFontDB: 3.2
FontName: Figtree-Zen-Black
FullName: Figtree Zen Black
FamilyName: FTZen
Weight: Black
Copyright: Copyright 2022 The Figtree Project Authors https:github.comerikdkennedyfigtree\nCopyright 2024 Zen1
Version: 2.1
ItalicAngle: 0
UnderlinePosition: -125
UnderlineWidth: 50
Ascent: 800
Descent: 200
InvalidEm: 0
sfntRevision: 0x00020042
LayerCount: 2
Layer: 0 0 "Back" 1
Layer: 1 0 "Fore" 0
XUID: [1021 856 -119412472 1797]
StyleMap: 0x0040
FSType: 0
OS2Version: 4
OS2_WeightWidthSlopeOnly: 0
OS2_UseTypoMetrics: 1
CreationTime: 1617396968
ModificationTime: 1712298041
PfmFamily: 81
TTFWeight: 900
TTFWidth: 5
LineGap: 0
VLineGap: 0
Panose: 0 0 0 0 0 0 0 0 0 0
OS2TypoAscent: 950
OS2TypoAOffset: 0
OS2TypoDescent: -250
OS2TypoDOffset: 0
OS2TypoLinegap: 0
OS2WinAscent: 979
OS2WinAOffset: 0
OS2WinDescent: 222
OS2WinDOffset: 0
HheadAscent: 950
HheadAOffset: 0
HheadDescent: -250
HheadDOffset: 0
OS2SubXSize: 650
OS2SubYSize: 600
OS2SubXOff: 0
OS2SubYOff: 75
OS2SupXSize: 650
OS2SupYSize: 600
OS2SupXOff: 0
OS2SupYOff: 350
OS2StrikeYSize: 50
OS2StrikeYPos: 300
OS2CapHeight: 700
OS2XHeight: 500
OS2Vendor: 'NONE'
OS2CodePages: 00000093.00000000
OS2UnicodeRanges: a000006f.0000007b.00000000.00000000
Lookup: 1 0 0 "B" { "B-1"  } []
Lookup: 1 0 0 "'aalt' Access All Alternates in Latin lookup 0" { "'aalt' Access All Alternates in Latin lookup 0 subtable"  } ['aalt' ('DFLT' <'dflt' > 'latn' <'AZE ' 'CAT ' 'CRT ' 'KAZ ' 'MOL ' 'NLD ' 'ROM ' 'TAT ' 'TRK ' 'dflt' > ) ]
Lookup: 3 0 0 "'aalt' Access All Alternates in Latin lookup 1" { "'aalt' Access All Alternates in Latin lookup 1 subtable"  } ['aalt' ('DFLT' <'dflt' > 'latn' <'AZE ' 'CAT ' 'CRT ' 'KAZ ' 'MOL ' 'NLD ' 'ROM ' 'TAT ' 'TRK ' 'dflt' > ) ]
Lookup: 6 0 0 "'ccmp' Glyph Composition/Decomposition in Latin lookup 2" { "'ccmp' Glyph Composition/Decomposition in Latin lookup 2 subtable"  } ['ccmp' ('DFLT' <'dflt' > 'latn' <'AZE ' 'CAT ' 'CRT ' 'KAZ ' 'MOL ' 'NLD ' 'ROM ' 'TAT ' 'TRK ' 'dflt' > ) ]

StartChar: .notdef
Encoding: 65536 -1 0
Width: 708
GlyphClass: 1
Flags: W
LayerCount: 2
Fore
SplineSet
100 -170 m 1
 100 790 l 1
 608 790 l 1
 608 -170 l 1
 100 -170 l 1
158 -112 m 1
 550 -112 l 1
 550 732 l 1
 158 732 l 1
 158 -112 l 1
EndSplineSet
EndChar

StartChar: A
Encoding: 65 65 1
Width: 749
GlyphClass: 2
Flags: W
HStem: 0 112<49.88 203> 112 163<304 445> 680 20G<267.343 481.657>
AnchorPoint: "Anchor-3" 752 0 basechar 0
AnchorPoint: "Anchor-2" 375 0 basechar 0
AnchorPoint: "Anchor-0" 375 700 basechar 0
LayerCount: 2
Fore
SplineSet
7 0 m 1xa0
 49.88 112 l 1xa0
 244 112 l 1
 304 275 l 1
 112.285714286 275 l 1x60
 275 700 l 1
 474 700 l 1
 742 0 l 1
 546 0 l 1xa0
 505 112 l 1
 244 112 l 1x60
 203 0 l 1
 7 0 l 1xa0
304 275 m 1x60
 445 275 l 1
 375 469 l 1
 304 275 l 1x60
EndSplineSet
Substitution2: "Single Substitution lookup 28 subtable" ordfeminine
Substitution2: "'aalt' Access All Alternates in Latin lookup 0 subtable" ordfeminine
EndChar

StartChar: Aacute
Encoding: 193 193 2
Width: 749
GlyphClass: 2
Flags: W
AnchorPoint: "Anchor-3" 752 0 basechar 0
AnchorPoint: "Anchor-2" 375 0 basechar 0
AnchorPoint: "Anchor-0" 375 700 basechar 0
LayerCount: 2
Fore
SplineSet
276 751 m 1
 386 890 l 1
 576 890 l 1
 446 751 l 1
 276 751 l 1
7 0 m 1
 275 700 l 1
 474 700 l 1
 742 0 l 1
 546 0 l 1
 505 112 l 1
 244 112 l 1
 203 0 l 1
 7 0 l 1
304 275 m 1
 445 275 l 1
 375 469 l 1
 304 275 l 1
EndSplineSet
EndChar

StartChar: Abreve
Encoding: 258 258 3
Width: 749
GlyphClass: 2
Flags: W
AnchorPoint: "Anchor-3" 752 0 basechar 0
AnchorPoint: "Anchor-2" 375 0 basechar 0
AnchorPoint: "Anchor-0" 375 700 basechar 0
LayerCount: 2
Fore
SplineSet
376 742 m 0
 257 742 173 807 173 900 c 1
 337 900 l 1
 337 877 353 861 376 861 c 0
 398 861 414 877 414 900 c 1
 578 900 l 1
 578 807 494 742 376 742 c 0
7 0 m 1
 275 700 l 1
 474 700 l 1
 742 0 l 1
 546 0 l 1
 505 112 l 1
 244 112 l 1
 203 0 l 1
 7 0 l 1
304 275 m 1
 445 275 l 1
 375 469 l 1
 304 275 l 1
EndSplineSet
EndChar

StartChar: uni01CD
Encoding: 461 461 4
Width: 749
GlyphClass: 2
Flags: W
AnchorPoint: "Anchor-3" 752 0 basechar 0
AnchorPoint: "Anchor-2" 375 0 basechar 0
AnchorPoint: "Anchor-0" 375 700 basechar 0
LayerCount: 2
Fore
SplineSet
284 754 m 1
 157 900 l 1
 307 900 l 1
 370 836 l 1
 432 900 l 1
 582 900 l 1
 455 754 l 1
 284 754 l 1
7 0 m 1
 275 700 l 1
 474 700 l 1
 742 0 l 1
 546 0 l 1
 505 112 l 1
 244 112 l 1
 203 0 l 1
 7 0 l 1
304 275 m 1
 445 275 l 1
 375 469 l 1
 304 275 l 1
EndSplineSet
EndChar

StartChar: Acircumflex
Encoding: 194 194 5
Width: 749
GlyphClass: 2
Flags: W
AnchorPoint: "Anchor-3" 752 0 basechar 0
AnchorPoint: "Anchor-2" 375 0 basechar 0
AnchorPoint: "Anchor-0" 375 700 basechar 0
LayerCount: 2
Fore
SplineSet
157 765 m 1
 284 912 l 1
 455 912 l 1
 582 765 l 1
 432 765 l 1
 370 822 l 1
 307 765 l 1
 157 765 l 1
7 0 m 1
 275 700 l 1
 474 700 l 1
 742 0 l 1
 546 0 l 1
 505 112 l 1
 244 112 l 1
 203 0 l 1
 7 0 l 1
304 275 m 1
 445 275 l 1
 375 469 l 1
 304 275 l 1
EndSplineSet
EndChar

StartChar: Adieresis
Encoding: 196 196 6
Width: 749
GlyphClass: 2
Flags: W
AnchorPoint: "Anchor-3" 752 0 basechar 0
AnchorPoint: "Anchor-2" 375 0 basechar 0
AnchorPoint: "Anchor-0" 375 948 basechar 0
LayerCount: 2
Fore
SplineSet
510 769 m 0
 463 769 422 810 422 857 c 0
 422 904 463 945 510 945 c 0
 557 945 598 904 598 857 c 0
 598 810 557 769 510 769 c 0
240 769 m 0
 192 769 152 809 152 857 c 0
 152 905 192 945 240 945 c 0
 288 945 328 905 328 857 c 0
 328 809 288 769 240 769 c 0
7 0 m 1
 275 700 l 1
 474 700 l 1
 742 0 l 1
 546 0 l 1
 505 112 l 1
 244 112 l 1
 203 0 l 1
 7 0 l 1
304 275 m 1
 445 275 l 1
 375 469 l 1
 304 275 l 1
EndSplineSet
EndChar

StartChar: Agrave
Encoding: 192 192 7
Width: 749
GlyphClass: 2
Flags: W
AnchorPoint: "Anchor-3" 752 0 basechar 0
AnchorPoint: "Anchor-2" 375 0 basechar 0
AnchorPoint: "Anchor-0" 375 700 basechar 0
LayerCount: 2
Fore
SplineSet
317 754 m 1
 185 901 l 1
 375 901 l 1
 487 754 l 1
 317 754 l 1
7 0 m 1
 275 700 l 1
 474 700 l 1
 742 0 l 1
 546 0 l 1
 505 112 l 1
 244 112 l 1
 203 0 l 1
 7 0 l 1
304 275 m 1
 445 275 l 1
 375 469 l 1
 304 275 l 1
EndSplineSet
EndChar

StartChar: Amacron
Encoding: 256 256 8
Width: 749
GlyphClass: 2
Flags: W
AnchorPoint: "Anchor-3" 752 0 basechar 0
AnchorPoint: "Anchor-2" 375 0 basechar 0
AnchorPoint: "Anchor-0" 375 700 basechar 0
LayerCount: 2
Fore
SplineSet
205 749 m 1
 205 900 l 1
 545 900 l 1
 545 749 l 1
 205 749 l 1
7 0 m 1
 275 700 l 1
 474 700 l 1
 742 0 l 1
 546 0 l 1
 505 112 l 1
 244 112 l 1
 203 0 l 1
 7 0 l 1
304 275 m 1
 445 275 l 1
 375 469 l 1
 304 275 l 1
EndSplineSet
EndChar

StartChar: Aogonek
Encoding: 260 260 9
Width: 749
GlyphClass: 2
Flags: W
AnchorPoint: "Anchor-3" 752 0 basechar 0
AnchorPoint: "Anchor-2" 375 0 basechar 0
AnchorPoint: "Anchor-0" 375 700 basechar 0
LayerCount: 2
Fore
SplineSet
7 0 m 1
 275 700 l 1
 474 700 l 1
 742 0 l 1
 706 -23 686 -52 686 -75 c 0
 686 -86 693 -95 704 -95 c 0
 715 -95 722 -92 729 -88 c 1
 781 -196 l 1
 761 -208 736 -212 703 -212 c 0
 619 -212 547 -170 547 -88 c 0
 547 -49 573 -16 604 0 c 1
 546 0 l 1
 505 112 l 1
 244 112 l 1
 203 0 l 1
 7 0 l 1
304 275 m 1
 445 275 l 1
 375 469 l 1
 304 275 l 1
EndSplineSet
EndChar

StartChar: Aring
Encoding: 197 197 10
Width: 749
GlyphClass: 2
Flags: W
AnchorPoint: "Anchor-3" 752 0 basechar 0
AnchorPoint: "Anchor-2" 375 0 basechar 0
AnchorPoint: "Anchor-0" 375 700 basechar 0
LayerCount: 2
Fore
SplineSet
375 720 m 0
 301 720 237 777 237 849 c 0
 237 922 301 979 375 979 c 0
 448 979 512 922 512 849 c 0
 512 777 448 720 375 720 c 0
375 816 m 0
 395 816 407 829 407 849 c 0
 407 870 395 883 375 883 c 0
 354 883 342 870 342 849 c 0
 342 829 354 816 375 816 c 0
7 0 m 1
 275 700 l 1
 474 700 l 1
 742 0 l 1
 546 0 l 1
 505 112 l 1
 244 112 l 1
 203 0 l 1
 7 0 l 1
304 275 m 1
 445 275 l 1
 375 469 l 1
 304 275 l 1
EndSplineSet
EndChar

StartChar: Atilde
Encoding: 195 195 11
Width: 749
GlyphClass: 2
Flags: W
AnchorPoint: "Anchor-3" 752 0 basechar 0
AnchorPoint: "Anchor-2" 375 0 basechar 0
AnchorPoint: "Anchor-0" 375 900 basechar 0
LayerCount: 2
Fore
SplineSet
456 734 m 0
 355 734 363 806 318 806 c 0
 308 806 295 802 287 767 c 1
 176 767 l 1
 188 873 231 912 312 912 c 0
 421 912 416 840 455 840 c 0
 474 840 478 858 481 879 c 1
 592 879 l 1
 580 786 541 734 456 734 c 0
7 0 m 1
 275 700 l 1
 474 700 l 1
 742 0 l 1
 546 0 l 1
 505 112 l 1
 244 112 l 1
 203 0 l 1
 7 0 l 1
304 275 m 1
 445 275 l 1
 375 469 l 1
 304 275 l 1
EndSplineSet
EndChar

StartChar: AE
Encoding: 198 198 12
Width: 1033
GlyphClass: 1
Flags: W
LayerCount: 2
Fore
SplineSet
7 0 m 1
 375 700 l 1
 976 700 l 1
 976 530 l 1
 697 530 l 1
 697 433 l 1
 922 433 l 1
 922 268 l 1
 697 268 l 1
 697 170 l 1
 983 170 l 1
 983 0 l 1
 507 0 l 1
 507 112 l 1
 273 112 l 1
 217 0 l 1
 7 0 l 1
355 275 m 1
 507 275 l 1
 507 530 l 1
 482 530 l 1
 355 275 l 1
EndSplineSet
EndChar

StartChar: B
Encoding: 66 66 13
Width: 614
GlyphClass: 1
Flags: W
HStem: 0 163<240 379.485> 288 147<240 356.333> 557 143<240 351.879>
VStem: 60 180<163 288 435 557> 371 190<450.562 539.465> 397 192<181.314 272.477>
LayerCount: 2
Fore
SplineSet
60 0 m 5xf4
 60 288 l 5
 240 288 l 5
 240 435 l 5
 60 435 l 5
 60 700 l 5
 312 700 l 6
 458 700 561 635 561 493 c 4xf8
 561 450 536 408 493 373 c 5
 554 340 589 287 589 208 c 4
 589 74 489 0 347 0 c 6
 60 0 l 5xf4
240 435 m 5
 299 435 l 6
 341 435 371 457 371 496 c 4
 371 535 341 557 299 557 c 6
 240 557 l 5
 240 435 l 5
240 163 m 5
 325 163 l 6
 369 163 397 190 397 227 c 4xf4
 397 264 369 288 325 288 c 6
 240 288 l 5
 240 163 l 5
EndSplineSet
EndChar

StartChar: C
Encoding: 67 67 14
Width: 729
GlyphClass: 2
Flags: W
AnchorPoint: "Anchor-2" 383 0 basechar 0
AnchorPoint: "Anchor-0" 383 700 basechar 0
LayerCount: 2
Fore
SplineSet
383 -12 m 0
 173 -12 25 138 25 350 c 0
 25 562 173 712 383 712 c 0
 544 712 663 622 713 490 c 1
 537 434 l 1
 508 500 457 542 383 542 c 0
 285 542 215 463 215 350 c 0
 215 237 286 158 386 158 c 0
 464 158 507 201 538 267 c 1
 714 211 l 1
 665 78 545 -12 383 -12 c 0
EndSplineSet
EndChar

StartChar: Cacute
Encoding: 262 262 15
Width: 729
GlyphClass: 2
Flags: W
AnchorPoint: "Anchor-2" 383 0 basechar 0
AnchorPoint: "Anchor-0" 383 700 basechar 0
LayerCount: 2
Fore
SplineSet
284 754 m 1
 394 900 l 1
 584 900 l 1
 454 754 l 1
 284 754 l 1
383 -12 m 0
 173 -12 25 138 25 350 c 0
 25 562 173 712 383 712 c 0
 544 712 663 622 713 490 c 1
 537 434 l 1
 508 500 457 542 383 542 c 0
 285 542 215 463 215 350 c 0
 215 237 286 158 386 158 c 0
 464 158 507 201 538 267 c 1
 714 211 l 1
 665 78 545 -12 383 -12 c 0
EndSplineSet
EndChar

StartChar: Ccaron
Encoding: 268 268 16
Width: 729
GlyphClass: 2
Flags: W
AnchorPoint: "Anchor-2" 383 0 basechar 0
AnchorPoint: "Anchor-0" 383 700 basechar 0
LayerCount: 2
Fore
SplineSet
292 754 m 1
 165 900 l 1
 315 900 l 1
 378 836 l 1
 440 900 l 1
 590 900 l 1
 463 754 l 1
 292 754 l 1
383 -12 m 0
 173 -12 25 138 25 350 c 0
 25 562 173 712 383 712 c 0
 544 712 663 622 713 490 c 1
 537 434 l 1
 508 500 457 542 383 542 c 0
 285 542 215 463 215 350 c 0
 215 237 286 158 386 158 c 0
 464 158 507 201 538 267 c 1
 714 211 l 1
 665 78 545 -12 383 -12 c 0
EndSplineSet
EndChar

StartChar: Ccedilla
Encoding: 199 199 17
Width: 729
GlyphClass: 2
Flags: W
AnchorPoint: "Anchor-2" 383 0 basechar 0
AnchorPoint: "Anchor-0" 383 700 basechar 0
LayerCount: 2
Fore
SplineSet
329 -210 m 0
 297 -210 261 -198 233 -179 c 1
 254 -103 l 1
 273 -112 290 -117 301 -117 c 0
 324 -117 338 -110 338 -98 c 0
 338 -80 318 -69 283 -69 c 1
 308 -5 l 1
 139 26 25 164 25 350 c 0
 25 562 173 712 383 712 c 0
 544 712 663 622 713 490 c 1
 537 434 l 1
 508 500 457 542 383 542 c 0
 285 542 215 463 215 350 c 0
 215 237 286 158 386 158 c 0
 464 158 507 201 538 267 c 1
 714 211 l 1
 667 83 554 -5 402 -12 c 1
 395 -26 l 1
 440 -41 467 -72 467 -108 c 0
 467 -172 416 -210 329 -210 c 0
EndSplineSet
EndChar

StartChar: Ccircumflex
Encoding: 264 264 18
Width: 729
GlyphClass: 2
Flags: W
AnchorPoint: "Anchor-2" 383 0 basechar 0
AnchorPoint: "Anchor-0" 383 700 basechar 0
LayerCount: 2
Fore
SplineSet
165 765 m 1
 292 912 l 1
 463 912 l 1
 590 765 l 1
 440 765 l 1
 378 822 l 1
 315 765 l 1
 165 765 l 1
383 -12 m 0
 173 -12 25 138 25 350 c 0
 25 562 173 712 383 712 c 0
 544 712 663 622 713 490 c 1
 537 434 l 1
 508 500 457 542 383 542 c 0
 285 542 215 463 215 350 c 0
 215 237 286 158 386 158 c 0
 464 158 507 201 538 267 c 1
 714 211 l 1
 665 78 545 -12 383 -12 c 0
EndSplineSet
EndChar

StartChar: Cdotaccent
Encoding: 266 266 19
Width: 729
GlyphClass: 2
Flags: W
AnchorPoint: "Anchor-2" 383 0 basechar 0
AnchorPoint: "Anchor-0" 383 700 basechar 0
LayerCount: 2
Fore
SplineSet
383 748 m 0
 329 748 283 794 283 848 c 0
 283 902 329 948 383 948 c 0
 437 948 483 902 483 848 c 0
 483 794 437 748 383 748 c 0
383 -12 m 0
 173 -12 25 138 25 350 c 0
 25 562 173 712 383 712 c 0
 544 712 663 622 713 490 c 1
 537 434 l 1
 508 500 457 542 383 542 c 0
 285 542 215 463 215 350 c 0
 215 237 286 158 386 158 c 0
 464 158 507 201 538 267 c 1
 714 211 l 1
 665 78 545 -12 383 -12 c 0
EndSplineSet
EndChar

StartChar: D
Encoding: 68 68 20
Width: 711
GlyphClass: 2
Flags: W
HStem: 0 175<245 396.473> 525 175<245 396.473>
VStem: 60 185<175 525> 496 190<267.423 432.577>
AnchorPoint: "Anchor-0" 303 700 basechar 0
LayerCount: 2
Fore
SplineSet
245 175 m 1
 60 175 l 1
 60 700 l 1
 294 700 l 2
 524 700 686 555 686 350 c 0
 686 145 524 0 294 0 c 2
 245 0 l 1
 245 175 l 1
245 175 m 1
 294 175 l 2
 412 175 496 247 496 350 c 0
 496 453 412 525 294 525 c 2
 245 525 l 1
 245 175 l 1
EndSplineSet
EndChar

StartChar: Dcaron
Encoding: 270 270 21
Width: 711
GlyphClass: 2
Flags: W
AnchorPoint: "Anchor-0" 303 700 basechar 0
LayerCount: 2
Fore
SplineSet
212 754 m 1
 85 900 l 1
 235 900 l 1
 298 836 l 1
 360 900 l 1
 510 900 l 1
 383 754 l 1
 212 754 l 1
60 0 m 1
 60 700 l 1
 294 700 l 2
 524 700 686 555 686 350 c 0
 686 145 524 0 294 0 c 2
 60 0 l 1
245 175 m 1
 294 175 l 2
 412 175 496 247 496 350 c 0
 496 453 412 525 294 525 c 2
 245 525 l 1
 245 175 l 1
EndSplineSet
EndChar

StartChar: Dcroat
Encoding: 272 272 22
Width: 741
GlyphClass: 2
Flags: W
AnchorPoint: "Anchor-0" 333 700 basechar 0
LayerCount: 2
Fore
SplineSet
90 0 m 1
 90 287 l 1
 40 287 l 1
 40 414 l 1
 90 414 l 1
 90 700 l 1
 324 700 l 2
 554 700 716 555 716 350 c 0
 716 145 554 0 324 0 c 2
 90 0 l 1
275 175 m 1
 324 175 l 2
 442 175 526 247 526 350 c 0
 526 453 442 525 324 525 c 2
 275 525 l 1
 275 414 l 1
 378 414 l 1
 378 287 l 1
 275 287 l 1
 275 175 l 1
EndSplineSet
EndChar

StartChar: Eth
Encoding: 208 208 23
Width: 741
GlyphClass: 2
Flags: W
AnchorPoint: "Anchor-0" 333 700 basechar 0
LayerCount: 2
Fore
SplineSet
90 0 m 1
 90 287 l 1
 40 287 l 1
 40 414 l 1
 90 414 l 1
 90 700 l 1
 324 700 l 2
 554 700 716 555 716 350 c 0
 716 145 554 0 324 0 c 2
 90 0 l 1
275 175 m 1
 324 175 l 2
 442 175 526 247 526 350 c 0
 526 453 442 525 324 525 c 2
 275 525 l 1
 275 414 l 1
 378 414 l 1
 378 287 l 1
 275 287 l 1
 275 175 l 1
EndSplineSet
EndChar

StartChar: E
Encoding: 69 69 24
Width: 586
GlyphClass: 2
Flags: W
HStem: 0 268<61 245> 0 170<245 536>
VStem: 61 184<170 267>
AnchorPoint: "Anchor-3" 546 0 basechar 0
AnchorPoint: "Anchor-2" 288 0 basechar 0
AnchorPoint: "Anchor-0" 288 700 basechar 0
LayerCount: 2
Fore
SplineSet
245 268 m 1xa0
 475 268 l 1
 475 433 l 1
 245 433 l 1
 245 268 l 1xa0
245 170 m 1x60
 536 170 l 1
 536 0 l 1
 60 0 l 1x60
 61 267 l 1
 245 268 l 1xa0
 245 170 l 1x60
245 433 m 1
 245 530 l 1
 529 530 l 1
 529 700 l 1
 60 700 l 1
 62 432 l 1
 245 433 l 1
EndSplineSet
EndChar

StartChar: Eacute
Encoding: 201 201 25
Width: 586
GlyphClass: 2
Flags: W
AnchorPoint: "Anchor-3" 546 0 basechar 0
AnchorPoint: "Anchor-2" 288 0 basechar 0
AnchorPoint: "Anchor-0" 288 700 basechar 0
LayerCount: 2
Fore
SplineSet
189 751 m 1
 299 890 l 1
 489 890 l 1
 359 751 l 1
 189 751 l 1
60 0 m 1
 60 700 l 1
 529 700 l 1
 529 530 l 1
 245 530 l 1
 245 433 l 1
 475 433 l 1
 475 268 l 1
 245 268 l 1
 245 170 l 1
 536 170 l 1
 536 0 l 1
 60 0 l 1
EndSplineSet
EndChar

StartChar: Ecaron
Encoding: 282 282 26
Width: 586
GlyphClass: 2
Flags: W
AnchorPoint: "Anchor-3" 546 0 basechar 0
AnchorPoint: "Anchor-2" 288 0 basechar 0
AnchorPoint: "Anchor-0" 288 700 basechar 0
LayerCount: 2
Fore
SplineSet
197 754 m 1
 70 900 l 1
 220 900 l 1
 283 836 l 1
 345 900 l 1
 495 900 l 1
 368 754 l 1
 197 754 l 1
60 0 m 1
 60 700 l 1
 529 700 l 1
 529 530 l 1
 245 530 l 1
 245 433 l 1
 475 433 l 1
 475 268 l 1
 245 268 l 1
 245 170 l 1
 536 170 l 1
 536 0 l 1
 60 0 l 1
EndSplineSet
EndChar

StartChar: Ecircumflex
Encoding: 202 202 27
Width: 586
GlyphClass: 2
Flags: W
AnchorPoint: "Anchor-3" 546 0 basechar 0
AnchorPoint: "Anchor-2" 288 0 basechar 0
AnchorPoint: "Anchor-0" 288 700 basechar 0
LayerCount: 2
Fore
SplineSet
70 765 m 1
 197 912 l 1
 368 912 l 1
 495 765 l 1
 345 765 l 1
 283 822 l 1
 220 765 l 1
 70 765 l 1
60 0 m 1
 60 700 l 1
 529 700 l 1
 529 530 l 1
 245 530 l 1
 245 433 l 1
 475 433 l 1
 475 268 l 1
 245 268 l 1
 245 170 l 1
 536 170 l 1
 536 0 l 1
 60 0 l 1
EndSplineSet
EndChar

StartChar: Edieresis
Encoding: 203 203 28
Width: 586
GlyphClass: 2
Flags: W
AnchorPoint: "Anchor-3" 546 0 basechar 0
AnchorPoint: "Anchor-2" 288 0 basechar 0
AnchorPoint: "Anchor-0" 288 948 basechar 0
LayerCount: 2
Fore
SplineSet
423 769 m 0
 376 769 335 810 335 857 c 0
 335 904 376 945 423 945 c 0
 470 945 511 904 511 857 c 0
 511 810 470 769 423 769 c 0
153 769 m 0
 105 769 65 809 65 857 c 0
 65 905 105 945 153 945 c 0
 201 945 241 905 241 857 c 0
 241 809 201 769 153 769 c 0
60 0 m 1
 60 700 l 1
 529 700 l 1
 529 530 l 1
 245 530 l 1
 245 433 l 1
 475 433 l 1
 475 268 l 1
 245 268 l 1
 245 170 l 1
 536 170 l 1
 536 0 l 1
 60 0 l 1
EndSplineSet
EndChar

StartChar: Edotaccent
Encoding: 278 278 29
Width: 586
GlyphClass: 2
Flags: W
AnchorPoint: "Anchor-3" 546 0 basechar 0
AnchorPoint: "Anchor-2" 288 0 basechar 0
AnchorPoint: "Anchor-0" 288 700 basechar 0
LayerCount: 2
Fore
SplineSet
288 748 m 0
 234 748 188 794 188 848 c 0
 188 902 234 948 288 948 c 0
 342 948 388 902 388 848 c 0
 388 794 342 748 288 748 c 0
60 0 m 1
 60 700 l 1
 529 700 l 1
 529 530 l 1
 245 530 l 1
 245 433 l 1
 475 433 l 1
 475 268 l 1
 245 268 l 1
 245 170 l 1
 536 170 l 1
 536 0 l 1
 60 0 l 1
EndSplineSet
EndChar

StartChar: Egrave
Encoding: 200 200 30
Width: 586
GlyphClass: 2
Flags: W
AnchorPoint: "Anchor-3" 546 0 basechar 0
AnchorPoint: "Anchor-2" 288 0 basechar 0
AnchorPoint: "Anchor-0" 288 700 basechar 0
LayerCount: 2
Fore
SplineSet
230 754 m 1
 98 901 l 1
 288 901 l 1
 400 754 l 1
 230 754 l 1
60 0 m 1
 60 700 l 1
 529 700 l 1
 529 530 l 1
 245 530 l 1
 245 433 l 1
 475 433 l 1
 475 268 l 1
 245 268 l 1
 245 170 l 1
 536 170 l 1
 536 0 l 1
 60 0 l 1
EndSplineSet
EndChar

StartChar: Emacron
Encoding: 274 274 31
Width: 586
GlyphClass: 2
Flags: W
AnchorPoint: "Anchor-3" 546 0 basechar 0
AnchorPoint: "Anchor-2" 288 0 basechar 0
AnchorPoint: "Anchor-0" 288 700 basechar 0
LayerCount: 2
Fore
SplineSet
118 749 m 1
 118 900 l 1
 458 900 l 1
 458 749 l 1
 118 749 l 1
60 0 m 1
 60 700 l 1
 529 700 l 1
 529 530 l 1
 245 530 l 1
 245 433 l 1
 475 433 l 1
 475 268 l 1
 245 268 l 1
 245 170 l 1
 536 170 l 1
 536 0 l 1
 60 0 l 1
EndSplineSet
EndChar

StartChar: Eogonek
Encoding: 280 280 32
Width: 586
GlyphClass: 2
Flags: W
AnchorPoint: "Anchor-3" 546 0 basechar 0
AnchorPoint: "Anchor-2" 288 0 basechar 0
AnchorPoint: "Anchor-0" 288 700 basechar 0
LayerCount: 2
Fore
SplineSet
60 0 m 1
 60 700 l 1
 529 700 l 1
 529 530 l 1
 245 530 l 1
 245 433 l 1
 475 433 l 1
 475 268 l 1
 245 268 l 1
 245 170 l 1
 536 170 l 1
 536 0 l 1
 500 -23 480 -52 480 -75 c 0
 480 -86 487 -95 498 -95 c 0
 509 -95 516 -92 523 -88 c 1
 575 -196 l 1
 555 -208 530 -212 497 -212 c 0
 413 -212 341 -170 341 -88 c 0
 341 -49 367 -16 398 0 c 1
 60 0 l 1
EndSplineSet
EndChar

StartChar: F
Encoding: 70 70 33
Width: 564
GlyphClass: 1
Flags: W
HStem: 0 258<60 245> 258 170<245 475> 428 272<60 245> 530 170<245 539>
VStem: 60 185<0 258 428 530> 245 230<258 428>
LayerCount: 2
Fore
SplineSet
60 0 m 1x88
 60 258 l 1
 245 258 l 1x88
 245 428 l 1x48
 60 428 l 1
 60 700 l 1x28
 539 700 l 1
 539 530 l 1
 245 530 l 1
 245 428 l 1x58
 475 428 l 1
 475 258 l 1x54
 245 258 l 1
 245 0 l 1
 60 0 l 1x88
EndSplineSet
EndChar

StartChar: G
Encoding: 71 71 34
Width: 727
GlyphClass: 2
Flags: W
HStem: -12 168<307.676 482.122> 542 170<305.774 468.067>
VStem: 25 190<253.167 444.551>
AnchorPoint: "Anchor-2" 393 0 basechar 0
AnchorPoint: "Anchor-0" 393 700 basechar 0
LayerCount: 2
Fore
SplineSet
393 -12 m 0
 177 -12 25 138 25 350 c 0
 25 562 177 712 393 712 c 0
 535 712 625 647 681 558 c 1
 527 467 l 1
 499 511 444 542 393 542 c 0
 289 542 215 463 215 350 c 0
 215 237 285 156 398 156 c 0
 470 156 524 193 534 252 c 1
 520 252 l 1
 380 392 l 1
 712 392 l 1
 712 289 l 1
 705 87 575 -12 393 -12 c 0
EndSplineSet
EndChar

StartChar: Gbreve
Encoding: 286 286 35
Width: 727
GlyphClass: 2
Flags: W
AnchorPoint: "Anchor-2" 393 0 basechar 0
AnchorPoint: "Anchor-0" 393 700 basechar 0
LayerCount: 2
Fore
SplineSet
394 742 m 0
 275 742 191 807 191 900 c 1
 355 900 l 1
 355 877 371 861 394 861 c 0
 416 861 432 877 432 900 c 1
 596 900 l 1
 596 807 512 742 394 742 c 0
393 -12 m 0
 177 -12 25 138 25 350 c 0
 25 562 177 712 393 712 c 0
 535 712 625 647 681 558 c 1
 527 467 l 1
 499 511 444 542 393 542 c 0
 289 542 215 463 215 350 c 0
 215 237 285 156 398 156 c 0
 470 156 524 193 534 252 c 1
 380 252 l 1
 380 392 l 1
 712 392 l 1
 712 289 l 1
 705 87 575 -12 393 -12 c 0
EndSplineSet
EndChar

StartChar: Gcircumflex
Encoding: 284 284 36
Width: 727
GlyphClass: 2
Flags: W
AnchorPoint: "Anchor-2" 393 0 basechar 0
AnchorPoint: "Anchor-0" 393 700 basechar 0
LayerCount: 2
Fore
SplineSet
175 765 m 1
 302 912 l 1
 473 912 l 1
 600 765 l 1
 450 765 l 1
 388 822 l 1
 325 765 l 1
 175 765 l 1
393 -12 m 0
 177 -12 25 138 25 350 c 0
 25 562 177 712 393 712 c 0
 535 712 625 647 681 558 c 1
 527 467 l 1
 499 511 444 542 393 542 c 0
 289 542 215 463 215 350 c 0
 215 237 285 156 398 156 c 0
 470 156 524 193 534 252 c 1
 380 252 l 1
 380 392 l 1
 712 392 l 1
 712 289 l 1
 705 87 575 -12 393 -12 c 0
EndSplineSet
EndChar

StartChar: uni0122
Encoding: 290 290 37
Width: 727
GlyphClass: 2
Flags: W
AnchorPoint: "Anchor-2" 393 0 basechar 0
AnchorPoint: "Anchor-0" 393 700 basechar 0
LayerCount: 2
Fore
SplineSet
393 -12 m 0
 177 -12 25 138 25 350 c 0
 25 562 177 712 393 712 c 0
 535 712 625 647 681 558 c 1
 527 467 l 1
 499 511 444 542 393 542 c 0
 289 542 215 463 215 350 c 0
 215 237 285 156 398 156 c 0
 470 156 524 193 534 252 c 1
 380 252 l 1
 380 392 l 1
 712 392 l 1
 712 289 l 1
 705 87 575 -12 393 -12 c 0
274 -200 m 1
 320 -40 l 1
 488 -40 l 1
 404 -200 l 1
 274 -200 l 1
EndSplineSet
EndChar

StartChar: Gdotaccent
Encoding: 288 288 38
Width: 727
GlyphClass: 2
Flags: W
AnchorPoint: "Anchor-2" 393 0 basechar 0
AnchorPoint: "Anchor-0" 393 700 basechar 0
LayerCount: 2
Fore
SplineSet
393 748 m 0
 339 748 293 794 293 848 c 0
 293 902 339 948 393 948 c 0
 447 948 493 902 493 848 c 0
 493 794 447 748 393 748 c 0
393 -12 m 0
 177 -12 25 138 25 350 c 0
 25 562 177 712 393 712 c 0
 535 712 625 647 681 558 c 1
 527 467 l 1
 499 511 444 542 393 542 c 0
 289 542 215 463 215 350 c 0
 215 237 285 156 398 156 c 0
 470 156 524 193 534 252 c 1
 380 252 l 1
 380 392 l 1
 712 392 l 1
 712 289 l 1
 705 87 575 -12 393 -12 c 0
EndSplineSet
EndChar

StartChar: H
Encoding: 72 72 39
Width: 748
GlyphClass: 1
Flags: W
HStem: 0 271<60 245> 271 170<245 503> 441 260<60 245>
VStem: 60 185<0 271 441 701> 503 185<0 271 441 700>
LayerCount: 2
Fore
SplineSet
60 0 m 1x98
 60 271 l 1
 245 271 l 1x98
 245 441 l 1x58
 57 441 l 1
 60 701 l 1
 245 701 l 1x38
 245 441 l 1
 503 441 l 1x58
 503 700 l 1
 688 700 l 1
 688 0 l 1
 503 0 l 1x98
 503 271 l 5x58
 245 271 l 1
 245 0 l 1
 60 0 l 1x98
EndSplineSet
EndChar

StartChar: Hbar
Encoding: 294 294 40
Width: 748
GlyphClass: 1
Flags: W
LayerCount: 2
Fore
SplineSet
60 0 m 1
 60 504 l 1
 5 504 l 1
 5 631 l 1
 60 631 l 1
 60 701 l 1
 245 701 l 1
 245 631 l 1
 503 631 l 1
 503 700 l 1
 688 700 l 1
 688 631 l 1
 743 631 l 1
 743 504 l 1
 688 504 l 1
 688 0 l 1
 503 0 l 1
 503 271 l 1
 245 271 l 1
 245 0 l 1
 60 0 l 1
245 441 m 1
 503 441 l 1
 503 504 l 1
 245 504 l 1
 245 441 l 1
EndSplineSet
EndChar

StartChar: Hcircumflex
Encoding: 292 292 41
Width: 748
GlyphClass: 1
Flags: W
LayerCount: 2
Fore
SplineSet
162 766 m 1
 289 913 l 1
 460 913 l 1
 587 766 l 1
 437 766 l 1
 375 823 l 1
 312 766 l 1
 162 766 l 1
60 0 m 1
 60 701 l 1
 245 701 l 1
 245 441 l 1
 503 441 l 1
 503 700 l 1
 688 700 l 1
 688 0 l 1
 503 0 l 1
 503 271 l 1
 245 271 l 1
 245 0 l 1
 60 0 l 1
EndSplineSet
EndChar

StartChar: I
Encoding: 73 73 42
Width: 305
GlyphClass: 2
Flags: W
HStem: 0 21G<60 245> 680 20G<60 80>
VStem: 60 185<0 515>
AnchorPoint: "Anchor-3" 255 0 basechar 0
AnchorPoint: "Anchor-2" 155 0 basechar 0
AnchorPoint: "Anchor-0" 155 700 basechar 0
LayerCount: 2
Fore
SplineSet
60 0 m 5
 60 700 l 5
 245 515 l 5
 245 0 l 5
 60 0 l 5
EndSplineSet
Substitution2: "'ss02' Style Set 2 in Latin lookup 33 subtable" I.ss02
EndChar

StartChar: IJ
Encoding: 306 306 43
Width: 892
GlyphClass: 2
Flags: W
AnchorPoint: "Anchor-3" 255 0 basechar 0
AnchorPoint: "Anchor-2" 155 0 basechar 0
LayerCount: 2
Fore
SplineSet
60 0 m 1
 60 700 l 1
 245 700 l 1
 245 0 l 1
 60 0 l 1
568 -16 m 0
 394 -16 315 121 315 201 c 1
 478 251 l 1
 492 186 523 154 570 154 c 0
 621 154 657 186 657 255 c 2
 657 700 l 1
 842 700 l 1
 842 209 l 2
 842 77 739 -16 568 -16 c 0
EndSplineSet
Substitution2: "'ss02' Style Set 2 in Latin lookup 33 subtable" IJ.ss02
EndChar

StartChar: Iacute
Encoding: 205 205 44
Width: 305
GlyphClass: 2
Flags: W
AnchorPoint: "Anchor-3" 255 0 basechar 0
AnchorPoint: "Anchor-2" 155 0 basechar 0
AnchorPoint: "Anchor-0" 155 700 basechar 0
LayerCount: 2
Fore
SplineSet
56 751 m 1
 166 890 l 1
 356 890 l 1
 226 751 l 1
 56 751 l 1
60 0 m 1
 60 700 l 1
 245 700 l 1
 245 0 l 1
 60 0 l 1
EndSplineSet
Substitution2: "'ss02' Style Set 2 in Latin lookup 33 subtable" Iacute.ss02
EndChar

StartChar: Icircumflex
Encoding: 206 206 45
Width: 305
GlyphClass: 2
Flags: W
AnchorPoint: "Anchor-3" 255 0 basechar 0
AnchorPoint: "Anchor-2" 155 0 basechar 0
AnchorPoint: "Anchor-0" 155 700 basechar 0
LayerCount: 2
Fore
SplineSet
-63 765 m 1
 64 912 l 1
 235 912 l 1
 362 765 l 1
 212 765 l 1
 150 822 l 1
 87 765 l 1
 -63 765 l 1
60 0 m 1
 60 700 l 1
 245 700 l 1
 245 0 l 1
 60 0 l 1
EndSplineSet
Substitution2: "'ss02' Style Set 2 in Latin lookup 33 subtable" Icircumflex.ss02
EndChar

StartChar: Idieresis
Encoding: 207 207 46
Width: 330
GlyphClass: 2
Flags: W
AnchorPoint: "Anchor-3" 255 0 basechar 0
AnchorPoint: "Anchor-2" 155 0 basechar 0
AnchorPoint: "Anchor-0" 165 948 basechar 0
LayerCount: 2
Fore
SplineSet
265 769 m 0
 218 769 177 810 177 857 c 0
 177 904 218 945 265 945 c 0
 312 945 353 904 353 857 c 0
 353 810 312 769 265 769 c 0
65 769 m 0
 17 769 -23 809 -23 857 c 0
 -23 905 17 945 65 945 c 0
 113 945 153 905 153 857 c 0
 153 809 113 769 65 769 c 0
60 0 m 1
 60 700 l 1
 245 700 l 1
 245 0 l 1
 60 0 l 1
EndSplineSet
Substitution2: "'ss02' Style Set 2 in Latin lookup 33 subtable" Idieresis.ss02
EndChar

StartChar: Idotaccent
Encoding: 304 304 47
Width: 305
GlyphClass: 2
Flags: W
AnchorPoint: "Anchor-3" 255 0 basechar 0
AnchorPoint: "Anchor-2" 155 0 basechar 0
AnchorPoint: "Anchor-0" 155 700 basechar 0
LayerCount: 2
Fore
SplineSet
155 748 m 0
 101 748 55 794 55 848 c 0
 55 902 101 948 155 948 c 0
 209 948 255 902 255 848 c 0
 255 794 209 748 155 748 c 0
60 0 m 1
 60 700 l 1
 245 700 l 1
 245 0 l 1
 60 0 l 1
EndSplineSet
Substitution2: "'ss02' Style Set 2 in Latin lookup 33 subtable" Idotaccent.ss02
EndChar

StartChar: Igrave
Encoding: 204 204 48
Width: 305
GlyphClass: 2
Flags: W
AnchorPoint: "Anchor-3" 255 0 basechar 0
AnchorPoint: "Anchor-2" 155 0 basechar 0
AnchorPoint: "Anchor-0" 155 700 basechar 0
LayerCount: 2
Fore
SplineSet
97 754 m 1
 -35 901 l 1
 155 901 l 1
 267 754 l 1
 97 754 l 1
60 0 m 1
 60 700 l 1
 245 700 l 1
 245 0 l 1
 60 0 l 1
EndSplineSet
Substitution2: "'ss02' Style Set 2 in Latin lookup 33 subtable" Igrave.ss02
EndChar

StartChar: Imacron
Encoding: 298 298 49
Width: 305
GlyphClass: 2
Flags: W
AnchorPoint: "Anchor-3" 255 0 basechar 0
AnchorPoint: "Anchor-2" 155 0 basechar 0
AnchorPoint: "Anchor-0" 155 700 basechar 0
LayerCount: 2
Fore
SplineSet
-15 749 m 1
 -15 900 l 1
 325 900 l 1
 325 749 l 1
 -15 749 l 1
60 0 m 1
 60 700 l 1
 245 700 l 1
 245 0 l 1
 60 0 l 1
EndSplineSet
Substitution2: "'ss02' Style Set 2 in Latin lookup 33 subtable" Imacron.ss02
EndChar

StartChar: Iogonek
Encoding: 302 302 50
Width: 305
GlyphClass: 2
Flags: W
AnchorPoint: "Anchor-3" 255 0 basechar 0
AnchorPoint: "Anchor-2" 155 0 basechar 0
AnchorPoint: "Anchor-0" 155 700 basechar 0
LayerCount: 2
Fore
SplineSet
60 0 m 1
 60 700 l 1
 245 700 l 1
 245 0 l 1
 209 -23 189 -52 189 -75 c 0
 189 -86 196 -95 207 -95 c 0
 218 -95 225 -92 232 -88 c 1
 284 -196 l 1
 264 -208 239 -212 206 -212 c 0
 122 -212 50 -170 50 -88 c 0
 50 -49 76 -16 107 0 c 1
 60 0 l 1
EndSplineSet
Substitution2: "'ss02' Style Set 2 in Latin lookup 33 subtable" Iogonek.ss02
EndChar

StartChar: J
Encoding: 74 74 51
Width: 587
GlyphClass: 2
Flags: W
HStem: -16 170<209.425 324.269> 680 20G<352 372>
VStem: 352 185<184.72 515>
AnchorPoint: "Anchor-0" 440 670 basechar 0
LayerCount: 2
Fore
SplineSet
263 -16 m 0
 89 -16 10 121 10 201 c 1
 173 251 l 1
 187 186 218 154 265 154 c 0
 316 154 352 186 352 255 c 2
 352 700 l 1
 537 515 l 5
 537 209 l 2
 537 77 434 -16 263 -16 c 0
EndSplineSet
Substitution2: "Single Substitution lookup 17 subtable" uni004A0301
Substitution2: "'aalt' Access All Alternates in Latin lookup 0 subtable" uni004A0301
EndChar

StartChar: uni004A0301
Encoding: 65537 -1 52
Width: 587
GlyphClass: 2
Flags: W
AnchorPoint: "Anchor-0" 440 670 basechar 0
LayerCount: 2
Fore
SplineSet
341 724 m 1
 451 870 l 1
 641 870 l 1
 511 724 l 1
 341 724 l 1
263 -16 m 0
 89 -16 10 121 10 201 c 1
 173 251 l 1
 187 186 218 154 265 154 c 0
 316 154 352 186 352 255 c 2
 352 700 l 1
 537 700 l 1
 537 209 l 2
 537 77 434 -16 263 -16 c 0
EndSplineSet
EndChar

StartChar: Jcircumflex
Encoding: 308 308 53
Width: 587
GlyphClass: 2
Flags: W
AnchorPoint: "Anchor-0" 440 670 basechar 0
LayerCount: 2
Fore
SplineSet
212 768 m 1
 339 915 l 1
 510 915 l 1
 637 768 l 1
 487 768 l 1
 425 825 l 1
 362 768 l 1
 212 768 l 1
263 -16 m 0
 89 -16 10 121 10 201 c 1
 173 251 l 1
 187 186 218 154 265 154 c 0
 316 154 352 186 352 255 c 2
 352 700 l 1
 537 700 l 1
 537 209 l 2
 537 77 434 -16 263 -16 c 0
EndSplineSet
EndChar

StartChar: K
Encoding: 75 75 54
Width: 718
GlyphClass: 2
Flags: W
HStem: 0 207<61 245> 467 233<60 245>
VStem: 60 185<0 207 467 700>
AnchorPoint: "Anchor-2" 359 0 basechar 0
AnchorPoint: "Anchor-0" 359 700 basechar 0
LayerCount: 2
Fore
SplineSet
60 0 m 1
 61 207 l 1
 245 207 l 1
 245 467 l 1
 60 467 l 1
 60 700 l 1
 245 700 l 1
 245 467 l 1
 456 700 l 1
 699 700 l 1
 408 384 l 1
 708 0 l 1
 478 0 l 1
 286 252 l 1
 245 207 l 1
 245 0 l 1
 60 0 l 1
EndSplineSet
EndChar

StartChar: uni0136
Encoding: 310 310 55
Width: 718
GlyphClass: 2
Flags: W
AnchorPoint: "Anchor-2" 359 0 basechar 0
AnchorPoint: "Anchor-0" 359 700 basechar 0
LayerCount: 2
Fore
SplineSet
60 0 m 1
 60 700 l 1
 245 700 l 1
 245 467 l 1
 456 700 l 1
 699 700 l 1
 408 384 l 1
 708 0 l 1
 478 0 l 1
 286 252 l 1
 245 207 l 1
 245 0 l 1
 60 0 l 1
240 -200 m 1
 286 -40 l 1
 454 -40 l 1
 370 -200 l 1
 240 -200 l 1
EndSplineSet
EndChar

StartChar: L
Encoding: 76 76 56
Width: 553
GlyphClass: 2
Flags: W
HStem: 680 20G<59.7736 245>
VStem: 54 191<170 700>
AnchorPoint: "Anchor-2" 287 0 basechar 0
AnchorPoint: "Anchor-1" 257 759 basechar 0
AnchorPoint: "Anchor-0" 153 700 basechar 0
LayerCount: 2
Fore
SplineSet
245 170 m 1
 54 170 l 1
 60 700 l 1
 245 700 l 1
 245 170 l 1
 244 0 l 1
 553 0 l 1
 553 170 l 1
 245 170 l 1
EndSplineSet
EndChar

StartChar: Lacute
Encoding: 313 313 57
Width: 553
GlyphClass: 2
Flags: W
AnchorPoint: "Anchor-2" 287 0 basechar 0
AnchorPoint: "Anchor-1" 257 759 basechar 0
AnchorPoint: "Anchor-0" 153 700 basechar 0
LayerCount: 2
Fore
SplineSet
54 754 m 1
 164 900 l 1
 354 900 l 1
 224 754 l 1
 54 754 l 1
60 0 m 1
 60 700 l 1
 245 700 l 1
 245 170 l 1
 533 170 l 1
 533 0 l 1
 60 0 l 1
EndSplineSet
EndChar

StartChar: Lcaron
Encoding: 317 317 58
Width: 553
GlyphClass: 2
Flags: W
AnchorPoint: "Anchor-2" 287 0 basechar 0
AnchorPoint: "Anchor-1" 257 759 basechar 0
AnchorPoint: "Anchor-0" 153 700 basechar 0
LayerCount: 2
Fore
SplineSet
272 611 m 1
 295 759 l 1
 445 759 l 1
 402 611 l 1
 272 611 l 1
60 0 m 1
 60 700 l 1
 245 700 l 1
 245 170 l 1
 533 170 l 1
 533 0 l 1
 60 0 l 1
EndSplineSet
EndChar

StartChar: uni013B
Encoding: 315 315 59
Width: 553
GlyphClass: 2
Flags: W
AnchorPoint: "Anchor-2" 287 0 basechar 0
AnchorPoint: "Anchor-1" 257 759 basechar 0
AnchorPoint: "Anchor-0" 153 700 basechar 0
LayerCount: 2
Fore
SplineSet
60 0 m 1
 60 700 l 1
 245 700 l 1
 245 170 l 1
 533 170 l 1
 533 0 l 1
 60 0 l 1
168 -200 m 1
 214 -40 l 1
 382 -40 l 1
 298 -200 l 1
 168 -200 l 1
EndSplineSet
EndChar

StartChar: Lslash
Encoding: 321 321 60
Width: 553
GlyphClass: 2
Flags: W
AnchorPoint: "Anchor-2" 287 0 basechar 0
AnchorPoint: "Anchor-1" 257 759 basechar 0
AnchorPoint: "Anchor-0" 153 700 basechar 0
LayerCount: 2
Fore
SplineSet
60 0 m 1
 60 254 l 1
 0 221 l 1
 0 369 l 1
 60 402 l 1
 60 700 l 1
 245 700 l 1
 245 502 l 1
 334 550 l 1
 334 402 l 1
 245 354 l 1
 245 170 l 1
 533 170 l 1
 533 0 l 1
 60 0 l 1
EndSplineSet
EndChar

StartChar: M
Encoding: 77 77 61
Width: 868
GlyphClass: 1
Flags: W
HStem: 0 414<60 245 623 808> 680 20G<60 278.52 589.48 808>
VStem: 60 185<0 414> 623 185<0 412>
LayerCount: 2
Fore
SplineSet
60 0 m 1
 60 414 l 1
 245 414 l 1
 60 700 l 1
 265 700 l 1
 434 450 l 1
 603 700 l 1
 808 700 l 1
 623 412 l 1
 808 412 l 1
 808 0 l 1
 623 0 l 1
 623 414 l 1
 435 140 l 1
 245 414 l 1
 245 0 l 1
 60 0 l 1
EndSplineSet
EndChar

StartChar: N
Encoding: 78 78 62
Width: 773
GlyphClass: 2
Flags: W
AnchorPoint: "Anchor-2" 389 0 basechar 0
AnchorPoint: "Anchor-0" 387 680 basechar 0
LayerCount: 2
Fore
SplineSet
245 399 m 1
 62 399 l 1
 60 0 l 1
 245 0 l 1
 245 399 l 1
 528 0 l 1
 528 315 l 1
 713 315 l 1
 713 700 l 1
 528 700 l 1
 528 315 l 1
 246 700 l 1
 245 399 l 1
EndSplineSet
EndChar

StartChar: Nacute
Encoding: 323 323 63
Width: 773
GlyphClass: 2
Flags: W
AnchorPoint: "Anchor-2" 389 0 basechar 0
AnchorPoint: "Anchor-0" 387 680 basechar 0
LayerCount: 2
Fore
SplineSet
288 734 m 1
 398 880 l 1
 588 880 l 1
 458 734 l 1
 288 734 l 1
60 0 m 1
 60 700 l 1
 255 700 l 1
 528 315 l 1
 528 700 l 1
 713 700 l 1
 713 0 l 1
 528 0 l 1
 245 399 l 1
 245 0 l 1
 60 0 l 1
EndSplineSet
EndChar

StartChar: Ncaron
Encoding: 327 327 64
Width: 773
GlyphClass: 2
Flags: W
AnchorPoint: "Anchor-2" 389 0 basechar 0
AnchorPoint: "Anchor-0" 387 680 basechar 0
LayerCount: 2
Fore
SplineSet
296 734 m 1
 169 880 l 1
 319 880 l 1
 382 816 l 1
 444 880 l 1
 594 880 l 1
 467 734 l 1
 296 734 l 1
60 0 m 1
 60 700 l 1
 255 700 l 1
 528 315 l 1
 528 700 l 1
 713 700 l 1
 713 0 l 1
 528 0 l 1
 245 399 l 1
 245 0 l 1
 60 0 l 1
EndSplineSet
EndChar

StartChar: uni0145
Encoding: 325 325 65
Width: 773
GlyphClass: 2
Flags: W
AnchorPoint: "Anchor-2" 389 0 basechar 0
AnchorPoint: "Anchor-0" 387 680 basechar 0
LayerCount: 2
Fore
SplineSet
60 0 m 1
 60 700 l 1
 255 700 l 1
 528 315 l 1
 528 700 l 1
 713 700 l 1
 713 0 l 1
 528 0 l 1
 245 399 l 1
 245 0 l 1
 60 0 l 1
270 -200 m 1
 316 -40 l 1
 484 -40 l 1
 400 -200 l 1
 270 -200 l 1
EndSplineSet
EndChar

StartChar: Ntilde
Encoding: 209 209 66
Width: 773
GlyphClass: 2
Flags: W
AnchorPoint: "Anchor-2" 389 0 basechar 0
AnchorPoint: "Anchor-0" 387 880 basechar 0
LayerCount: 2
Fore
SplineSet
468 714 m 0
 367 714 375 786 330 786 c 0
 320 786 307 782 299 747 c 1
 188 747 l 1
 200 853 243 892 324 892 c 0
 433 892 428 820 467 820 c 0
 486 820 490 838 493 859 c 1
 604 859 l 1
 592 766 553 714 468 714 c 0
60 0 m 1
 60 700 l 1
 255 700 l 1
 528 315 l 1
 528 700 l 1
 713 700 l 1
 713 0 l 1
 528 0 l 1
 245 399 l 1
 245 0 l 1
 60 0 l 1
EndSplineSet
EndChar

StartChar: Eng
Encoding: 330 330 67
Width: 773
GlyphClass: 2
Flags: W
AnchorPoint: "Anchor-2" 389 0 basechar 0
AnchorPoint: "Anchor-0" 623 500 basechar 0
LayerCount: 2
Fore
SplineSet
60 0 m 1
 60 700 l 1
 255 700 l 1
 528 315 l 1
 528 700 l 1
 713 700 l 1
 713 -21 l 2
 713 -143 637 -215 509 -215 c 0
 461 -215 415 -202 385 -180 c 1
 459 -31 l 1
 471 -41 486 -47 499 -47 c 0
 517 -47 528 -32 528 -7 c 2
 528 0 l 1
 245 399 l 1
 245 0 l 1
 60 0 l 1
EndSplineSet
EndChar

StartChar: O
Encoding: 79 79 68
Width: 797
GlyphClass: 2
Flags: W
AnchorPoint: "Anchor-3" 545 10 basechar 0
AnchorPoint: "Anchor-2" 399 0 basechar 0
AnchorPoint: "Anchor-0" 399 700 basechar 0
LayerCount: 2
Fore
SplineSet
400 -12 m 0
 180 -12 25 138 25 349 c 0
 25 561 180 711 398 711 c 0
 617 711 772 561 772 349 c 0
 772 138 618 -12 400 -12 c 0
400 158 m 0
 507 158 582 237 582 349 c 0
 582 461 506 541 398 541 c 0
 291 541 215 461 215 349 c 0
 215 237 292 158 400 158 c 0
EndSplineSet
Substitution2: "Single Substitution lookup 28 subtable" ordmasculine
Substitution2: "'aalt' Access All Alternates in Latin lookup 0 subtable" ordmasculine
EndChar

StartChar: Oacute
Encoding: 211 211 69
Width: 797
GlyphClass: 2
Flags: W
AnchorPoint: "Anchor-3" 545 10 basechar 0
AnchorPoint: "Anchor-2" 399 0 basechar 0
AnchorPoint: "Anchor-0" 399 700 basechar 0
LayerCount: 2
Fore
SplineSet
300 751 m 1
 410 890 l 1
 600 890 l 1
 470 751 l 1
 300 751 l 1
400 -12 m 0
 180 -12 25 138 25 349 c 0
 25 561 180 711 398 711 c 0
 617 711 772 561 772 349 c 0
 772 138 618 -12 400 -12 c 0
400 158 m 0
 507 158 582 237 582 349 c 0
 582 461 506 541 398 541 c 0
 291 541 215 461 215 349 c 0
 215 237 292 158 400 158 c 0
EndSplineSet
EndChar

StartChar: Ocircumflex
Encoding: 212 212 70
Width: 797
GlyphClass: 2
Flags: W
AnchorPoint: "Anchor-3" 545 10 basechar 0
AnchorPoint: "Anchor-2" 399 0 basechar 0
AnchorPoint: "Anchor-0" 399 700 basechar 0
LayerCount: 2
Fore
SplineSet
181 765 m 1
 308 912 l 1
 479 912 l 1
 606 765 l 1
 456 765 l 1
 394 822 l 1
 331 765 l 1
 181 765 l 1
400 -12 m 0
 180 -12 25 138 25 349 c 0
 25 561 180 711 398 711 c 0
 617 711 772 561 772 349 c 0
 772 138 618 -12 400 -12 c 0
400 158 m 0
 507 158 582 237 582 349 c 0
 582 461 506 541 398 541 c 0
 291 541 215 461 215 349 c 0
 215 237 292 158 400 158 c 0
EndSplineSet
EndChar

StartChar: Odieresis
Encoding: 214 214 71
Width: 797
GlyphClass: 2
Flags: W
AnchorPoint: "Anchor-3" 545 10 basechar 0
AnchorPoint: "Anchor-2" 399 0 basechar 0
AnchorPoint: "Anchor-0" 399 948 basechar 0
LayerCount: 2
Fore
SplineSet
534 769 m 0
 487 769 446 810 446 857 c 0
 446 904 487 945 534 945 c 0
 581 945 622 904 622 857 c 0
 622 810 581 769 534 769 c 0
264 769 m 0
 216 769 176 809 176 857 c 0
 176 905 216 945 264 945 c 0
 312 945 352 905 352 857 c 0
 352 809 312 769 264 769 c 0
400 -12 m 0
 180 -12 25 138 25 349 c 0
 25 561 180 711 398 711 c 0
 617 711 772 561 772 349 c 0
 772 138 618 -12 400 -12 c 0
400 158 m 0
 507 158 582 237 582 349 c 0
 582 461 506 541 398 541 c 0
 291 541 215 461 215 349 c 0
 215 237 292 158 400 158 c 0
EndSplineSet
EndChar

StartChar: Ograve
Encoding: 210 210 72
Width: 797
GlyphClass: 2
Flags: W
AnchorPoint: "Anchor-3" 545 10 basechar 0
AnchorPoint: "Anchor-2" 399 0 basechar 0
AnchorPoint: "Anchor-0" 399 700 basechar 0
LayerCount: 2
Fore
SplineSet
341 754 m 1
 209 901 l 1
 399 901 l 1
 511 754 l 1
 341 754 l 1
400 -12 m 0
 180 -12 25 138 25 349 c 0
 25 561 180 711 398 711 c 0
 617 711 772 561 772 349 c 0
 772 138 618 -12 400 -12 c 0
400 158 m 0
 507 158 582 237 582 349 c 0
 582 461 506 541 398 541 c 0
 291 541 215 461 215 349 c 0
 215 237 292 158 400 158 c 0
EndSplineSet
EndChar

StartChar: Ohungarumlaut
Encoding: 336 336 73
Width: 797
GlyphClass: 2
Flags: W
AnchorPoint: "Anchor-3" 545 10 basechar 0
AnchorPoint: "Anchor-2" 399 0 basechar 0
AnchorPoint: "Anchor-0" 399 700 basechar 0
LayerCount: 2
Fore
SplineSet
443 754 m 1
 543 900 l 1
 713 900 l 1
 591 754 l 1
 443 754 l 1
213 754 m 1
 309 900 l 1
 479 900 l 1
 359 754 l 1
 213 754 l 1
400 -12 m 0
 180 -12 25 138 25 349 c 0
 25 561 180 711 398 711 c 0
 617 711 772 561 772 349 c 0
 772 138 618 -12 400 -12 c 0
400 158 m 0
 507 158 582 237 582 349 c 0
 582 461 506 541 398 541 c 0
 291 541 215 461 215 349 c 0
 215 237 292 158 400 158 c 0
EndSplineSet
EndChar

StartChar: Omacron
Encoding: 332 332 74
Width: 797
GlyphClass: 2
Flags: W
AnchorPoint: "Anchor-3" 545 10 basechar 0
AnchorPoint: "Anchor-2" 399 0 basechar 0
AnchorPoint: "Anchor-0" 399 700 basechar 0
LayerCount: 2
Fore
SplineSet
198 749 m 1
 198 900 l 1
 599 900 l 1
 599 749 l 1
 198 749 l 1
400 -12 m 0
 180 -12 25 138 25 349 c 0
 25 561 180 711 398 711 c 0
 617 711 772 561 772 349 c 0
 772 138 618 -12 400 -12 c 0
400 158 m 0
 507 158 582 237 582 349 c 0
 582 461 506 541 398 541 c 0
 291 541 215 461 215 349 c 0
 215 237 292 158 400 158 c 0
EndSplineSet
EndChar

StartChar: Oslash
Encoding: 216 216 75
Width: 796
GlyphClass: 2
Flags: W
AnchorPoint: "Anchor-3" 540 10 basechar 0
AnchorPoint: "Anchor-2" 394 0 basechar 0
AnchorPoint: "Anchor-0" 394 700 basechar 0
LayerCount: 2
Fore
SplineSet
22 0 m 1
 111 104 l 1
 53 166 20 251 20 349 c 0
 20 561 175 711 393 711 c 0
 468 711 535 694 591 662 c 1
 624 700 l 1
 776 700 l 1
 681 590 l 1
 736 527 767 444 767 349 c 0
 767 138 613 -12 395 -12 c 0
 323 -12 257 4 202 34 c 1
 173 0 l 1
 22 0 l 1
210 349 m 0
 210 311 219 276 235 248 c 1
 473 524 l 1
 449 535 422 541 393 541 c 0
 286 541 210 461 210 349 c 0
395 158 m 0
 502 158 577 237 577 349 c 0
 577 384 569 417 556 444 c 1
 321 172 l 1
 343 163 368 158 395 158 c 0
EndSplineSet
EndChar

StartChar: Otilde
Encoding: 213 213 76
Width: 797
GlyphClass: 2
Flags: W
AnchorPoint: "Anchor-3" 545 10 basechar 0
AnchorPoint: "Anchor-2" 399 0 basechar 0
AnchorPoint: "Anchor-0" 399 900 basechar 0
LayerCount: 2
Fore
SplineSet
480 734 m 0
 379 734 387 806 342 806 c 0
 332 806 319 802 311 767 c 1
 200 767 l 1
 212 873 255 912 336 912 c 0
 445 912 440 840 479 840 c 0
 498 840 502 858 505 879 c 1
 616 879 l 1
 604 786 565 734 480 734 c 0
400 -12 m 0
 180 -12 25 138 25 349 c 0
 25 561 180 711 398 711 c 0
 617 711 772 561 772 349 c 0
 772 138 618 -12 400 -12 c 0
400 158 m 0
 507 158 582 237 582 349 c 0
 582 461 506 541 398 541 c 0
 291 541 215 461 215 349 c 0
 215 237 292 158 400 158 c 0
EndSplineSet
EndChar

StartChar: OE
Encoding: 338 338 77
Width: 1096
GlyphClass: 2
Flags: W
AnchorPoint: "Anchor-3" 721 10 basechar 0
AnchorPoint: "Anchor-2" 399 0 basechar 0
AnchorPoint: "Anchor-0" 399 700 basechar 0
LayerCount: 2
Fore
SplineSet
400 -12 m 0
 180 -12 25 138 25 349 c 0
 25 561 180 711 398 711 c 0
 463 711 521 694 570 663 c 1
 570 700 l 1
 1039 700 l 1
 1039 530 l 1
 755 530 l 1
 755 433 l 1
 985 433 l 1
 985 268 l 1
 755 268 l 1
 755 170 l 1
 1046 170 l 1
 1046 0 l 1
 570 0 l 1
 570 36 l 1
 522 5 464 -12 400 -12 c 0
400 163 m 0
 494 163 561 230 570 327 c 1
 570 371 l 1
 561 469 493 536 398 536 c 0
 294 536 220 459 220 349 c 0
 220 240 295 163 400 163 c 0
EndSplineSet
EndChar

StartChar: P
Encoding: 80 80 78
Width: 625
GlyphClass: 1
Flags: W
HStem: 0 210<60 245> 210 170<245 406.25> 531 169<245 406.25>
VStem: 60 185<0 210 380 531> 430 190<403.892 507.64>
LayerCount: 2
Fore
SplineSet
60 0 m 1xb8
 60 210 l 1
 245 210 l 1xb8
 245 380 l 1
 60 380 l 1
 60 531 l 1
 61 700 l 1
 245 700 l 1
 350 700 l 2
 508 700 620 600 620 456 c 0
 620 312 508 210 350 210 c 2x78
 245 210 l 1
 245 0 l 1
 60 0 l 1xb8
245 380 m 1x78
 345 380 l 2
 395 380 430 411 430 456 c 0
 430 500 395 531 345 531 c 2
 245 531 l 1
 245 380 l 1x78
EndSplineSet
EndChar

StartChar: Thorn
Encoding: 222 222 79
Width: 645
GlyphClass: 1
Flags: W
LayerCount: 2
Fore
SplineSet
70 1 m 1
 70 701 l 1
 260 701 l 1
 260 601 l 1
 365 601 l 2
 523 601 635 501 635 357 c 0
 635 213 523 111 365 111 c 2
 260 111 l 1
 260 1 l 1
 70 1 l 1
355 432 m 2
 260 432 l 1
 260 281 l 1
 355 281 l 2
 405 281 440 312 440 357 c 0
 440 401 405 432 355 432 c 2
EndSplineSet
EndChar

StartChar: Q
Encoding: 81 81 80
Width: 797
GlyphClass: 1
Flags: W
HStem: -12 170<310.265 438.396> 542 170<311.051 485.458>
VStem: 25 190<254.986 443.7> 582 190<263.665 443.7>
LayerCount: 2
Fore
SplineSet
400 -12 m 0
 180 -12 25 138 25 349 c 0
 25 561 180 712 398 712 c 0
 617 712 772 561 772 349 c 0
 772 262 746 185 700 125 c 1
 756 68 l 1
 641 -44 l 1
 574 25 l 1
 523 1 464 -12 400 -12 c 0
400 158 m 0
 414 158 427 159 439 162 c 1
 376 226 l 1
 414 262.051282051 l 1
 414 262.051757812 l 1
 565 263 l 1
 576 289 582 317 582 349 c 0
 582 462 506 542 398 542 c 0
 291 542 215 462 215 349 c 0
 215 237 292 158 400 158 c 0
EndSplineSet
EndChar

StartChar: R
Encoding: 82 82 81
Width: 663
GlyphClass: 2
Flags: W
HStem: 0 222<60 245> 531 169<245 400.107>
VStem: 60 185<0 222 392 531> 425 195<414.906 507.751>
AnchorPoint: "Anchor-2" 332 0 basechar 0
AnchorPoint: "Anchor-0" 301 700 basechar 0
LayerCount: 2
Fore
SplineSet
60 0 m 1
 60 222 l 1
 245 222 l 1
 245 392 l 1
 60 392 l 1
 60 700 l 1
 350 700 l 2
 508 700 620 602 620 462 c 0
 620 369 572 295 494 255 c 1
 648 0 l 1
 436 0 l 1
 310 222 l 1
 245 222 l 1
 245 0 l 1
 60 0 l 1
245 392 m 1
 340 392 l 2
 390 392 425 421 425 462 c 0
 425 502 390 531 340 531 c 2
 245 531 l 1
 245 392 l 1
EndSplineSet
EndChar

StartChar: Racute
Encoding: 340 340 82
Width: 663
GlyphClass: 2
Flags: W
AnchorPoint: "Anchor-2" 332 0 basechar 0
AnchorPoint: "Anchor-0" 301 700 basechar 0
LayerCount: 2
Fore
SplineSet
202 754 m 1
 312 900 l 1
 502 900 l 1
 372 754 l 1
 202 754 l 1
60 0 m 1
 60 700 l 1
 350 700 l 2
 508 700 620 602 620 462 c 0
 620 369 572 295 494 255 c 1
 648 0 l 1
 436 0 l 1
 310 222 l 1
 245 222 l 1
 245 0 l 1
 60 0 l 1
245 392 m 1
 340 392 l 2
 390 392 425 421 425 462 c 0
 425 502 390 531 340 531 c 2
 245 531 l 1
 245 392 l 1
EndSplineSet
EndChar

StartChar: Rcaron
Encoding: 344 344 83
Width: 663
GlyphClass: 2
Flags: W
AnchorPoint: "Anchor-2" 332 0 basechar 0
AnchorPoint: "Anchor-0" 301 700 basechar 0
LayerCount: 2
Fore
SplineSet
210 754 m 1
 83 900 l 1
 233 900 l 1
 296 836 l 1
 358 900 l 1
 508 900 l 1
 381 754 l 1
 210 754 l 1
60 0 m 1
 60 700 l 1
 350 700 l 2
 508 700 620 602 620 462 c 0
 620 369 572 295 494 255 c 1
 648 0 l 1
 436 0 l 1
 310 222 l 1
 245 222 l 1
 245 0 l 1
 60 0 l 1
245 392 m 1
 340 392 l 2
 390 392 425 421 425 462 c 0
 425 502 390 531 340 531 c 2
 245 531 l 1
 245 392 l 1
EndSplineSet
EndChar

StartChar: uni0156
Encoding: 342 342 84
Width: 663
GlyphClass: 2
Flags: W
AnchorPoint: "Anchor-2" 332 0 basechar 0
AnchorPoint: "Anchor-0" 301 700 basechar 0
LayerCount: 2
Fore
SplineSet
60 0 m 1
 60 700 l 1
 350 700 l 2
 508 700 620 602 620 462 c 0
 620 369 572 295 494 255 c 1
 648 0 l 1
 436 0 l 1
 310 222 l 1
 245 222 l 1
 245 0 l 1
 60 0 l 1
245 392 m 1
 340 392 l 2
 390 392 425 421 425 462 c 0
 425 502 390 531 340 531 c 2
 245 531 l 1
 245 392 l 1
213 -200 m 1
 259 -40 l 1
 427 -40 l 1
 343 -200 l 1
 213 -200 l 1
EndSplineSet
EndChar

StartChar: S
Encoding: 83 83 85
Width: 600
GlyphClass: 2
Flags: W
AnchorPoint: "Anchor-2" 305 0 basechar 0
AnchorPoint: "Anchor-0" 305 700 basechar 0
LayerCount: 2
Fore
SplineSet
305 -12 m 0
 173 -12 44 67 30 158 c 1
 214 209 l 1
 226 175 255 149 302 147 c 0
 339 146 373 169 373 204 c 0
 373 227 357 250 321 259 c 2
 216 286 l 2
 107 314 44 389 44 494 c 0
 44 631 140 712 305 712 c 0
 436 712 521 664 569 546 c 1
 386 493 l 1
 379 519 352 553 305 553 c 0
 260 553 234 532 234 494 c 0
 234 470 255 451 292 442 c 2
 398 415 l 2
 505 388 568 303 568 203 c 0
 568 65 469 -12 305 -12 c 0
EndSplineSet
EndChar

StartChar: Sacute
Encoding: 346 346 86
Width: 600
GlyphClass: 2
Flags: W
AnchorPoint: "Anchor-2" 305 0 basechar 0
AnchorPoint: "Anchor-0" 305 700 basechar 0
LayerCount: 2
Fore
SplineSet
206 754 m 1
 316 900 l 1
 506 900 l 1
 376 754 l 1
 206 754 l 1
305 -12 m 0
 173 -12 44 67 30 158 c 1
 214 209 l 1
 226 175 255 149 302 147 c 0
 339 146 373 169 373 204 c 0
 373 227 357 250 321 259 c 2
 216 286 l 2
 107 314 44 389 44 494 c 0
 44 631 140 712 305 712 c 0
 436 712 521 664 569 546 c 1
 386 493 l 1
 379 519 352 553 305 553 c 0
 260 553 234 532 234 494 c 0
 234 470 255 451 292 442 c 2
 398 415 l 2
 505 388 568 303 568 203 c 0
 568 65 469 -12 305 -12 c 0
EndSplineSet
EndChar

StartChar: Scaron
Encoding: 352 352 87
Width: 600
GlyphClass: 2
Flags: W
AnchorPoint: "Anchor-2" 305 0 basechar 0
AnchorPoint: "Anchor-0" 305 700 basechar 0
LayerCount: 2
Fore
SplineSet
214 754 m 1
 87 900 l 1
 237 900 l 1
 300 836 l 1
 362 900 l 1
 512 900 l 1
 385 754 l 1
 214 754 l 1
305 -12 m 0
 173 -12 44 67 30 158 c 1
 214 209 l 1
 226 175 255 149 302 147 c 0
 339 146 373 169 373 204 c 0
 373 227 357 250 321 259 c 2
 216 286 l 2
 107 314 44 389 44 494 c 0
 44 631 140 712 305 712 c 0
 436 712 521 664 569 546 c 1
 386 493 l 1
 379 519 352 553 305 553 c 0
 260 553 234 532 234 494 c 0
 234 470 255 451 292 442 c 2
 398 415 l 2
 505 388 568 303 568 203 c 0
 568 65 469 -12 305 -12 c 0
EndSplineSet
EndChar

StartChar: Scedilla
Encoding: 350 350 88
Width: 600
GlyphClass: 2
Flags: W
AnchorPoint: "Anchor-2" 305 0 basechar 0
AnchorPoint: "Anchor-0" 305 700 basechar 0
LayerCount: 2
Fore
SplineSet
251 -210 m 0
 219 -210 183 -198 155 -179 c 1
 176 -103 l 1
 195 -112 212 -117 223 -117 c 0
 246 -117 260 -110 260 -98 c 0
 260 -80 240 -69 205 -69 c 1
 231 -4 l 1
 128 18 41 84 30 158 c 1
 214 209 l 1
 226 175 255 149 302 147 c 0
 339 146 373 169 373 204 c 0
 373 227 357 250 321 259 c 2
 216 286 l 2
 107 314 44 389 44 494 c 0
 44 631 140 712 305 712 c 0
 436 712 521 664 569 546 c 1
 386 493 l 1
 379 519 352 553 305 553 c 0
 260 553 234 532 234 494 c 0
 234 470 255 451 292 442 c 2
 398 415 l 2
 505 388 568 303 568 203 c 0
 568 70 477 -6 324 -12 c 1
 317 -26 l 1
 362 -41 389 -72 389 -108 c 0
 389 -172 338 -210 251 -210 c 0
EndSplineSet
Substitution2: "'locl' Localized Forms in Latin lookup 12 subtable" uni0218
Substitution2: "'locl' Localized Forms in Latin lookup 11 subtable" uni0218
Substitution2: "'aalt' Access All Alternates in Latin lookup 0 subtable" uni0218
EndChar

StartChar: Scircumflex
Encoding: 348 348 89
Width: 600
GlyphClass: 2
Flags: W
AnchorPoint: "Anchor-2" 305 0 basechar 0
AnchorPoint: "Anchor-0" 305 700 basechar 0
LayerCount: 2
Fore
SplineSet
87 765 m 1
 214 912 l 1
 385 912 l 1
 512 765 l 1
 362 765 l 1
 300 822 l 1
 237 765 l 1
 87 765 l 1
305 -12 m 0
 173 -12 44 67 30 158 c 1
 214 209 l 1
 226 175 255 149 302 147 c 0
 339 146 373 169 373 204 c 0
 373 227 357 250 321 259 c 2
 216 286 l 2
 107 314 44 389 44 494 c 0
 44 631 140 712 305 712 c 0
 436 712 521 664 569 546 c 1
 386 493 l 1
 379 519 352 553 305 553 c 0
 260 553 234 532 234 494 c 0
 234 470 255 451 292 442 c 2
 398 415 l 2
 505 388 568 303 568 203 c 0
 568 65 469 -12 305 -12 c 0
EndSplineSet
EndChar

StartChar: uni0218
Encoding: 536 536 90
Width: 600
GlyphClass: 2
Flags: W
AnchorPoint: "Anchor-2" 305 0 basechar 0
AnchorPoint: "Anchor-0" 305 700 basechar 0
LayerCount: 2
Fore
SplineSet
305 -12 m 0
 173 -12 44 67 30 158 c 1
 214 209 l 1
 226 175 255 149 302 147 c 0
 339 146 373 169 373 204 c 0
 373 227 357 250 321 259 c 2
 216 286 l 2
 107 314 44 389 44 494 c 0
 44 631 140 712 305 712 c 0
 436 712 521 664 569 546 c 1
 386 493 l 1
 379 519 352 553 305 553 c 0
 260 553 234 532 234 494 c 0
 234 470 255 451 292 442 c 2
 398 415 l 2
 505 388 568 303 568 203 c 0
 568 65 469 -12 305 -12 c 0
186 -200 m 1
 232 -40 l 1
 400 -40 l 1
 316 -200 l 1
 186 -200 l 1
EndSplineSet
EndChar

StartChar: uni1E9E
Encoding: 7838 7838 91
Width: 684
GlyphClass: 1
Flags: W
LayerCount: 2
Fore
SplineSet
416 -12 m 0
 391 -12 342 -8 305 6 c 1
 336 176 l 1
 351 169 372 164 400 164 c 0
 440 164 478 190 478 234 c 0
 478 271 459 286 390 286 c 2
 329 286 l 1
 329 409 l 1
 419 528 l 1
 388 539 354 546 316 546 c 0
 275 546 250 523 250 485 c 2
 250 0 l 1
 60 0 l 1
 60 543 l 2
 60 649 160 712 329 712 c 0
 462 712 586 642 656 578 c 1
 527 390 l 1
 618 360 659 294 659 202 c 0
 659 67 574 -12 416 -12 c 0
EndSplineSet
EndChar

StartChar: T
Encoding: 84 84 92
Width: 614
GlyphClass: 2
Flags: W
AnchorPoint: "Anchor-2" 307 0 basechar 0
AnchorPoint: "Anchor-0" 306 700 basechar 0
LayerCount: 2
Fore
SplineSet
215 700 m 1
 17 700 l 1
 17 530 l 1
 400 530 l 1
 215 345 l 1
 214 -2 l 1
 400 0 l 1
 400 345 l 1
 400 530 l 1
 597 530 l 1
 598 700 l 1
 215 700 l 1
EndSplineSet
EndChar

StartChar: Tcaron
Encoding: 356 356 93
Width: 614
GlyphClass: 2
Flags: W
AnchorPoint: "Anchor-2" 307 0 basechar 0
AnchorPoint: "Anchor-0" 306 700 basechar 0
LayerCount: 2
Fore
SplineSet
215 754 m 1
 88 900 l 1
 238 900 l 1
 301 836 l 1
 363 900 l 1
 513 900 l 1
 386 754 l 1
 215 754 l 1
215 0 m 1
 215 530 l 1
 17 530 l 1
 17 700 l 1
 597 700 l 1
 597 530 l 1
 400 530 l 1
 400 0 l 1
 215 0 l 1
EndSplineSet
EndChar

StartChar: uni021A
Encoding: 538 538 94
Width: 614
GlyphClass: 2
Flags: W
AnchorPoint: "Anchor-2" 307 0 basechar 0
AnchorPoint: "Anchor-0" 306 700 basechar 0
LayerCount: 2
Fore
SplineSet
215 0 m 1
 215 530 l 1
 17 530 l 1
 17 700 l 1
 597 700 l 1
 597 530 l 1
 400 530 l 1
 400 0 l 1
 215 0 l 1
188 -200 m 1
 234 -40 l 1
 402 -40 l 1
 318 -200 l 1
 188 -200 l 1
EndSplineSet
EndChar

StartChar: U
Encoding: 85 85 95
Width: 700
GlyphClass: 2
Flags: W
HStem: -12 172<278.458 424.012> 680 20G<50 235 465 485>
VStem: 50 185<200.638 700> 465 185<200.702 515>
AnchorPoint: "Anchor-3" 555 50 basechar 0
AnchorPoint: "Anchor-2" 348 0 basechar 0
AnchorPoint: "Anchor-0" 350 700 basechar 0
LayerCount: 2
Fore
SplineSet
348 -12 m 0
 161 -12 50 94 50 271 c 2
 50 700 l 1
 235 700 l 1
 235 271 l 2
 235 201 278 160 350 160 c 0
 422 160 465 201 465 271 c 2
 465 700 l 1
 650 515 l 1
 650 271 l 2
 650 94.2063340292 538 -12 348 -12 c 0
EndSplineSet
EndChar

StartChar: Uacute
Encoding: 218 218 96
Width: 700
GlyphClass: 2
Flags: W
AnchorPoint: "Anchor-3" 555 50 basechar 0
AnchorPoint: "Anchor-2" 348 0 basechar 0
AnchorPoint: "Anchor-0" 350 700 basechar 0
LayerCount: 2
Fore
SplineSet
251 751 m 1
 361 890 l 1
 551 890 l 1
 421 751 l 1
 251 751 l 1
348 -12 m 0
 161 -12 50 94 50 271 c 2
 50 700 l 1
 235 700 l 1
 235 271 l 2
 235 201 278 160 350 160 c 0
 422 160 465 201 465 271 c 2
 465 700 l 1
 650 700 l 1
 650 271 l 2
 650 94 538 -12 348 -12 c 0
EndSplineSet
EndChar

StartChar: Ubreve
Encoding: 364 364 97
Width: 700
GlyphClass: 2
Flags: W
AnchorPoint: "Anchor-3" 555 50 basechar 0
AnchorPoint: "Anchor-2" 348 0 basechar 0
AnchorPoint: "Anchor-0" 350 700 basechar 0
LayerCount: 2
Fore
SplineSet
351 742 m 0
 232 742 148 807 148 900 c 1
 312 900 l 1
 312 877 328 861 351 861 c 0
 373 861 389 877 389 900 c 1
 553 900 l 1
 553 807 469 742 351 742 c 0
348 -12 m 0
 161 -12 50 94 50 271 c 2
 50 700 l 1
 235 700 l 1
 235 271 l 2
 235 201 278 160 350 160 c 0
 422 160 465 201 465 271 c 2
 465 700 l 1
 650 700 l 1
 650 271 l 2
 650 94 538 -12 348 -12 c 0
EndSplineSet
EndChar

StartChar: Ucircumflex
Encoding: 219 219 98
Width: 700
GlyphClass: 2
Flags: W
AnchorPoint: "Anchor-3" 555 50 basechar 0
AnchorPoint: "Anchor-2" 348 0 basechar 0
AnchorPoint: "Anchor-0" 350 700 basechar 0
LayerCount: 2
Fore
SplineSet
132 765 m 1
 259 912 l 1
 430 912 l 1
 557 765 l 1
 407 765 l 1
 345 822 l 1
 282 765 l 1
 132 765 l 1
348 -12 m 0
 161 -12 50 94 50 271 c 2
 50 700 l 1
 235 700 l 1
 235 271 l 2
 235 201 278 160 350 160 c 0
 422 160 465 201 465 271 c 2
 465 700 l 1
 650 700 l 1
 650 271 l 2
 650 94 538 -12 348 -12 c 0
EndSplineSet
EndChar

StartChar: Udieresis
Encoding: 220 220 99
Width: 700
GlyphClass: 2
Flags: W
AnchorPoint: "Anchor-3" 555 50 basechar 0
AnchorPoint: "Anchor-2" 348 0 basechar 0
AnchorPoint: "Anchor-0" 350 948 basechar 0
LayerCount: 2
Fore
SplineSet
485 769 m 0
 438 769 397 810 397 857 c 0
 397 904 438 945 485 945 c 0
 532 945 573 904 573 857 c 0
 573 810 532 769 485 769 c 0
215 769 m 0
 167 769 127 809 127 857 c 0
 127 905 167 945 215 945 c 0
 263 945 303 905 303 857 c 0
 303 809 263 769 215 769 c 0
348 -12 m 0
 161 -12 50 94 50 271 c 2
 50 700 l 1
 235 700 l 1
 235 271 l 2
 235 201 278 160 350 160 c 0
 422 160 465 201 465 271 c 2
 465 700 l 1
 650 700 l 1
 650 271 l 2
 650 94 538 -12 348 -12 c 0
EndSplineSet
EndChar

StartChar: Ugrave
Encoding: 217 217 100
Width: 700
GlyphClass: 2
Flags: W
AnchorPoint: "Anchor-3" 555 50 basechar 0
AnchorPoint: "Anchor-2" 348 0 basechar 0
AnchorPoint: "Anchor-0" 350 700 basechar 0
LayerCount: 2
Fore
SplineSet
292 754 m 1
 160 901 l 1
 350 901 l 1
 462 754 l 1
 292 754 l 1
348 -12 m 0
 161 -12 50 94 50 271 c 2
 50 700 l 1
 235 700 l 1
 235 271 l 2
 235 201 278 160 350 160 c 0
 422 160 465 201 465 271 c 2
 465 700 l 1
 650 700 l 1
 650 271 l 2
 650 94 538 -12 348 -12 c 0
EndSplineSet
EndChar

StartChar: Uhungarumlaut
Encoding: 368 368 101
Width: 700
GlyphClass: 2
Flags: W
AnchorPoint: "Anchor-3" 555 50 basechar 0
AnchorPoint: "Anchor-2" 348 0 basechar 0
AnchorPoint: "Anchor-0" 350 700 basechar 0
LayerCount: 2
Fore
SplineSet
394 754 m 1
 494 900 l 1
 664 900 l 1
 542 754 l 1
 394 754 l 1
164 754 m 1
 260 900 l 1
 430 900 l 1
 310 754 l 1
 164 754 l 1
348 -12 m 0
 161 -12 50 94 50 271 c 2
 50 700 l 1
 235 700 l 1
 235 271 l 2
 235 201 278 160 350 160 c 0
 422 160 465 201 465 271 c 2
 465 700 l 1
 650 700 l 1
 650 271 l 2
 650 94 538 -12 348 -12 c 0
EndSplineSet
EndChar

StartChar: Umacron
Encoding: 362 362 102
Width: 700
GlyphClass: 2
Flags: W
AnchorPoint: "Anchor-3" 555 50 basechar 0
AnchorPoint: "Anchor-2" 348 0 basechar 0
AnchorPoint: "Anchor-0" 350 700 basechar 0
LayerCount: 2
Fore
SplineSet
180 749 m 1
 180 900 l 1
 520 900 l 1
 520 749 l 1
 180 749 l 1
348 -12 m 0
 161 -12 50 94 50 271 c 2
 50 700 l 1
 235 700 l 1
 235 271 l 2
 235 201 278 160 350 160 c 0
 422 160 465 201 465 271 c 2
 465 700 l 1
 650 700 l 1
 650 271 l 2
 650 94 538 -12 348 -12 c 0
EndSplineSet
EndChar

StartChar: Uogonek
Encoding: 370 370 103
Width: 700
GlyphClass: 2
Flags: W
AnchorPoint: "Anchor-3" 555 50 basechar 0
AnchorPoint: "Anchor-2" 348 0 basechar 0
AnchorPoint: "Anchor-0" 350 700 basechar 0
LayerCount: 2
Fore
SplineSet
348 -12 m 0
 161 -12 50 94 50 271 c 2
 50 700 l 1
 235 700 l 1
 235 271 l 2
 235 201 278 160 350 160 c 0
 422 160 465 201 465 271 c 2
 465 700 l 1
 650 700 l 1
 650 271 l 2
 650 177 619 103 561 55 c 1
 504 -4 500 -32 500 -63 c 0
 500 -83 512 -96 534 -96 c 0
 551 -96 561 -93 572 -89 c 1
 624 -196 l 1
 604 -208 579 -212 546 -212 c 0
 451 -212 370 -176 370 -104 c 0
 370 -63 395 -32 433 -4 c 1
 407 -9 378 -12 348 -12 c 0
EndSplineSet
EndChar

StartChar: Uring
Encoding: 366 366 104
Width: 700
GlyphClass: 2
Flags: W
AnchorPoint: "Anchor-3" 555 50 basechar 0
AnchorPoint: "Anchor-2" 348 0 basechar 0
AnchorPoint: "Anchor-0" 350 700 basechar 0
LayerCount: 2
Fore
SplineSet
350 720 m 0
 276 720 212 777 212 849 c 0
 212 922 276 979 350 979 c 0
 423 979 487 922 487 849 c 0
 487 777 423 720 350 720 c 0
350 816 m 0
 370 816 382 829 382 849 c 0
 382 870 370 883 350 883 c 0
 329 883 317 870 317 849 c 0
 317 829 329 816 350 816 c 0
348 -12 m 0
 161 -12 50 94 50 271 c 2
 50 700 l 1
 235 700 l 1
 235 271 l 2
 235 201 278 160 350 160 c 0
 422 160 465 201 465 271 c 2
 465 700 l 1
 650 700 l 1
 650 271 l 2
 650 94 538 -12 348 -12 c 0
EndSplineSet
EndChar

StartChar: V
Encoding: 86 86 105
Width: 750
GlyphClass: 1
Flags: W
HStem: 0 21G<276 483.629> 680 20G<7 214.101 535.983 743>
LayerCount: 2
Fore
SplineSet
276 0 m 1
 376 224 l 1
 189.92 224 l 1
 7 700 l 1
 207 700 l 1
 376 224 l 1
 543 700 l 1
 743 700 l 1
 476 0 l 1
 276 0 l 1
EndSplineSet
EndChar

StartChar: W
Encoding: 87 87 106
Width: 1008
GlyphClass: 2
Flags: W
HStem: 0 21G<208 405.024 602.976 805.743> 680 20G<7 201.349 406.94 601.347 806.653 1001>
AnchorPoint: "Anchor-0" 503 670 basechar 0
LayerCount: 2
Fore
SplineSet
208 0 m 1
 307 285 l 1
 126.164285714 285 l 1
 7 700 l 1
 196 700 l 1
 307 285 l 1
 412 700 l 1
 596 700 l 1
 704 296 l 1
 812 700 l 1
 1001 700 l 1
 884.994285714 296 l 1
 844.22 154 l 1
 800 0 l 1
 608 0 l 1
 504 414 l 1
 400 0 l 1
 208 0 l 1
EndSplineSet
EndChar

StartChar: Wacute
Encoding: 7810 7810 107
Width: 1008
GlyphClass: 2
Flags: W
AnchorPoint: "Anchor-0" 503 670 basechar 0
LayerCount: 2
Fore
SplineSet
404 724 m 1
 514 870 l 1
 704 870 l 1
 574 724 l 1
 404 724 l 1
208 0 m 1
 7 700 l 1
 196 700 l 1
 307 285 l 1
 412 700 l 1
 596 700 l 1
 704 296 l 1
 812 700 l 1
 1001 700 l 1
 800 0 l 1
 608 0 l 1
 504 414 l 1
 400 0 l 1
 208 0 l 1
EndSplineSet
EndChar

StartChar: Wcircumflex
Encoding: 372 372 108
Width: 1008
GlyphClass: 2
Flags: W
AnchorPoint: "Anchor-0" 503 670 basechar 0
LayerCount: 2
Fore
SplineSet
285 735 m 1
 412 882 l 1
 583 882 l 1
 710 735 l 1
 560 735 l 1
 498 792 l 1
 435 735 l 1
 285 735 l 1
208 0 m 1
 7 700 l 1
 196 700 l 1
 307 285 l 1
 412 700 l 1
 596 700 l 1
 704 296 l 1
 812 700 l 1
 1001 700 l 1
 800 0 l 1
 608 0 l 1
 504 414 l 1
 400 0 l 1
 208 0 l 1
EndSplineSet
EndChar

StartChar: Wdieresis
Encoding: 7812 7812 109
Width: 1008
GlyphClass: 2
Flags: W
AnchorPoint: "Anchor-0" 503 918 basechar 0
LayerCount: 2
Fore
SplineSet
638 739 m 0
 591 739 550 780 550 827 c 0
 550 874 591 915 638 915 c 0
 685 915 726 874 726 827 c 0
 726 780 685 739 638 739 c 0
368 739 m 0
 320 739 280 779 280 827 c 0
 280 875 320 915 368 915 c 0
 416 915 456 875 456 827 c 0
 456 779 416 739 368 739 c 0
208 0 m 1
 7 700 l 1
 196 700 l 1
 307 285 l 1
 412 700 l 1
 596 700 l 1
 704 296 l 1
 812 700 l 1
 1001 700 l 1
 800 0 l 1
 608 0 l 1
 504 414 l 1
 400 0 l 1
 208 0 l 1
EndSplineSet
EndChar

StartChar: Wgrave
Encoding: 7808 7808 110
Width: 1008
GlyphClass: 2
Flags: W
AnchorPoint: "Anchor-0" 503 670 basechar 0
LayerCount: 2
Fore
SplineSet
445 724 m 1
 313 871 l 1
 503 871 l 1
 615 724 l 1
 445 724 l 1
208 0 m 1
 7 700 l 1
 196 700 l 1
 307 285 l 1
 412 700 l 1
 596 700 l 1
 704 296 l 1
 812 700 l 1
 1001 700 l 1
 800 0 l 1
 608 0 l 1
 504 414 l 1
 400 0 l 1
 208 0 l 1
EndSplineSet
EndChar

StartChar: X
Encoding: 88 88 111
Width: 739
GlyphClass: 1
Flags: W
HStem: 0 21G<10 246.173 492.923 729> 680 20G<18 252.789 486.316 721>
LayerCount: 2
Fore
SplineSet
10 0 m 1
 267 361 l 1
 370 510 l 1
 157.557522124 510 l 1
 18 700 l 1
 239 700 l 1
 370 510 l 1
 500 700 l 1
 721 700 l 1
 473 362 l 1
 370 208 l 1
 581.906077348 208 l 1
 729 0 l 1
 506 0 l 1
 370 208 l 1
 233 0 l 1
 10 0 l 1
EndSplineSet
EndChar

StartChar: Y
Encoding: 89 89 112
Width: 686
GlyphClass: 2
Flags: W
HStem: 0 21G<251 436> 680 20G<5 226.689 459.311 681>
VStem: 251 185<0 297>
AnchorPoint: "Anchor-0" 343 670 basechar 0
LayerCount: 2
Fore
SplineSet
251 0 m 1
 251 297 l 1
 343 481 l 1
 138.682382134 481 l 1
 5 700 l 1
 215 700 l 1
 343 481 l 1
 471 700 l 1
 681 700 l 1
 436 298 l 1
 436 0 l 1
 251 0 l 1
EndSplineSet
EndChar

StartChar: Yacute
Encoding: 221 221 113
Width: 686
GlyphClass: 2
Flags: W
AnchorPoint: "Anchor-0" 343 670 basechar 0
LayerCount: 2
Fore
SplineSet
244 724 m 1
 354 870 l 1
 544 870 l 1
 414 724 l 1
 244 724 l 1
251 0 m 1
 251 297 l 1
 5 700 l 1
 215 700 l 1
 343 481 l 1
 471 700 l 1
 681 700 l 1
 436 298 l 1
 436 0 l 1
 251 0 l 1
EndSplineSet
EndChar

StartChar: Ycircumflex
Encoding: 374 374 114
Width: 686
GlyphClass: 2
Flags: W
AnchorPoint: "Anchor-0" 343 670 basechar 0
LayerCount: 2
Fore
SplineSet
125 735 m 1
 252 882 l 1
 423 882 l 1
 550 735 l 1
 400 735 l 1
 338 792 l 1
 275 735 l 1
 125 735 l 1
251 0 m 1
 251 297 l 1
 5 700 l 1
 215 700 l 1
 343 481 l 1
 471 700 l 1
 681 700 l 1
 436 298 l 1
 436 0 l 1
 251 0 l 1
EndSplineSet
EndChar

StartChar: Ydieresis
Encoding: 376 376 115
Width: 686
GlyphClass: 2
Flags: W
AnchorPoint: "Anchor-0" 343 918 basechar 0
LayerCount: 2
Fore
SplineSet
478 739 m 0
 431 739 390 780 390 827 c 0
 390 874 431 915 478 915 c 0
 525 915 566 874 566 827 c 0
 566 780 525 739 478 739 c 0
208 739 m 0
 160 739 120 779 120 827 c 0
 120 875 160 915 208 915 c 0
 256 915 296 875 296 827 c 0
 296 779 256 739 208 739 c 0
251 0 m 1
 251 297 l 1
 5 700 l 1
 215 700 l 1
 343 481 l 1
 471 700 l 1
 681 700 l 1
 436 298 l 1
 436 0 l 1
 251 0 l 1
EndSplineSet
EndChar

StartChar: Ygrave
Encoding: 7922 7922 116
Width: 686
GlyphClass: 2
Flags: W
AnchorPoint: "Anchor-0" 343 670 basechar 0
LayerCount: 2
Fore
SplineSet
285 724 m 1
 153 871 l 1
 343 871 l 1
 455 724 l 1
 285 724 l 1
251 0 m 1
 251 297 l 1
 5 700 l 1
 215 700 l 1
 343 481 l 1
 471 700 l 1
 681 700 l 1
 436 298 l 1
 436 0 l 1
 251 0 l 1
EndSplineSet
EndChar

StartChar: Z
Encoding: 90 90 117
Width: 624
GlyphClass: 2
Flags: W
HStem: 525 175<33 351>
AnchorPoint: "Anchor-0" 313 700 basechar 0
LayerCount: 2
Fore
SplineSet
351 524 m 1
 33 525 l 1
 33 700 l 1
 352 700 l 1
 351 524 l 1
593.325195312 524.266601562 m 1
 593.324947589 524.266247379 272 175 272 175 c 1
 30 175 l 1
 351 524 l 1
 593.325195312 524.266601562 l 1
272 175 m 1
 272 0 l 1
 591 0 l 1
 591 175 l 1
 272 175 l 1
EndSplineSet
EndChar

StartChar: Zacute
Encoding: 377 377 118
Width: 624
GlyphClass: 2
Flags: W
AnchorPoint: "Anchor-0" 313 700 basechar 0
LayerCount: 2
Fore
SplineSet
214 754 m 1
 324 900 l 1
 514 900 l 1
 384 754 l 1
 214 754 l 1
30 0 m 1
 30 175 l 1
 352 525 l 1
 33 525 l 1
 33 700 l 1
 594 700 l 1
 594 525 l 1
 272 175 l 1
 591 175 l 1
 591 0 l 1
 30 0 l 1
EndSplineSet
EndChar

StartChar: Zcaron
Encoding: 381 381 119
Width: 624
GlyphClass: 2
Flags: W
AnchorPoint: "Anchor-0" 313 700 basechar 0
LayerCount: 2
Fore
SplineSet
222 754 m 1
 95 900 l 1
 245 900 l 1
 308 836 l 1
 370 900 l 1
 520 900 l 1
 393 754 l 1
 222 754 l 1
30 0 m 1
 30 175 l 1
 352 525 l 1
 33 525 l 1
 33 700 l 1
 594 700 l 1
 594 525 l 1
 272 175 l 1
 591 175 l 1
 591 0 l 1
 30 0 l 1
EndSplineSet
EndChar

StartChar: Zdotaccent
Encoding: 379 379 120
Width: 624
GlyphClass: 2
Flags: W
AnchorPoint: "Anchor-0" 313 700 basechar 0
LayerCount: 2
Fore
SplineSet
313 748 m 0
 259 748 213 794 213 848 c 0
 213 902 259 948 313 948 c 0
 367 948 413 902 413 848 c 0
 413 794 367 748 313 748 c 0
30 0 m 1
 30 175 l 1
 352 525 l 1
 33 525 l 1
 33 700 l 1
 594 700 l 1
 594 525 l 1
 272 175 l 1
 591 175 l 1
 591 0 l 1
 30 0 l 1
EndSplineSet
EndChar

StartChar: I.ss02
Encoding: 65538 -1 121
Width: 465
GlyphClass: 2
Flags: W
AnchorPoint: "Anchor-3" 335 0 basechar 0
AnchorPoint: "Anchor-2" 235 0 basechar 0
AnchorPoint: "Anchor-0" 235 700 basechar 0
LayerCount: 2
Fore
SplineSet
30 0 m 1
 30 170 l 1
 140 170 l 1
 140 530 l 1
 30 530 l 1
 30 700 l 1
 435 700 l 1
 435 530 l 1
 325 530 l 1
 325 170 l 1
 435 170 l 1
 435 0 l 1
 30 0 l 1
EndSplineSet
EndChar

StartChar: IJ.ss02
Encoding: 65539 -1 122
Width: 1052
GlyphClass: 2
Flags: W
AnchorPoint: "Anchor-3" 335 0 basechar 0
AnchorPoint: "Anchor-2" 235 0 basechar 0
LayerCount: 2
Fore
SplineSet
30 0 m 1
 30 170 l 1
 140 170 l 1
 140 530 l 1
 30 530 l 1
 30 700 l 1
 435 700 l 1
 435 530 l 1
 325 530 l 1
 325 170 l 1
 435 170 l 1
 435 0 l 1
 30 0 l 1
728 -16 m 0
 554 -16 475 121 475 201 c 1
 638 251 l 1
 652 186 683 154 730 154 c 0
 781 154 817 186 817 255 c 2
 817 700 l 1
 1002 700 l 1
 1002 209 l 2
 1002 77 899 -16 728 -16 c 0
EndSplineSet
EndChar

StartChar: Iacute.ss02
Encoding: 65540 -1 123
Width: 465
GlyphClass: 2
Flags: W
AnchorPoint: "Anchor-3" 335 0 basechar 0
AnchorPoint: "Anchor-2" 235 0 basechar 0
AnchorPoint: "Anchor-0" 235 700 basechar 0
LayerCount: 2
Fore
SplineSet
136 751 m 1
 246 890 l 1
 436 890 l 1
 306 751 l 1
 136 751 l 1
30 0 m 1
 30 170 l 1
 140 170 l 1
 140 530 l 1
 30 530 l 1
 30 700 l 1
 435 700 l 1
 435 530 l 1
 325 530 l 1
 325 170 l 1
 435 170 l 1
 435 0 l 1
 30 0 l 1
EndSplineSet
EndChar

StartChar: Icircumflex.ss02
Encoding: 65541 -1 124
Width: 465
GlyphClass: 2
Flags: W
AnchorPoint: "Anchor-3" 335 0 basechar 0
AnchorPoint: "Anchor-2" 235 0 basechar 0
AnchorPoint: "Anchor-0" 235 700 basechar 0
LayerCount: 2
Fore
SplineSet
17 765 m 1
 144 912 l 1
 315 912 l 1
 442 765 l 1
 292 765 l 1
 230 822 l 1
 167 765 l 1
 17 765 l 1
30 0 m 1
 30 170 l 1
 140 170 l 1
 140 530 l 1
 30 530 l 1
 30 700 l 1
 435 700 l 1
 435 530 l 1
 325 530 l 1
 325 170 l 1
 435 170 l 1
 435 0 l 1
 30 0 l 1
EndSplineSet
EndChar

StartChar: Idieresis.ss02
Encoding: 65542 -1 125
Width: 465
GlyphClass: 2
Flags: W
AnchorPoint: "Anchor-3" 335 0 basechar 0
AnchorPoint: "Anchor-2" 235 0 basechar 0
AnchorPoint: "Anchor-0" 245 948 basechar 0
LayerCount: 2
Fore
SplineSet
345 769 m 0
 298 769 257 810 257 857 c 0
 257 904 298 945 345 945 c 0
 392 945 433 904 433 857 c 0
 433 810 392 769 345 769 c 0
145 769 m 0
 97 769 57 809 57 857 c 0
 57 905 97 945 145 945 c 0
 193 945 233 905 233 857 c 0
 233 809 193 769 145 769 c 0
30 0 m 1
 30 170 l 1
 140 170 l 1
 140 530 l 1
 30 530 l 1
 30 700 l 1
 435 700 l 1
 435 530 l 1
 325 530 l 1
 325 170 l 1
 435 170 l 1
 435 0 l 1
 30 0 l 1
EndSplineSet
EndChar

StartChar: Idotaccent.ss02
Encoding: 65543 -1 126
Width: 465
GlyphClass: 2
Flags: W
AnchorPoint: "Anchor-3" 335 0 basechar 0
AnchorPoint: "Anchor-2" 235 0 basechar 0
AnchorPoint: "Anchor-0" 235 700 basechar 0
LayerCount: 2
Fore
SplineSet
235 748 m 0
 181 748 135 794 135 848 c 0
 135 902 181 948 235 948 c 0
 289 948 335 902 335 848 c 0
 335 794 289 748 235 748 c 0
30 0 m 1
 30 170 l 1
 140 170 l 1
 140 530 l 1
 30 530 l 1
 30 700 l 1
 435 700 l 1
 435 530 l 1
 325 530 l 1
 325 170 l 1
 435 170 l 1
 435 0 l 1
 30 0 l 1
EndSplineSet
EndChar

StartChar: Igrave.ss02
Encoding: 65544 -1 127
Width: 465
GlyphClass: 2
Flags: W
AnchorPoint: "Anchor-3" 335 0 basechar 0
AnchorPoint: "Anchor-2" 235 0 basechar 0
AnchorPoint: "Anchor-0" 235 700 basechar 0
LayerCount: 2
Fore
SplineSet
177 754 m 1
 45 901 l 1
 235 901 l 1
 347 754 l 1
 177 754 l 1
30 0 m 1
 30 170 l 1
 140 170 l 1
 140 530 l 1
 30 530 l 1
 30 700 l 1
 435 700 l 1
 435 530 l 1
 325 530 l 1
 325 170 l 1
 435 170 l 1
 435 0 l 1
 30 0 l 1
EndSplineSet
EndChar

StartChar: Imacron.ss02
Encoding: 65545 -1 128
Width: 465
GlyphClass: 2
Flags: W
AnchorPoint: "Anchor-3" 335 0 basechar 0
AnchorPoint: "Anchor-2" 235 0 basechar 0
AnchorPoint: "Anchor-0" 235 700 basechar 0
LayerCount: 2
Fore
SplineSet
65 749 m 1
 65 900 l 1
 405 900 l 1
 405 749 l 1
 65 749 l 1
30 0 m 1
 30 170 l 1
 140 170 l 1
 140 530 l 1
 30 530 l 1
 30 700 l 1
 435 700 l 1
 435 530 l 1
 325 530 l 1
 325 170 l 1
 435 170 l 1
 435 0 l 1
 30 0 l 1
EndSplineSet
EndChar

StartChar: Iogonek.ss02
Encoding: 65546 -1 129
Width: 465
GlyphClass: 2
Flags: W
AnchorPoint: "Anchor-3" 335 0 basechar 0
AnchorPoint: "Anchor-2" 235 0 basechar 0
AnchorPoint: "Anchor-0" 235 700 basechar 0
LayerCount: 2
Fore
SplineSet
30 0 m 1
 30 170 l 1
 140 170 l 1
 140 530 l 1
 30 530 l 1
 30 700 l 1
 435 700 l 1
 435 530 l 1
 325 530 l 1
 325 170 l 1
 435 170 l 1
 435 0 l 1
 325 0 l 1
 289 -23 269 -52 269 -75 c 0
 269 -86 276 -95 287 -95 c 0
 298 -95 305 -92 312 -88 c 1
 364 -196 l 1
 344 -208 319 -212 286 -212 c 0
 202 -212 130 -170 130 -88 c 0
 130 -49 156 -16 187 0 c 1
 30 0 l 1
EndSplineSet
EndChar

StartChar: a
Encoding: 97 97 130
Width: 546
GlyphClass: 2
Flags: W
AnchorPoint: "Anchor-3" 516 0 basechar 0
AnchorPoint: "Anchor-2" 252 0 basechar 0
AnchorPoint: "Anchor-0" 252 500 basechar 0
LayerCount: 2
Fore
SplineSet
204 -12 m 0
 88 -12 20 42 20 141 c 0
 20 245 88 294 204 294 c 2
 330 294 l 1
 326 338 310 368 256 368 c 0
 222 368 202 349 188 328 c 1
 31 378 l 1
 72 460 148 512 252 512 c 0
 412 512 506 419 506 281 c 2
 506 0 l 1
 337 0 l 1
 335 44 l 1
 305 7 260 -12 204 -12 c 0
251 114 m 0
 301 114 332 144 332 191 c 1
 275 191 l 2
 228 191 202 174 202 145 c 0
 202 125 220 114 251 114 c 0
EndSplineSet
Substitution2: "'ss01' Style Set 1 in Latin lookup 32 subtable" a.ss01
Substitution2: "Single Substitution lookup 28 subtable" ordfeminine
AlternateSubs2: "'aalt' Access All Alternates in Latin lookup 1 subtable" a.ss01 ordfeminine
EndChar

StartChar: aacute
Encoding: 225 225 131
Width: 546
GlyphClass: 2
Flags: W
AnchorPoint: "Anchor-3" 516 0 basechar 0
AnchorPoint: "Anchor-2" 252 0 basechar 0
AnchorPoint: "Anchor-0" 252 500 basechar 0
LayerCount: 2
Fore
SplineSet
153 554 m 1
 263 700 l 1
 453 700 l 1
 323 554 l 1
 153 554 l 1
204 -12 m 0
 88 -12 20 42 20 141 c 0
 20 245 88 294 204 294 c 2
 330 294 l 1
 326 338 310 368 256 368 c 0
 222 368 202 349 188 328 c 1
 31 378 l 1
 72 460 148 512 252 512 c 0
 412 512 506 419 506 281 c 2
 506 0 l 1
 337 0 l 1
 335 44 l 1
 305 7 260 -12 204 -12 c 0
251 114 m 0
 301 114 332 144 332 191 c 1
 275 191 l 2
 228 191 202 174 202 145 c 0
 202 125 220 114 251 114 c 0
EndSplineSet
Substitution2: "'ss01' Style Set 1 in Latin lookup 32 subtable" aacute.ss01
Substitution2: "'aalt' Access All Alternates in Latin lookup 0 subtable" aacute.ss01
EndChar

StartChar: abreve
Encoding: 259 259 132
Width: 546
GlyphClass: 2
Flags: W
AnchorPoint: "Anchor-3" 516 0 basechar 0
AnchorPoint: "Anchor-2" 252 0 basechar 0
AnchorPoint: "Anchor-0" 252 500 basechar 0
LayerCount: 2
Fore
SplineSet
253 542 m 0
 134 542 50 607 50 700 c 1
 214 700 l 1
 214 677 230 661 253 661 c 0
 275 661 291 677 291 700 c 1
 455 700 l 1
 455 607 371 542 253 542 c 0
204 -12 m 0
 88 -12 20 42 20 141 c 0
 20 245 88 294 204 294 c 2
 330 294 l 1
 326 338 310 368 256 368 c 0
 222 368 202 349 188 328 c 1
 31 378 l 1
 72 460 148 512 252 512 c 0
 412 512 506 419 506 281 c 2
 506 0 l 1
 337 0 l 1
 335 44 l 1
 305 7 260 -12 204 -12 c 0
251 114 m 0
 301 114 332 144 332 191 c 1
 275 191 l 2
 228 191 202 174 202 145 c 0
 202 125 220 114 251 114 c 0
EndSplineSet
Substitution2: "'ss01' Style Set 1 in Latin lookup 32 subtable" abreve.ss01
Substitution2: "'aalt' Access All Alternates in Latin lookup 0 subtable" abreve.ss01
EndChar

StartChar: uni01CE
Encoding: 462 462 133
Width: 546
GlyphClass: 2
Flags: W
AnchorPoint: "Anchor-3" 516 0 basechar 0
AnchorPoint: "Anchor-2" 252 0 basechar 0
AnchorPoint: "Anchor-0" 252 500 basechar 0
LayerCount: 2
Fore
SplineSet
161 554 m 1
 34 700 l 1
 184 700 l 1
 247 636 l 1
 309 700 l 1
 459 700 l 1
 332 554 l 1
 161 554 l 1
204 -12 m 0
 88 -12 20 42 20 141 c 0
 20 245 88 294 204 294 c 2
 330 294 l 1
 326 338 310 368 256 368 c 0
 222 368 202 349 188 328 c 1
 31 378 l 1
 72 460 148 512 252 512 c 0
 412 512 506 419 506 281 c 2
 506 0 l 1
 337 0 l 1
 335 44 l 1
 305 7 260 -12 204 -12 c 0
251 114 m 0
 301 114 332 144 332 191 c 1
 275 191 l 2
 228 191 202 174 202 145 c 0
 202 125 220 114 251 114 c 0
EndSplineSet
Substitution2: "'ss01' Style Set 1 in Latin lookup 32 subtable" uni01CE.ss01
Substitution2: "'aalt' Access All Alternates in Latin lookup 0 subtable" uni01CE.ss01
EndChar

StartChar: acircumflex
Encoding: 226 226 134
Width: 546
GlyphClass: 2
Flags: W
AnchorPoint: "Anchor-3" 516 0 basechar 0
AnchorPoint: "Anchor-2" 252 0 basechar 0
AnchorPoint: "Anchor-0" 252 500 basechar 0
LayerCount: 2
Fore
SplineSet
34 565 m 1
 161 712 l 1
 332 712 l 1
 459 565 l 1
 309 565 l 1
 247 622 l 1
 184 565 l 1
 34 565 l 1
204 -12 m 0
 88 -12 20 42 20 141 c 0
 20 245 88 294 204 294 c 2
 330 294 l 1
 326 338 310 368 256 368 c 0
 222 368 202 349 188 328 c 1
 31 378 l 1
 72 460 148 512 252 512 c 0
 412 512 506 419 506 281 c 2
 506 0 l 1
 337 0 l 1
 335 44 l 1
 305 7 260 -12 204 -12 c 0
251 114 m 0
 301 114 332 144 332 191 c 1
 275 191 l 2
 228 191 202 174 202 145 c 0
 202 125 220 114 251 114 c 0
EndSplineSet
Substitution2: "'ss01' Style Set 1 in Latin lookup 32 subtable" acircumflex.ss01
Substitution2: "'aalt' Access All Alternates in Latin lookup 0 subtable" acircumflex.ss01
EndChar

StartChar: adieresis
Encoding: 228 228 135
Width: 546
GlyphClass: 2
Flags: W
AnchorPoint: "Anchor-3" 516 0 basechar 0
AnchorPoint: "Anchor-2" 252 0 basechar 0
AnchorPoint: "Anchor-0" 252 748 basechar 0
LayerCount: 2
Fore
SplineSet
387 569 m 0
 340 569 299 610 299 657 c 0
 299 704 340 745 387 745 c 0
 434 745 475 704 475 657 c 0
 475 610 434 569 387 569 c 0
117 569 m 0
 69 569 29 609 29 657 c 0
 29 705 69 745 117 745 c 0
 165 745 205 705 205 657 c 0
 205 609 165 569 117 569 c 0
204 -12 m 0
 88 -12 20 42 20 141 c 0
 20 245 88 294 204 294 c 2
 330 294 l 1
 326 338 310 368 256 368 c 0
 222 368 202 349 188 328 c 1
 31 378 l 1
 72 460 148 512 252 512 c 0
 412 512 506 419 506 281 c 2
 506 0 l 1
 337 0 l 1
 335 44 l 1
 305 7 260 -12 204 -12 c 0
251 114 m 0
 301 114 332 144 332 191 c 1
 275 191 l 2
 228 191 202 174 202 145 c 0
 202 125 220 114 251 114 c 0
EndSplineSet
Substitution2: "'ss01' Style Set 1 in Latin lookup 32 subtable" adieresis.ss01
Substitution2: "'aalt' Access All Alternates in Latin lookup 0 subtable" adieresis.ss01
EndChar

StartChar: agrave
Encoding: 224 224 136
Width: 546
GlyphClass: 2
Flags: W
AnchorPoint: "Anchor-3" 516 0 basechar 0
AnchorPoint: "Anchor-2" 252 0 basechar 0
AnchorPoint: "Anchor-0" 252 500 basechar 0
LayerCount: 2
Fore
SplineSet
194 554 m 1
 62 701 l 1
 252 701 l 1
 364 554 l 1
 194 554 l 1
204 -12 m 0
 88 -12 20 42 20 141 c 0
 20 245 88 294 204 294 c 2
 330 294 l 1
 326 338 310 368 256 368 c 0
 222 368 202 349 188 328 c 1
 31 378 l 1
 72 460 148 512 252 512 c 0
 412 512 506 419 506 281 c 2
 506 0 l 1
 337 0 l 1
 335 44 l 1
 305 7 260 -12 204 -12 c 0
251 114 m 0
 301 114 332 144 332 191 c 1
 275 191 l 2
 228 191 202 174 202 145 c 0
 202 125 220 114 251 114 c 0
EndSplineSet
Substitution2: "'ss01' Style Set 1 in Latin lookup 32 subtable" agrave.ss01
Substitution2: "'aalt' Access All Alternates in Latin lookup 0 subtable" agrave.ss01
EndChar

StartChar: amacron
Encoding: 257 257 137
Width: 546
GlyphClass: 2
Flags: W
AnchorPoint: "Anchor-3" 516 0 basechar 0
AnchorPoint: "Anchor-2" 252 0 basechar 0
AnchorPoint: "Anchor-0" 252 500 basechar 0
LayerCount: 2
Fore
SplineSet
82 549 m 1
 82 700 l 1
 422 700 l 1
 422 549 l 1
 82 549 l 1
204 -12 m 0
 88 -12 20 42 20 141 c 0
 20 245 88 294 204 294 c 2
 330 294 l 1
 326 338 310 368 256 368 c 0
 222 368 202 349 188 328 c 1
 31 378 l 1
 72 460 148 512 252 512 c 0
 412 512 506 419 506 281 c 2
 506 0 l 1
 337 0 l 1
 335 44 l 1
 305 7 260 -12 204 -12 c 0
251 114 m 0
 301 114 332 144 332 191 c 1
 275 191 l 2
 228 191 202 174 202 145 c 0
 202 125 220 114 251 114 c 0
EndSplineSet
Substitution2: "'ss01' Style Set 1 in Latin lookup 32 subtable" amacron.ss01
Substitution2: "'aalt' Access All Alternates in Latin lookup 0 subtable" amacron.ss01
EndChar

StartChar: aogonek
Encoding: 261 261 138
Width: 546
GlyphClass: 2
Flags: W
AnchorPoint: "Anchor-3" 516 0 basechar 0
AnchorPoint: "Anchor-2" 252 0 basechar 0
AnchorPoint: "Anchor-0" 252 500 basechar 0
LayerCount: 2
Fore
SplineSet
204 -12 m 0
 88 -12 20 42 20 141 c 0
 20 245 88 294 204 294 c 2
 330 294 l 1
 326 338 310 368 256 368 c 0
 222 368 202 349 188 328 c 1
 31 378 l 1
 72 460 148 512 252 512 c 0
 412 512 506 419 506 281 c 2
 506 0 l 1
 470 -23 450 -52 450 -75 c 0
 450 -86 457 -95 468 -95 c 0
 479 -95 486 -92 493 -88 c 1
 545 -196 l 1
 525 -208 500 -212 467 -212 c 0
 383 -212 311 -170 311 -88 c 0
 311 -49 337 -16 368 0 c 1
 337 0 l 1
 335 44 l 1
 305 7 260 -12 204 -12 c 0
251 114 m 0
 301 114 332 144 332 191 c 1
 275 191 l 2
 228 191 202 174 202 145 c 0
 202 125 220 114 251 114 c 0
EndSplineSet
Substitution2: "'ss01' Style Set 1 in Latin lookup 32 subtable" aogonek.ss01
Substitution2: "'aalt' Access All Alternates in Latin lookup 0 subtable" aogonek.ss01
EndChar

StartChar: aring
Encoding: 229 229 139
Width: 546
GlyphClass: 2
Flags: W
AnchorPoint: "Anchor-3" 516 0 basechar 0
AnchorPoint: "Anchor-2" 252 0 basechar 0
AnchorPoint: "Anchor-0" 252 500 basechar 0
LayerCount: 2
Fore
SplineSet
252 520 m 0
 178 520 114 577 114 649 c 0
 114 722 178 779 252 779 c 0
 325 779 389 722 389 649 c 0
 389 577 325 520 252 520 c 0
252 616 m 0
 272 616 284 629 284 649 c 0
 284 670 272 683 252 683 c 0
 231 683 219 670 219 649 c 0
 219 629 231 616 252 616 c 0
204 -12 m 0
 88 -12 20 42 20 141 c 0
 20 245 88 294 204 294 c 2
 330 294 l 1
 326 338 310 368 256 368 c 0
 222 368 202 349 188 328 c 1
 31 378 l 1
 72 460 148 512 252 512 c 0
 412 512 506 419 506 281 c 2
 506 0 l 1
 337 0 l 1
 335 44 l 1
 305 7 260 -12 204 -12 c 0
251 114 m 0
 301 114 332 144 332 191 c 1
 275 191 l 2
 228 191 202 174 202 145 c 0
 202 125 220 114 251 114 c 0
EndSplineSet
Substitution2: "'ss01' Style Set 1 in Latin lookup 32 subtable" aring.ss01
Substitution2: "'aalt' Access All Alternates in Latin lookup 0 subtable" aring.ss01
EndChar

StartChar: atilde
Encoding: 227 227 140
Width: 546
GlyphClass: 2
Flags: W
AnchorPoint: "Anchor-3" 516 0 basechar 0
AnchorPoint: "Anchor-2" 252 0 basechar 0
AnchorPoint: "Anchor-0" 252 700 basechar 0
LayerCount: 2
Fore
SplineSet
333 534 m 0
 232 534 240 606 195 606 c 0
 185 606 172 602 164 567 c 1
 53 567 l 1
 65 673 108 712 189 712 c 0
 298 712 293 640 332 640 c 0
 351 640 355 658 358 679 c 1
 469 679 l 1
 457 586 418 534 333 534 c 0
204 -12 m 0
 88 -12 20 42 20 141 c 0
 20 245 88 294 204 294 c 2
 330 294 l 1
 326 338 310 368 256 368 c 0
 222 368 202 349 188 328 c 1
 31 378 l 1
 72 460 148 512 252 512 c 0
 412 512 506 419 506 281 c 2
 506 0 l 1
 337 0 l 1
 335 44 l 1
 305 7 260 -12 204 -12 c 0
251 114 m 0
 301 114 332 144 332 191 c 1
 275 191 l 2
 228 191 202 174 202 145 c 0
 202 125 220 114 251 114 c 0
EndSplineSet
Substitution2: "'ss01' Style Set 1 in Latin lookup 32 subtable" atilde.ss01
Substitution2: "'aalt' Access All Alternates in Latin lookup 0 subtable" atilde.ss01
EndChar

StartChar: ae
Encoding: 230 230 141
Width: 872
GlyphClass: 2
Flags: W
AnchorPoint: "Anchor-3" 791 50 basechar 0
AnchorPoint: "Anchor-2" 589 0 basechar 0
AnchorPoint: "Anchor-0" 601 500 basechar 0
LayerCount: 2
Fore
SplineSet
204 -12 m 0
 88 -12 20 42 20 141 c 0
 20 245 88 294 204 294 c 2
 328 294 l 1
 323 338 308 368 248 368 c 0
 218 368 201 356 180 328 c 1
 21 378 l 1
 68 460 142 512 252 512 c 0
 320 512 374 488 411 447 c 1
 458 488 524 512 601 512 c 0
 754 512 862 412 862 205 c 1
 512 205 l 1
 519 155 549 125 599 125 c 0
 643 125 679 148 687 179 c 1
 845 130 l 1
 809 25 697 -12 604 -12 c 0
 525 -12 457 13 408 57 c 1
 363 12 293 -12 204 -12 c 0
596 388 m 0
 560 388 523 370 513 315 c 1
 679 315 l 1
 669 370 630 388 596 388 c 0
247 114 m 0
 296 114 327 146 327 191 c 1
 273 191 l 2
 226 191 200 174 200 145 c 0
 200 125 217 114 247 114 c 0
EndSplineSet
EndChar

StartChar: b
Encoding: 98 98 142
Width: 605
GlyphClass: 1
Flags: W
LayerCount: 2
Fore
SplineSet
45 0 m 1
 45 700 l 1
 225 700 l 1
 225 448 l 1
 255 490 299 512 359 512 c 0
 501 512 585 415 585 250 c 0
 585 85 501 -12 359 -12 c 0
 297 -12 252 12 222 57 c 1
 216 0 l 1
 45 0 l 1
311 154 m 0
 360 154 396 194 397 250 c 0
 396 306 361 345 312 345 c 0
 261 345 225 306 225 250 c 0
 225 194 261 154 311 154 c 0
EndSplineSet
EndChar

StartChar: c
Encoding: 99 99 143
Width: 550
GlyphClass: 2
Flags: W
AnchorPoint: "Anchor-2" 302 -1 basechar 0
AnchorPoint: "Anchor-0" 300 500 basechar 0
LayerCount: 2
Fore
SplineSet
302 -12 m 0
 137 -12 20 97 20 250 c 0
 20 403 136 512 300 512 c 0
 405 512 501 456 539 352 c 1
 367 296 l 1
 356 323 324 342 290 342 c 0
 240 342 205 304 205 250 c 0
 205 196 241 158 292 158 c 0
 325 158 356 177 368 204 c 1
 540 149 l 1
 502 45 407 -12 302 -12 c 0
EndSplineSet
EndChar

StartChar: cacute
Encoding: 263 263 144
Width: 550
GlyphClass: 2
Flags: W
AnchorPoint: "Anchor-2" 302 -1 basechar 0
AnchorPoint: "Anchor-0" 300 500 basechar 0
LayerCount: 2
Fore
SplineSet
201 554 m 1
 311 700 l 1
 501 700 l 1
 371 554 l 1
 201 554 l 1
302 -12 m 0
 137 -12 20 97 20 250 c 0
 20 403 136 512 300 512 c 0
 405 512 501 456 539 352 c 1
 367 296 l 1
 356 323 324 342 290 342 c 0
 240 342 205 304 205 250 c 0
 205 196 241 158 292 158 c 0
 325 158 356 177 368 204 c 1
 540 149 l 1
 502 45 407 -12 302 -12 c 0
EndSplineSet
EndChar

StartChar: ccaron
Encoding: 269 269 145
Width: 550
GlyphClass: 2
Flags: W
AnchorPoint: "Anchor-2" 302 -1 basechar 0
AnchorPoint: "Anchor-0" 300 500 basechar 0
LayerCount: 2
Fore
SplineSet
209 554 m 1
 82 700 l 1
 232 700 l 1
 295 636 l 1
 357 700 l 1
 507 700 l 1
 380 554 l 1
 209 554 l 1
302 -12 m 0
 137 -12 20 97 20 250 c 0
 20 403 136 512 300 512 c 0
 405 512 501 456 539 352 c 1
 367 296 l 1
 356 323 324 342 290 342 c 0
 240 342 205 304 205 250 c 0
 205 196 241 158 292 158 c 0
 325 158 356 177 368 204 c 1
 540 149 l 1
 502 45 407 -12 302 -12 c 0
EndSplineSet
EndChar

StartChar: ccedilla
Encoding: 231 231 146
Width: 550
GlyphClass: 2
Flags: W
AnchorPoint: "Anchor-2" 302 -1 basechar 0
AnchorPoint: "Anchor-0" 300 500 basechar 0
LayerCount: 2
Fore
SplineSet
248 -211 m 0
 216 -211 180 -199 152 -180 c 1
 173 -104 l 1
 192 -113 209 -118 220 -118 c 0
 243 -118 257 -111 257 -99 c 0
 257 -81 237 -70 202 -70 c 1
 228 -4 l 1
 103 23 20 121 20 250 c 0
 20 403 136 512 300 512 c 0
 405 512 501 456 539 352 c 1
 367 296 l 1
 356 323 324 342 290 342 c 0
 240 342 205 304 205 250 c 0
 205 196 241 158 292 158 c 0
 325 158 356 177 368 204 c 1
 540 149 l 1
 504 51 419 -5 321 -11 c 1
 314 -27 l 1
 359 -42 386 -73 386 -109 c 0
 386 -173 335 -211 248 -211 c 0
EndSplineSet
EndChar

StartChar: ccircumflex
Encoding: 265 265 147
Width: 550
GlyphClass: 2
Flags: W
AnchorPoint: "Anchor-2" 302 -1 basechar 0
AnchorPoint: "Anchor-0" 300 500 basechar 0
LayerCount: 2
Fore
SplineSet
82 565 m 1
 209 712 l 1
 380 712 l 1
 507 565 l 1
 357 565 l 1
 295 622 l 1
 232 565 l 1
 82 565 l 1
302 -12 m 0
 137 -12 20 97 20 250 c 0
 20 403 136 512 300 512 c 0
 405 512 501 456 539 352 c 1
 367 296 l 1
 356 323 324 342 290 342 c 0
 240 342 205 304 205 250 c 0
 205 196 241 158 292 158 c 0
 325 158 356 177 368 204 c 1
 540 149 l 1
 502 45 407 -12 302 -12 c 0
EndSplineSet
EndChar

StartChar: cdotaccent
Encoding: 267 267 148
Width: 550
GlyphClass: 2
Flags: W
AnchorPoint: "Anchor-2" 302 -1 basechar 0
AnchorPoint: "Anchor-0" 300 500 basechar 0
LayerCount: 2
Fore
SplineSet
300 548 m 0
 246 548 200 594 200 648 c 0
 200 702 246 748 300 748 c 0
 354 748 400 702 400 648 c 0
 400 594 354 548 300 548 c 0
302 -12 m 0
 137 -12 20 97 20 250 c 0
 20 403 136 512 300 512 c 0
 405 512 501 456 539 352 c 1
 367 296 l 1
 356 323 324 342 290 342 c 0
 240 342 205 304 205 250 c 0
 205 196 241 158 292 158 c 0
 325 158 356 177 368 204 c 1
 540 149 l 1
 502 45 407 -12 302 -12 c 0
EndSplineSet
EndChar

StartChar: d
Encoding: 100 100 149
Width: 604
GlyphClass: 2
Flags: W
AnchorPoint: "Anchor-1" 560 700 basechar 0
AnchorPoint: "Anchor-0" 459 700 basechar 0
LayerCount: 2
Fore
SplineSet
246 -12 m 0
 104 -12 20 85 20 250 c 0
 20 415 104 512 246 512 c 0
 305 512 349 490 379 449 c 1
 379 700 l 1
 559 700 l 1
 559 0 l 1
 388 0 l 1
 383 56 l 1
 353 12 307 -12 246 -12 c 0
294 154 m 0
 339 154 373 187 379 234 c 1
 379 266 l 1
 373 313 339 345 293 345 c 0
 244 345 209 306 208 250 c 0
 209 194 245 154 294 154 c 0
EndSplineSet
EndChar

StartChar: dcaron
Encoding: 271 271 150
Width: 604
GlyphClass: 2
Flags: W
AnchorPoint: "Anchor-1" 560 700 basechar 0
AnchorPoint: "Anchor-0" 459 700 basechar 0
LayerCount: 2
Fore
SplineSet
246 -12 m 0
 104 -12 20 85 20 250 c 0
 20 415 104 512 246 512 c 0
 305 512 349 490 379 449 c 1
 379 700 l 1
 559 700 l 1
 559 0 l 1
 388 0 l 1
 383 56 l 1
 353 12 307 -12 246 -12 c 0
575 552 m 1
 598 700 l 1
 748 700 l 1
 705 552 l 1
 575 552 l 1
294 154 m 0
 339 154 373 187 379 234 c 1
 379 266 l 1
 373 313 339 345 293 345 c 0
 244 345 209 306 208 250 c 0
 209 194 245 154 294 154 c 0
EndSplineSet
EndChar

StartChar: dcroat
Encoding: 273 273 151
Width: 604
GlyphClass: 2
Flags: W
AnchorPoint: "Anchor-1" 560 700 basechar 0
AnchorPoint: "Anchor-0" 459 700 basechar 0
LayerCount: 2
Fore
SplineSet
246 -12 m 0
 104 -12 20 85 20 250 c 0
 20 415 104 512 246 512 c 0
 305 512 349 490 379 449 c 1
 379 545 l 1
 260 545 l 1
 260 650 l 1
 379 650 l 1
 379 700 l 1
 559 700 l 1
 559 650 l 1
 614 650 l 1
 614 545 l 1
 559 545 l 1
 559 0 l 1
 388 0 l 1
 383 56 l 1
 353 12 307 -12 246 -12 c 0
294 154 m 0
 339 154 373 187 379 234 c 1
 379 266 l 1
 373 313 339 345 293 345 c 0
 244 345 209 306 208 250 c 0
 209 194 245 154 294 154 c 0
EndSplineSet
EndChar

StartChar: eth
Encoding: 240 240 152
Width: 560
GlyphClass: 1
Flags: W
LayerCount: 2
Fore
SplineSet
275 -12 m 0
 125 -12 20 82 20 216 c 0
 20 349 109 444 250 444 c 0
 283 444 320 434 352 417 c 1
 345 453 331 482 305 507 c 1
 229 453 l 1
 187 513 l 1
 238 550 l 1
 208 563 171 575 125 586 c 1
 157 731 l 1
 252 718 324 689 377 649 c 1
 458 707 l 1
 502 647 l 1
 433 598 l 1
 518 500 533 364 529 236 c 1
 529 91 423 -12 275 -12 c 0
275 150 m 0
 316 150 343 178 343 216 c 0
 343 254 315 281 273 281 c 0
 234 281 206 254 206 216 c 0
 206 178 234 150 275 150 c 0
EndSplineSet
EndChar

StartChar: e
Encoding: 101 101 153
Width: 566
GlyphClass: 2
Flags: W
HStem: -12 137<236.315 362.013> 205 110<207 373> 388 124<234.177 345.459>
AnchorPoint: "Anchor-3" 485 50 basechar 0
AnchorPoint: "Anchor-2" 283 0 basechar 0
AnchorPoint: "Anchor-0" 295 500 basechar 0
LayerCount: 2
Fore
SplineSet
298 -12 m 0
 135 -12 20 94 20 250 c 0
 20 406 132 512 295 512 c 0
 448 512 556 412 556 205 c 1
 206 205 l 1
 213 155 243 125 293 125 c 0
 337 125 373 148 381 179 c 1
 539 130 l 1
 503 25 391 -12 298 -12 c 0
290 388 m 0
 254 388 217 370 207 315 c 1
 373 315 l 1
 363 370 324 388 290 388 c 0
EndSplineSet
EndChar

StartChar: eacute
Encoding: 233 233 154
Width: 566
GlyphClass: 2
Flags: W
AnchorPoint: "Anchor-3" 485 50 basechar 0
AnchorPoint: "Anchor-2" 283 0 basechar 0
AnchorPoint: "Anchor-0" 295 500 basechar 0
LayerCount: 2
Fore
SplineSet
196 554 m 1
 306 700 l 1
 496 700 l 1
 366 554 l 1
 196 554 l 1
298 -12 m 0
 135 -12 20 94 20 250 c 0
 20 406 132 512 295 512 c 0
 448 512 556 412 556 205 c 1
 206 205 l 1
 213 155 243 125 293 125 c 0
 337 125 373 148 381 179 c 1
 539 130 l 1
 503 25 391 -12 298 -12 c 0
290 388 m 0
 254 388 217 370 207 315 c 1
 373 315 l 1
 363 370 324 388 290 388 c 0
EndSplineSet
EndChar

StartChar: ecaron
Encoding: 283 283 155
Width: 566
GlyphClass: 2
Flags: W
AnchorPoint: "Anchor-3" 485 50 basechar 0
AnchorPoint: "Anchor-2" 283 0 basechar 0
AnchorPoint: "Anchor-0" 295 500 basechar 0
LayerCount: 2
Fore
SplineSet
204 554 m 1
 77 700 l 1
 227 700 l 1
 290 636 l 1
 352 700 l 1
 502 700 l 1
 375 554 l 1
 204 554 l 1
298 -12 m 0
 135 -12 20 94 20 250 c 0
 20 406 132 512 295 512 c 0
 448 512 556 412 556 205 c 1
 206 205 l 1
 213 155 243 125 293 125 c 0
 337 125 373 148 381 179 c 1
 539 130 l 1
 503 25 391 -12 298 -12 c 0
290 388 m 0
 254 388 217 370 207 315 c 1
 373 315 l 1
 363 370 324 388 290 388 c 0
EndSplineSet
EndChar

StartChar: ecircumflex
Encoding: 234 234 156
Width: 566
GlyphClass: 2
Flags: W
AnchorPoint: "Anchor-3" 485 50 basechar 0
AnchorPoint: "Anchor-2" 283 0 basechar 0
AnchorPoint: "Anchor-0" 295 500 basechar 0
LayerCount: 2
Fore
SplineSet
77 565 m 1
 204 712 l 1
 375 712 l 1
 502 565 l 1
 352 565 l 1
 290 622 l 1
 227 565 l 1
 77 565 l 1
298 -12 m 0
 135 -12 20 94 20 250 c 0
 20 406 132 512 295 512 c 0
 448 512 556 412 556 205 c 1
 206 205 l 1
 213 155 243 125 293 125 c 0
 337 125 373 148 381 179 c 1
 539 130 l 1
 503 25 391 -12 298 -12 c 0
290 388 m 0
 254 388 217 370 207 315 c 1
 373 315 l 1
 363 370 324 388 290 388 c 0
EndSplineSet
EndChar

StartChar: edieresis
Encoding: 235 235 157
Width: 566
GlyphClass: 2
Flags: W
AnchorPoint: "Anchor-3" 485 50 basechar 0
AnchorPoint: "Anchor-2" 283 0 basechar 0
AnchorPoint: "Anchor-0" 295 748 basechar 0
LayerCount: 2
Fore
SplineSet
430 569 m 0
 383 569 342 610 342 657 c 0
 342 704 383 745 430 745 c 0
 477 745 518 704 518 657 c 0
 518 610 477 569 430 569 c 0
160 569 m 0
 112 569 72 609 72 657 c 0
 72 705 112 745 160 745 c 0
 208 745 248 705 248 657 c 0
 248 609 208 569 160 569 c 0
298 -12 m 0
 135 -12 20 94 20 250 c 0
 20 406 132 512 295 512 c 0
 448 512 556 412 556 205 c 1
 206 205 l 1
 213 155 243 125 293 125 c 0
 337 125 373 148 381 179 c 1
 539 130 l 1
 503 25 391 -12 298 -12 c 0
290 388 m 0
 254 388 217 370 207 315 c 1
 373 315 l 1
 363 370 324 388 290 388 c 0
EndSplineSet
EndChar

StartChar: edotaccent
Encoding: 279 279 158
Width: 566
GlyphClass: 2
Flags: W
AnchorPoint: "Anchor-3" 485 50 basechar 0
AnchorPoint: "Anchor-2" 283 0 basechar 0
AnchorPoint: "Anchor-0" 295 500 basechar 0
LayerCount: 2
Fore
SplineSet
295 548 m 0
 241 548 195 594 195 648 c 0
 195 702 241 748 295 748 c 0
 349 748 395 702 395 648 c 0
 395 594 349 548 295 548 c 0
298 -12 m 0
 135 -12 20 94 20 250 c 0
 20 406 132 512 295 512 c 0
 448 512 556 412 556 205 c 1
 206 205 l 1
 213 155 243 125 293 125 c 0
 337 125 373 148 381 179 c 1
 539 130 l 1
 503 25 391 -12 298 -12 c 0
290 388 m 0
 254 388 217 370 207 315 c 1
 373 315 l 1
 363 370 324 388 290 388 c 0
EndSplineSet
EndChar

StartChar: egrave
Encoding: 232 232 159
Width: 566
GlyphClass: 2
Flags: W
AnchorPoint: "Anchor-3" 485 50 basechar 0
AnchorPoint: "Anchor-2" 283 0 basechar 0
AnchorPoint: "Anchor-0" 295 500 basechar 0
LayerCount: 2
Fore
SplineSet
237 554 m 1
 105 701 l 1
 295 701 l 1
 407 554 l 1
 237 554 l 1
298 -12 m 0
 135 -12 20 94 20 250 c 0
 20 406 132 512 295 512 c 0
 448 512 556 412 556 205 c 1
 206 205 l 1
 213 155 243 125 293 125 c 0
 337 125 373 148 381 179 c 1
 539 130 l 1
 503 25 391 -12 298 -12 c 0
290 388 m 0
 254 388 217 370 207 315 c 1
 373 315 l 1
 363 370 324 388 290 388 c 0
EndSplineSet
EndChar

StartChar: emacron
Encoding: 275 275 160
Width: 566
GlyphClass: 2
Flags: W
AnchorPoint: "Anchor-3" 485 50 basechar 0
AnchorPoint: "Anchor-2" 283 0 basechar 0
AnchorPoint: "Anchor-0" 295 500 basechar 0
LayerCount: 2
Fore
SplineSet
125 549 m 1
 125 700 l 1
 465 700 l 1
 465 549 l 1
 125 549 l 1
298 -12 m 0
 135 -12 20 94 20 250 c 0
 20 406 132 512 295 512 c 0
 448 512 556 412 556 205 c 1
 206 205 l 1
 213 155 243 125 293 125 c 0
 337 125 373 148 381 179 c 1
 539 130 l 1
 503 25 391 -12 298 -12 c 0
290 388 m 0
 254 388 217 370 207 315 c 1
 373 315 l 1
 363 370 324 388 290 388 c 0
EndSplineSet
EndChar

StartChar: eogonek
Encoding: 281 281 161
Width: 566
GlyphClass: 2
Flags: W
AnchorPoint: "Anchor-3" 485 50 basechar 0
AnchorPoint: "Anchor-2" 283 0 basechar 0
AnchorPoint: "Anchor-0" 295 500 basechar 0
LayerCount: 2
Fore
SplineSet
298 -12 m 0
 135 -12 20 94 20 250 c 0
 20 406 132 512 295 512 c 0
 448 512 556 412 556 205 c 1
 206 205 l 1
 213 155 243 125 293 125 c 0
 337 125 373 148 381 179 c 1
 539 130 l 1
 529 102 514 79 496 60 c 0
 434 -2 430 -31 430 -63 c 0
 430 -83 442 -96 464 -96 c 0
 481 -96 491 -93 502 -89 c 1
 554 -196 l 1
 534 -208 509 -212 476 -212 c 0
 381 -212 300 -176 300 -104 c 0
 300 -64 323 -34 360 -7 c 1
 339 -10 318 -12 298 -12 c 0
290 388 m 0
 254 388 217 370 207 315 c 1
 373 315 l 1
 363 370 324 388 290 388 c 0
EndSplineSet
EndChar

StartChar: f
Encoding: 102 102 162
Width: 415
GlyphClass: 1
Flags: W
LayerCount: 2
Fore
SplineSet
95 0 m 1
 95 360 l 1
 20 360 l 1
 20 500 l 1
 95 500 l 1
 95 543 l 2
 95 654 154 724 278 724 c 0
 329 724 387 704 420 683 c 1
 353 558 l 1
 341 568 326 572 313 572 c 0
 286 572 275 555 275 507 c 2
 275 500 l 1
 378 500 l 1
 378 360 l 1
 275 360 l 1
 275 0 l 1
 95 0 l 1
EndSplineSet
EndChar

StartChar: g
Encoding: 103 103 163
Width: 614
GlyphClass: 2
Flags: W
AnchorPoint: "Anchor-2" 305 -200 basechar 0
AnchorPoint: "Anchor-0" 305 500 basechar 0
LayerCount: 2
Fore
SplineSet
246 24 m 0
 104 24 20 110 20 254 c 0
 20 416 104 512 246 512 c 0
 309 512 358 482 389 428 c 1
 389 500 l 1
 569 500 l 1
 569 60 l 2
 569 -107 474 -214 292 -214 c 0
 161 -214 90 -192 42 -154 c 1
 113 -11 l 1
 145 -27 189 -56 283 -56 c 0
 345 -56 389 -21 389 52 c 2
 389 96 l 1
 358 50 309 24 246 24 c 0
301 173 m 0
 350 173 380 210 380 261 c 0
 380 314 349 350 300 350 c 0
 252 350 220 314 219 261 c 0
 220 210 253 173 301 173 c 0
EndSplineSet
EndChar

StartChar: gbreve
Encoding: 287 287 164
Width: 614
GlyphClass: 2
Flags: W
AnchorPoint: "Anchor-2" 305 -200 basechar 0
AnchorPoint: "Anchor-0" 305 500 basechar 0
LayerCount: 2
Fore
SplineSet
306 542 m 0
 187 542 103 607 103 700 c 1
 267 700 l 1
 267 677 283 661 306 661 c 0
 328 661 344 677 344 700 c 1
 508 700 l 1
 508 607 424 542 306 542 c 0
246 24 m 0
 104 24 20 110 20 254 c 0
 20 416 104 512 246 512 c 0
 309 512 358 482 389 428 c 1
 389 500 l 1
 569 500 l 1
 569 60 l 2
 569 -107 474 -214 292 -214 c 0
 161 -214 90 -192 42 -154 c 1
 113 -11 l 1
 145 -27 189 -56 283 -56 c 0
 345 -56 389 -21 389 52 c 2
 389 96 l 1
 358 50 309 24 246 24 c 0
301 173 m 0
 350 173 380 210 380 261 c 0
 380 314 349 350 300 350 c 0
 252 350 220 314 219 261 c 0
 220 210 253 173 301 173 c 0
EndSplineSet
EndChar

StartChar: gcircumflex
Encoding: 285 285 165
Width: 614
GlyphClass: 2
Flags: W
AnchorPoint: "Anchor-2" 305 -200 basechar 0
AnchorPoint: "Anchor-0" 305 500 basechar 0
LayerCount: 2
Fore
SplineSet
87 565 m 1
 214 712 l 1
 385 712 l 1
 512 565 l 1
 362 565 l 1
 300 622 l 1
 237 565 l 1
 87 565 l 1
246 24 m 0
 104 24 20 110 20 254 c 0
 20 416 104 512 246 512 c 0
 309 512 358 482 389 428 c 1
 389 500 l 1
 569 500 l 1
 569 60 l 2
 569 -107 474 -214 292 -214 c 0
 161 -214 90 -192 42 -154 c 1
 113 -11 l 1
 145 -27 189 -56 283 -56 c 0
 345 -56 389 -21 389 52 c 2
 389 96 l 1
 358 50 309 24 246 24 c 0
301 173 m 0
 350 173 380 210 380 261 c 0
 380 314 349 350 300 350 c 0
 252 350 220 314 219 261 c 0
 220 210 253 173 301 173 c 0
EndSplineSet
EndChar

StartChar: uni0123
Encoding: 291 291 166
Width: 614
GlyphClass: 2
Flags: W
AnchorPoint: "Anchor-2" 305 -200 basechar 0
AnchorPoint: "Anchor-0" 305 500 basechar 0
LayerCount: 2
Fore
SplineSet
448 713 m 1
 382 564 l 1
 202 564 l 1
 318 713 l 1
 448 713 l 1
246 24 m 0
 104 24 20 110 20 254 c 0
 20 416 104 512 246 512 c 0
 309 512 358 482 389 428 c 1
 389 500 l 1
 569 500 l 1
 569 60 l 2
 569 -107 474 -214 292 -214 c 0
 161 -214 90 -192 42 -154 c 1
 113 -11 l 1
 145 -27 189 -56 283 -56 c 0
 345 -56 389 -21 389 52 c 2
 389 96 l 1
 358 50 309 24 246 24 c 0
301 173 m 0
 350 173 380 210 380 261 c 0
 380 314 349 350 300 350 c 0
 252 350 220 314 219 261 c 0
 220 210 253 173 301 173 c 0
EndSplineSet
EndChar

StartChar: gdotaccent
Encoding: 289 289 167
Width: 614
GlyphClass: 2
Flags: W
AnchorPoint: "Anchor-2" 305 -200 basechar 0
AnchorPoint: "Anchor-0" 305 500 basechar 0
LayerCount: 2
Fore
SplineSet
305 548 m 0
 251 548 205 594 205 648 c 0
 205 702 251 748 305 748 c 0
 359 748 405 702 405 648 c 0
 405 594 359 548 305 548 c 0
246 24 m 0
 104 24 20 110 20 254 c 0
 20 416 104 512 246 512 c 0
 309 512 358 482 389 428 c 1
 389 500 l 1
 569 500 l 1
 569 60 l 2
 569 -107 474 -214 292 -214 c 0
 161 -214 90 -192 42 -154 c 1
 113 -11 l 1
 145 -27 189 -56 283 -56 c 0
 345 -56 389 -21 389 52 c 2
 389 96 l 1
 358 50 309 24 246 24 c 0
301 173 m 0
 350 173 380 210 380 261 c 0
 380 314 349 350 300 350 c 0
 252 350 220 314 219 261 c 0
 220 210 253 173 301 173 c 0
EndSplineSet
EndChar

StartChar: h
Encoding: 104 104 168
Width: 580
GlyphClass: 2
Flags: W
AnchorPoint: "Anchor-2" 290 0 basechar 0
AnchorPoint: "Anchor-0" 135 700 basechar 0
LayerCount: 2
Fore
SplineSet
47 0 m 1
 47 700 l 1
 227 700 l 1
 227 444 l 1
 260 489 306 512 360 512 c 0
 482 512 540 440 540 286 c 2
 540 0 l 1
 360 0 l 1
 360 256 l 2
 360 313 341 341 303 343 c 0
 252 345 227 320 227 266 c 2
 227 0 l 1
 47 0 l 1
EndSplineSet
EndChar

StartChar: hbar
Encoding: 295 295 169
Width: 580
GlyphClass: 2
Flags: W
AnchorPoint: "Anchor-2" 290 0 basechar 0
AnchorPoint: "Anchor-0" 135 700 basechar 0
LayerCount: 2
Fore
SplineSet
47 0 m 1
 47 545 l 1
 0 545 l 1
 0 650 l 1
 47 650 l 1
 47 700 l 1
 227 700 l 1
 227 650 l 1
 354 650 l 1
 354 545 l 1
 227 545 l 1
 227 444 l 1
 260 489 306 512 360 512 c 0
 482 512 540 440 540 286 c 2
 540 0 l 1
 360 0 l 1
 360 256 l 2
 360 313 341 341 303 343 c 0
 252 345 227 320 227 266 c 2
 227 0 l 1
 47 0 l 1
EndSplineSet
EndChar

StartChar: hcircumflex
Encoding: 293 293 170
Width: 580
GlyphClass: 2
Flags: W
AnchorPoint: "Anchor-2" 290 0 basechar 0
AnchorPoint: "Anchor-0" 135 700 basechar 0
LayerCount: 2
Fore
SplineSet
-83 765 m 1
 44 912 l 1
 215 912 l 1
 342 765 l 1
 192 765 l 1
 130 822 l 1
 67 765 l 1
 -83 765 l 1
47 0 m 1
 47 700 l 1
 227 700 l 1
 227 444 l 1
 260 489 306 512 360 512 c 0
 482 512 540 440 540 286 c 2
 540 0 l 1
 360 0 l 1
 360 256 l 2
 360 313 341 341 303 343 c 0
 252 345 227 320 227 266 c 2
 227 0 l 1
 47 0 l 1
EndSplineSet
EndChar

StartChar: i
Encoding: 105 105 171
Width: 290
GlyphClass: 2
Flags: W
AnchorPoint: "Anchor-3" 245 0 basechar 0
AnchorPoint: "Anchor-2" 145 0 basechar 0
AnchorPoint: "Anchor-0" 145 500 basechar 0
LayerCount: 2
Fore
SplineSet
145 548 m 0
 91 548 45 594 45 648 c 0
 45 702 91 748 145 748 c 0
 199 748 245 702 245 648 c 0
 245 594 199 548 145 548 c 0
55 0 m 1
 55 500 l 1
 235 500 l 1
 235 0 l 1
 55 0 l 1
EndSplineSet
Substitution2: "'locl' Localized Forms in Latin lookup 10 subtable" i.loclTRK
Substitution2: "'locl' Localized Forms in Latin lookup 9 subtable" i.loclTRK
Substitution2: "'locl' Localized Forms in Latin lookup 8 subtable" i.loclTRK
Substitution2: "'locl' Localized Forms in Latin lookup 7 subtable" i.loclTRK
Substitution2: "'locl' Localized Forms in Latin lookup 6 subtable" i.loclTRK
Substitution2: "Single Substitution lookup 3 subtable" dotlessi
Substitution2: "'aalt' Access All Alternates in Latin lookup 0 subtable" i.loclTRK
EndChar

StartChar: dotlessi
Encoding: 305 305 172
Width: 290
GlyphClass: 2
Flags: W
AnchorPoint: "Anchor-3" 245 0 basechar 0
AnchorPoint: "Anchor-2" 145 0 basechar 0
AnchorPoint: "Anchor-0" 145 500 basechar 0
LayerCount: 2
Fore
SplineSet
55 0 m 1
 55 500 l 1
 235 500 l 1
 235 0 l 1
 55 0 l 1
EndSplineSet
EndChar

StartChar: iacute
Encoding: 237 237 173
Width: 290
GlyphClass: 2
Flags: W
AnchorPoint: "Anchor-3" 245 0 basechar 0
AnchorPoint: "Anchor-2" 145 0 basechar 0
AnchorPoint: "Anchor-0" 145 500 basechar 0
LayerCount: 2
Fore
SplineSet
46 554 m 1
 156 700 l 1
 346 700 l 1
 216 554 l 1
 46 554 l 1
55 0 m 1
 55 500 l 1
 235 500 l 1
 235 0 l 1
 55 0 l 1
EndSplineSet
EndChar

StartChar: icircumflex
Encoding: 238 238 174
Width: 290
GlyphClass: 2
Flags: W
AnchorPoint: "Anchor-3" 245 0 basechar 0
AnchorPoint: "Anchor-2" 145 0 basechar 0
AnchorPoint: "Anchor-0" 145 500 basechar 0
LayerCount: 2
Fore
SplineSet
-73 565 m 1
 54 712 l 1
 225 712 l 1
 352 565 l 1
 202 565 l 1
 140 622 l 1
 77 565 l 1
 -73 565 l 1
55 0 m 1
 55 500 l 1
 235 500 l 1
 235 0 l 1
 55 0 l 1
EndSplineSet
EndChar

StartChar: idieresis
Encoding: 239 239 175
Width: 290
GlyphClass: 2
Flags: W
AnchorPoint: "Anchor-3" 245 0 basechar 0
AnchorPoint: "Anchor-2" 145 0 basechar 0
AnchorPoint: "Anchor-0" 145 748 basechar 0
LayerCount: 2
Fore
SplineSet
245 569 m 0
 198 569 157 610 157 657 c 0
 157 704 198 745 245 745 c 0
 292 745 333 704 333 657 c 0
 333 610 292 569 245 569 c 0
45 569 m 0
 -3 569 -43 609 -43 657 c 0
 -43 705 -3 745 45 745 c 0
 93 745 133 705 133 657 c 0
 133 609 93 569 45 569 c 0
55 0 m 1
 55 500 l 1
 235 500 l 1
 235 0 l 1
 55 0 l 1
EndSplineSet
EndChar

StartChar: i.loclTRK
Encoding: 65547 -1 176
Width: 290
GlyphClass: 2
Flags: W
AnchorPoint: "Anchor-3" 245 0 basechar 0
AnchorPoint: "Anchor-2" 145 0 basechar 0
AnchorPoint: "Anchor-0" 145 500 basechar 0
LayerCount: 2
Fore
SplineSet
145 548 m 0
 91 548 45 594 45 648 c 0
 45 702 91 748 145 748 c 0
 199 748 245 702 245 648 c 0
 245 594 199 548 145 548 c 0
55 0 m 1
 55 500 l 1
 235 500 l 1
 235 0 l 1
 55 0 l 1
EndSplineSet
EndChar

StartChar: igrave
Encoding: 236 236 177
Width: 290
GlyphClass: 2
Flags: W
AnchorPoint: "Anchor-3" 245 0 basechar 0
AnchorPoint: "Anchor-2" 145 0 basechar 0
AnchorPoint: "Anchor-0" 145 500 basechar 0
LayerCount: 2
Fore
SplineSet
87 554 m 1
 -45 701 l 1
 145 701 l 1
 257 554 l 1
 87 554 l 1
55 0 m 1
 55 500 l 1
 235 500 l 1
 235 0 l 1
 55 0 l 1
EndSplineSet
EndChar

StartChar: imacron
Encoding: 299 299 178
Width: 290
GlyphClass: 2
Flags: W
AnchorPoint: "Anchor-3" 245 0 basechar 0
AnchorPoint: "Anchor-2" 145 0 basechar 0
AnchorPoint: "Anchor-0" 145 500 basechar 0
LayerCount: 2
Fore
SplineSet
-5 549 m 1
 -5 700 l 1
 295 700 l 1
 295 549 l 1
 -5 549 l 1
55 0 m 1
 55 500 l 1
 235 500 l 1
 235 0 l 1
 55 0 l 1
EndSplineSet
EndChar

StartChar: iogonek
Encoding: 303 303 179
Width: 290
GlyphClass: 2
Flags: W
AnchorPoint: "Anchor-3" 245 0 basechar 0
AnchorPoint: "Anchor-2" 145 0 basechar 0
AnchorPoint: "Anchor-0" 145 500 basechar 0
LayerCount: 2
Fore
SplineSet
145 548 m 0
 91 548 45 594 45 648 c 0
 45 702 91 748 145 748 c 0
 199 748 245 702 245 648 c 0
 245 594 199 548 145 548 c 0
55 0 m 1
 55 500 l 1
 235 500 l 1
 235 0 l 1
 199 -23 179 -52 179 -75 c 0
 179 -86 186 -95 197 -95 c 0
 208 -95 215 -92 222 -88 c 1
 274 -196 l 1
 254 -208 229 -212 196 -212 c 0
 112 -212 40 -170 40 -88 c 0
 40 -49 66 -16 97 0 c 1
 55 0 l 1
EndSplineSet
MultipleSubs2: "Multiple Substitution lookup 5 subtable" dotlessi uni0328
MultipleSubs2: "Multiple Substitution lookup 4 subtable" dotlessi uni0328
EndChar

StartChar: ij
Encoding: 307 307 180
Width: 601
GlyphClass: 2
Flags: W
AnchorPoint: "Anchor-3" 245 0 basechar 0
AnchorPoint: "Anchor-2" 145 0 basechar 0
LayerCount: 2
Fore
SplineSet
145 548 m 0
 91 548 45 594 45 648 c 0
 45 702 91 748 145 748 c 0
 199 748 245 702 245 648 c 0
 245 594 199 548 145 548 c 0
453 542 m 0
 397 542 350 589 350 645 c 0
 350 701 397 748 453 748 c 0
 509 748 556 701 556 645 c 0
 556 589 509 542 453 542 c 0
55 0 m 1
 55 500 l 1
 235 500 l 1
 235 0 l 1
 55 0 l 1
342 -215 m 0
 295 -215 250 -202 220 -180 c 1
 294 -31 l 1
 306 -41 321 -47 334 -47 c 0
 352 -47 363 -32 363 -7 c 2
 363 500 l 1
 543 500 l 1
 543 -21 l 2
 543 -143 468 -215 342 -215 c 0
EndSplineSet
EndChar

StartChar: j
Encoding: 106 106 181
Width: 311
GlyphClass: 2
Flags: W
AnchorPoint: "Anchor-0" 163 500 basechar 0
LayerCount: 2
Fore
SplineSet
163 542 m 0
 107 542 60 589 60 645 c 0
 60 701 107 748 163 748 c 0
 219 748 266 701 266 645 c 0
 266 589 219 542 163 542 c 0
52 -215 m 0
 5 -215 -40 -202 -70 -180 c 1
 4 -31 l 1
 16 -41 31 -47 44 -47 c 0
 62 -47 73 -32 73 -7 c 2
 73 500 l 1
 253 500 l 1
 253 -21 l 2
 253 -143 178 -215 52 -215 c 0
EndSplineSet
Substitution2: "Single Substitution lookup 17 subtable" uni006A0301
Substitution2: "Single Substitution lookup 3 subtable" uni0237
Substitution2: "'aalt' Access All Alternates in Latin lookup 0 subtable" uni006A0301
EndChar

StartChar: uni0237
Encoding: 567 567 182
Width: 298
GlyphClass: 2
Flags: W
AnchorPoint: "Anchor-0" 163 500 basechar 0
LayerCount: 2
Fore
SplineSet
52 -215 m 0
 5 -215 -40 -202 -70 -180 c 1
 4 -31 l 1
 16 -41 31 -47 44 -47 c 0
 62 -47 73 -32 73 -7 c 2
 73 500 l 1
 253 500 l 1
 253 -21 l 2
 253 -143 178 -215 52 -215 c 0
EndSplineSet
EndChar

StartChar: uni006A0301
Encoding: 65548 -1 183
Width: 298
GlyphClass: 2
Flags: W
AnchorPoint: "Anchor-0" 163 500 basechar 0
LayerCount: 2
Fore
SplineSet
64 554 m 1
 174 700 l 1
 364 700 l 1
 234 554 l 1
 64 554 l 1
52 -215 m 0
 5 -215 -40 -202 -70 -180 c 1
 4 -31 l 1
 16 -41 31 -47 44 -47 c 0
 62 -47 73 -32 73 -7 c 2
 73 500 l 1
 253 500 l 1
 253 -21 l 2
 253 -143 178 -215 52 -215 c 0
EndSplineSet
EndChar

StartChar: jcircumflex
Encoding: 309 309 184
Width: 298
GlyphClass: 2
Flags: W
AnchorPoint: "Anchor-0" 163 500 basechar 0
LayerCount: 2
Fore
SplineSet
-55 565 m 1
 72 712 l 1
 243 712 l 1
 370 565 l 1
 220 565 l 1
 158 622 l 1
 95 565 l 1
 -55 565 l 1
52 -215 m 0
 5 -215 -40 -202 -70 -180 c 1
 4 -31 l 1
 16 -41 31 -47 44 -47 c 0
 62 -47 73 -32 73 -7 c 2
 73 500 l 1
 253 500 l 1
 253 -21 l 2
 253 -143 178 -215 52 -215 c 0
EndSplineSet
EndChar

StartChar: k
Encoding: 107 107 185
Width: 586
GlyphClass: 2
Flags: W
HStem: 0 107<45 225> 480 20G<338.416 566> 680 20G<45 225>
VStem: 45 180<0 107 351 700>
AnchorPoint: "Anchor-2" 287 0 basechar 0
AnchorPoint: "Anchor-0" 293 800 basechar 0
LayerCount: 2
Fore
SplineSet
45 0 m 1
 45 107 l 1
 225 107 l 1
 225 351 l 1
 45 351 l 1
 45 700 l 1
 225 700 l 1
 225 351 l 1
 356 500 l 1
 566 500 l 1
 375 279 l 1
 576 0 l 1
 369 0 l 1
 262 149 l 1
 225 107 l 1
 225 0 l 1
 45 0 l 1
EndSplineSet
EndChar

StartChar: uni0137
Encoding: 311 311 186
Width: 586
GlyphClass: 2
Flags: W
AnchorPoint: "Anchor-2" 287 0 basechar 0
AnchorPoint: "Anchor-0" 293 800 basechar 0
LayerCount: 2
Fore
SplineSet
45 0 m 1
 45 700 l 1
 225 700 l 1
 225 351 l 1
 356 500 l 1
 566 500 l 1
 375 279 l 1
 576 0 l 1
 369 0 l 1
 262 149 l 1
 225 107 l 1
 225 0 l 1
 45 0 l 1
168 -200 m 1
 214 -40 l 1
 382 -40 l 1
 298 -200 l 1
 168 -200 l 1
EndSplineSet
EndChar

StartChar: l
Encoding: 108 108 187
Width: 270
GlyphClass: 2
Flags: W
AnchorPoint: "Anchor-2" 135 0 basechar 0
AnchorPoint: "Anchor-1" 227 700 basechar 0
AnchorPoint: "Anchor-0" 135 700 basechar 0
LayerCount: 2
Fore
SplineSet
45 0 m 1
 45 700 l 1
 225 700 l 1
 225 0 l 1
 45 0 l 1
EndSplineSet
Substitution2: "'ss02' Style Set 2 in Latin lookup 33 subtable" l.ss02
EndChar

StartChar: lacute
Encoding: 314 314 188
Width: 270
GlyphClass: 2
Flags: W
AnchorPoint: "Anchor-2" 135 0 basechar 0
AnchorPoint: "Anchor-1" 227 700 basechar 0
AnchorPoint: "Anchor-0" 135 700 basechar 0
LayerCount: 2
Fore
SplineSet
36 754 m 1
 146 900 l 1
 336 900 l 1
 206 754 l 1
 36 754 l 1
45 0 m 1
 45 700 l 1
 225 700 l 1
 225 0 l 1
 45 0 l 1
EndSplineSet
Substitution2: "'ss02' Style Set 2 in Latin lookup 33 subtable" lacute.ss02
EndChar

StartChar: lcaron
Encoding: 318 318 189
Width: 270
GlyphClass: 2
Flags: W
AnchorPoint: "Anchor-2" 135 0 basechar 0
AnchorPoint: "Anchor-1" 227 700 basechar 0
AnchorPoint: "Anchor-0" 135 700 basechar 0
LayerCount: 2
Fore
SplineSet
45 0 m 1
 45 700 l 1
 225 700 l 1
 225 0 l 1
 45 0 l 1
242 552 m 1
 265 700 l 1
 415 700 l 1
 372 552 l 1
 242 552 l 1
EndSplineSet
Substitution2: "'ss02' Style Set 2 in Latin lookup 33 subtable" lcaron.ss02
EndChar

StartChar: uni013C
Encoding: 316 316 190
Width: 270
GlyphClass: 2
Flags: W
AnchorPoint: "Anchor-2" 135 0 basechar 0
AnchorPoint: "Anchor-1" 227 700 basechar 0
AnchorPoint: "Anchor-0" 135 700 basechar 0
LayerCount: 2
Fore
SplineSet
45 0 m 1
 45 700 l 1
 225 700 l 1
 225 0 l 1
 45 0 l 1
16 -200 m 1
 62 -40 l 1
 230 -40 l 1
 146 -200 l 1
 16 -200 l 1
EndSplineSet
Substitution2: "'ss02' Style Set 2 in Latin lookup 33 subtable" uni013C.ss02
EndChar

StartChar: lslash
Encoding: 322 322 191
Width: 290
GlyphClass: 2
Flags: W
AnchorPoint: "Anchor-2" 145 0 basechar 0
AnchorPoint: "Anchor-1" 237 700 basechar 0
AnchorPoint: "Anchor-0" 145 700 basechar 0
LayerCount: 2
Fore
SplineSet
55 0 m 1
 55 233 l 1
 0 204 l 1
 0 342 l 1
 55 371 l 1
 55 700 l 1
 235 700 l 1
 235 467 l 1
 290 496 l 1
 290 358 l 1
 235 329 l 1
 235 0 l 1
 55 0 l 1
EndSplineSet
Substitution2: "'ss02' Style Set 2 in Latin lookup 33 subtable" lslash.ss02
EndChar

StartChar: m
Encoding: 109 109 192
Width: 891
GlyphClass: 1
Flags: W
HStem: 0 21G<45 225 358 538 671 851> 343 169<276.723 342.845 590.01 655.845> 480 20G<45 217.295>
VStem: 45 180<0 327.809> 358 180<0 327.488> 671 180<0 327.159>
CounterMasks: 1 1c
LayerCount: 2
Fore
SplineSet
45 0 m 1xdc
 45 500 l 1
 215 500 l 5xbc
 222 439 l 1
 254 487 302 512 358 512 c 0
 440 512 493 480 519 412 c 1
 551 477 606 512 671 512 c 0
 793 512 851 440 851 286 c 2
 851 0 l 1
 671 0 l 1
 671 256 l 2
 671 313 652 341 614 343 c 0
 563 345 538 320 538 266 c 2
 538 0 l 1
 358 0 l 1
 358 256 l 2
 358 313 339 341 301 343 c 0
 250 345 225 320 225 266 c 2
 225 0 l 1
 45 0 l 1xdc
EndSplineSet
EndChar

StartChar: n
Encoding: 110 110 193
Width: 578
GlyphClass: 2
Flags: W
AnchorPoint: "Anchor-2" 284 0 basechar 0
AnchorPoint: "Anchor-0" 284 500 basechar 0
LayerCount: 2
Fore
SplineSet
45 0 m 1
 45 500 l 1
 215 500 l 1
 222 439 l 1
 254 487 302 512 358 512 c 0
 480 512 538 440 538 286 c 2
 538 0 l 1
 358 0 l 1
 358 256 l 2
 358 313 339 341 301 343 c 0
 250 345 225 320 225 266 c 2
 225 0 l 1
 45 0 l 1
EndSplineSet
EndChar

StartChar: nacute
Encoding: 324 324 194
Width: 578
GlyphClass: 2
Flags: W
AnchorPoint: "Anchor-2" 284 0 basechar 0
AnchorPoint: "Anchor-0" 284 500 basechar 0
LayerCount: 2
Fore
SplineSet
185 554 m 1
 295 700 l 1
 485 700 l 1
 355 554 l 1
 185 554 l 1
45 0 m 1
 45 500 l 1
 215 500 l 1
 222 439 l 1
 254 487 302 512 358 512 c 0
 480 512 538 440 538 286 c 2
 538 0 l 1
 358 0 l 1
 358 256 l 2
 358 313 339 341 301 343 c 0
 250 345 225 320 225 266 c 2
 225 0 l 1
 45 0 l 1
EndSplineSet
EndChar

StartChar: ncaron
Encoding: 328 328 195
Width: 578
GlyphClass: 2
Flags: W
AnchorPoint: "Anchor-2" 284 0 basechar 0
AnchorPoint: "Anchor-0" 284 500 basechar 0
LayerCount: 2
Fore
SplineSet
193 554 m 1
 66 700 l 1
 216 700 l 1
 279 636 l 1
 341 700 l 1
 491 700 l 1
 364 554 l 1
 193 554 l 1
45 0 m 1
 45 500 l 1
 215 500 l 1
 222 439 l 1
 254 487 302 512 358 512 c 0
 480 512 538 440 538 286 c 2
 538 0 l 1
 358 0 l 1
 358 256 l 2
 358 313 339 341 301 343 c 0
 250 345 225 320 225 266 c 2
 225 0 l 1
 45 0 l 1
EndSplineSet
EndChar

StartChar: uni0146
Encoding: 326 326 196
Width: 578
GlyphClass: 2
Flags: W
AnchorPoint: "Anchor-2" 284 0 basechar 0
AnchorPoint: "Anchor-0" 284 500 basechar 0
LayerCount: 2
Fore
SplineSet
45 0 m 1
 45 500 l 1
 215 500 l 1
 222 439 l 1
 254 487 302 512 358 512 c 0
 480 512 538 440 538 286 c 2
 538 0 l 1
 358 0 l 1
 358 256 l 2
 358 313 339 341 301 343 c 0
 250 345 225 320 225 266 c 2
 225 0 l 1
 45 0 l 1
165 -200 m 1
 211 -40 l 1
 379 -40 l 1
 295 -200 l 1
 165 -200 l 1
EndSplineSet
EndChar

StartChar: ntilde
Encoding: 241 241 197
Width: 578
GlyphClass: 2
Flags: W
AnchorPoint: "Anchor-2" 284 0 basechar 0
AnchorPoint: "Anchor-0" 284 700 basechar 0
LayerCount: 2
Fore
SplineSet
365 534 m 0
 264 534 272 606 227 606 c 0
 217 606 204 602 196 567 c 1
 85 567 l 1
 97 673 140 712 221 712 c 0
 330 712 325 640 364 640 c 0
 383 640 387 658 390 679 c 1
 501 679 l 1
 489 586 450 534 365 534 c 0
45 0 m 1
 45 500 l 1
 215 500 l 1
 222 439 l 1
 254 487 302 512 358 512 c 0
 480 512 538 440 538 286 c 2
 538 0 l 1
 358 0 l 1
 358 256 l 2
 358 313 339 341 301 343 c 0
 250 345 225 320 225 266 c 2
 225 0 l 1
 45 0 l 1
EndSplineSet
EndChar

StartChar: eng
Encoding: 331 331 198
Width: 578
GlyphClass: 2
Flags: W
AnchorPoint: "Anchor-2" 284 0 basechar 0
AnchorPoint: "Anchor-0" 448 500 basechar 0
LayerCount: 2
Fore
SplineSet
45 0 m 1
 45 500 l 1
 215 500 l 1
 222 439 l 1
 254 487 302 512 358 512 c 0
 480 512 538 440 538 286 c 2
 538 -21 l 2
 538 -143 463 -215 337 -215 c 0
 290 -215 245 -202 215 -180 c 1
 289 -31 l 1
 301 -41 316 -47 329 -47 c 0
 347 -47 358 -32 358 -7 c 2
 358 256 l 2
 358 313 339 341 301 343 c 0
 250 345 225 320 225 266 c 2
 225 0 l 1
 45 0 l 1
EndSplineSet
EndChar

StartChar: o
Encoding: 111 111 199
Width: 583
GlyphClass: 2
Flags: W
AnchorPoint: "Anchor-3" 526 10 basechar 0
AnchorPoint: "Anchor-2" 286 0 basechar 0
AnchorPoint: "Anchor-0" 286 500 basechar 0
LayerCount: 2
Fore
SplineSet
293 -12 m 0
 133 -12 20 96 20 250 c 0
 20 404 132 512 291 512 c 0
 451 512 563 404 563 250 c 0
 563 96 451 -12 293 -12 c 0
293 154 m 0
 343 154 378 194 378 250 c 0
 378 306 342 346 291 346 c 0
 241 346 205 306 205 250 c 0
 205 194 241 154 293 154 c 0
EndSplineSet
Substitution2: "Single Substitution lookup 28 subtable" ordmasculine
Substitution2: "'aalt' Access All Alternates in Latin lookup 0 subtable" ordmasculine
EndChar

StartChar: oacute
Encoding: 243 243 200
Width: 583
GlyphClass: 2
Flags: W
AnchorPoint: "Anchor-3" 526 10 basechar 0
AnchorPoint: "Anchor-2" 286 0 basechar 0
AnchorPoint: "Anchor-0" 286 500 basechar 0
LayerCount: 2
Fore
SplineSet
187 554 m 1
 297 700 l 1
 487 700 l 1
 357 554 l 1
 187 554 l 1
293 -12 m 0
 133 -12 20 96 20 250 c 0
 20 404 132 512 291 512 c 0
 451 512 563 404 563 250 c 0
 563 96 451 -12 293 -12 c 0
293 154 m 0
 343 154 378 194 378 250 c 0
 378 306 342 346 291 346 c 0
 241 346 205 306 205 250 c 0
 205 194 241 154 293 154 c 0
EndSplineSet
EndChar

StartChar: ocircumflex
Encoding: 244 244 201
Width: 583
GlyphClass: 2
Flags: W
AnchorPoint: "Anchor-3" 526 10 basechar 0
AnchorPoint: "Anchor-2" 286 0 basechar 0
AnchorPoint: "Anchor-0" 286 500 basechar 0
LayerCount: 2
Fore
SplineSet
68 565 m 1
 195 712 l 1
 366 712 l 1
 493 565 l 1
 343 565 l 1
 281 622 l 1
 218 565 l 1
 68 565 l 1
293 -12 m 0
 133 -12 20 96 20 250 c 0
 20 404 132 512 291 512 c 0
 451 512 563 404 563 250 c 0
 563 96 451 -12 293 -12 c 0
293 154 m 0
 343 154 378 194 378 250 c 0
 378 306 342 346 291 346 c 0
 241 346 205 306 205 250 c 0
 205 194 241 154 293 154 c 0
EndSplineSet
EndChar

StartChar: odieresis
Encoding: 246 246 202
Width: 583
GlyphClass: 2
Flags: W
AnchorPoint: "Anchor-3" 526 10 basechar 0
AnchorPoint: "Anchor-2" 286 0 basechar 0
AnchorPoint: "Anchor-0" 286 748 basechar 0
LayerCount: 2
Fore
SplineSet
421 569 m 0
 374 569 333 610 333 657 c 0
 333 704 374 745 421 745 c 0
 468 745 509 704 509 657 c 0
 509 610 468 569 421 569 c 0
151 569 m 0
 103 569 63 609 63 657 c 0
 63 705 103 745 151 745 c 0
 199 745 239 705 239 657 c 0
 239 609 199 569 151 569 c 0
293 -12 m 0
 133 -12 20 96 20 250 c 0
 20 404 132 512 291 512 c 0
 451 512 563 404 563 250 c 0
 563 96 451 -12 293 -12 c 0
293 154 m 0
 343 154 378 194 378 250 c 0
 378 306 342 346 291 346 c 0
 241 346 205 306 205 250 c 0
 205 194 241 154 293 154 c 0
EndSplineSet
EndChar

StartChar: ograve
Encoding: 242 242 203
Width: 583
GlyphClass: 2
Flags: W
AnchorPoint: "Anchor-3" 526 10 basechar 0
AnchorPoint: "Anchor-2" 286 0 basechar 0
AnchorPoint: "Anchor-0" 286 500 basechar 0
LayerCount: 2
Fore
SplineSet
228 554 m 1
 96 701 l 1
 286 701 l 1
 398 554 l 1
 228 554 l 1
293 -12 m 0
 133 -12 20 96 20 250 c 0
 20 404 132 512 291 512 c 0
 451 512 563 404 563 250 c 0
 563 96 451 -12 293 -12 c 0
293 154 m 0
 343 154 378 194 378 250 c 0
 378 306 342 346 291 346 c 0
 241 346 205 306 205 250 c 0
 205 194 241 154 293 154 c 0
EndSplineSet
EndChar

StartChar: ohungarumlaut
Encoding: 337 337 204
Width: 583
GlyphClass: 2
Flags: W
AnchorPoint: "Anchor-3" 526 10 basechar 0
AnchorPoint: "Anchor-2" 286 0 basechar 0
AnchorPoint: "Anchor-0" 286 500 basechar 0
LayerCount: 2
Fore
SplineSet
330 554 m 1
 430 700 l 1
 600 700 l 1
 478 554 l 1
 330 554 l 1
100 554 m 1
 196 700 l 1
 366 700 l 1
 246 554 l 1
 100 554 l 1
293 -12 m 0
 133 -12 20 96 20 250 c 0
 20 404 132 512 291 512 c 0
 451 512 563 404 563 250 c 0
 563 96 451 -12 293 -12 c 0
293 154 m 0
 343 154 378 194 378 250 c 0
 378 306 342 346 291 346 c 0
 241 346 205 306 205 250 c 0
 205 194 241 154 293 154 c 0
EndSplineSet
EndChar

StartChar: omacron
Encoding: 333 333 205
Width: 583
GlyphClass: 2
Flags: W
AnchorPoint: "Anchor-3" 526 10 basechar 0
AnchorPoint: "Anchor-2" 286 0 basechar 0
AnchorPoint: "Anchor-0" 286 500 basechar 0
LayerCount: 2
Fore
SplineSet
116 549 m 1
 116 700 l 1
 456 700 l 1
 456 549 l 1
 116 549 l 1
293 -12 m 0
 133 -12 20 96 20 250 c 0
 20 404 132 512 291 512 c 0
 451 512 563 404 563 250 c 0
 563 96 451 -12 293 -12 c 0
293 154 m 0
 343 154 378 194 378 250 c 0
 378 306 342 346 291 346 c 0
 241 346 205 306 205 250 c 0
 205 194 241 154 293 154 c 0
EndSplineSet
EndChar

StartChar: oslash
Encoding: 248 248 206
Width: 578
GlyphClass: 2
Flags: W
AnchorPoint: "Anchor-3" 521 10 basechar 0
AnchorPoint: "Anchor-2" 281 0 basechar 0
AnchorPoint: "Anchor-0" 281 500 basechar 0
LayerCount: 2
Fore
SplineSet
7 0 m 1
 74 80 l 1
 37 124 15 183 15 250 c 0
 15 404 127 512 286 512 c 0
 334 512 378 502 416 484 c 1
 429 500 l 1
 571 500 l 1
 501 418 l 1
 537 373 558 316 558 250 c 0
 558 96 446 -12 288 -12 c 0
 241 -12 198 -3 160 15 c 1
 148 0 l 1
 7 0 l 1
200 250 m 0
 200 243 201 237 202 231 c 1
 298 345 l 1
 294 346 290 346 286 346 c 0
 236 346 200 306 200 250 c 0
288 154 m 0
 338 154 373 194 373 250 c 0
 373 255 373 260 372 265 c 1
 279 154 l 1
 280 154 281 154 288 154 c 0
EndSplineSet
EndChar

StartChar: otilde
Encoding: 245 245 207
Width: 583
GlyphClass: 2
Flags: W
AnchorPoint: "Anchor-3" 526 10 basechar 0
AnchorPoint: "Anchor-2" 286 0 basechar 0
AnchorPoint: "Anchor-0" 286 700 basechar 0
LayerCount: 2
Fore
SplineSet
367 534 m 0
 266 534 274 606 229 606 c 0
 219 606 206 602 198 567 c 1
 87 567 l 1
 99 673 142 712 223 712 c 0
 332 712 327 640 366 640 c 0
 385 640 389 658 392 679 c 1
 503 679 l 1
 491 586 452 534 367 534 c 0
293 -12 m 0
 133 -12 20 96 20 250 c 0
 20 404 132 512 291 512 c 0
 451 512 563 404 563 250 c 0
 563 96 451 -12 293 -12 c 0
293 154 m 0
 343 154 378 194 378 250 c 0
 378 306 342 346 291 346 c 0
 241 346 205 306 205 250 c 0
 205 194 241 154 293 154 c 0
EndSplineSet
EndChar

StartChar: oe
Encoding: 339 339 208
Width: 1008
GlyphClass: 2
Flags: W
LayerCount: 2
Fore
SplineSet
293 -12 m 0
 133 -12 20 96 20 250 c 0
 20 404 132 512 291 512 c 0
 386 512 465 474 512 410 c 1
 560 474 639 512 737 512 c 0
 890 512 998 412 998 205 c 1
 648 205 l 1
 655 155 685 125 735 125 c 0
 779 125 815 148 823 179 c 1
 981 130 l 1
 945 25 833 -12 740 -12 c 0
 642 -12 562 26 513 90 c 1
 465 27 387 -12 293 -12 c 0
732 388 m 0
 696 388 659 370 649 315 c 1
 815 315 l 1
 805 370 766 388 732 388 c 0
293 154 m 0
 343 154 378 194 378 250 c 0
 378 306 342 346 291 346 c 0
 241 346 205 306 205 250 c 0
 205 194 241 154 293 154 c 0
EndSplineSet
EndChar

StartChar: p
Encoding: 112 112 209
Width: 610
GlyphClass: 1
Flags: W
LayerCount: 2
Fore
SplineSet
50 -200 m 1
 50 500 l 1
 220 500 l 1
 226 442 l 1
 256 488 302 512 364 512 c 0
 506 512 590 415 590 250 c 0
 590 85 506 -12 364 -12 c 0
 304 -12 260 10 230 52 c 1
 230 -200 l 1
 50 -200 l 1
316 154 m 0
 365 154 401 194 402 250 c 0
 401 306 366 345 317 345 c 0
 266 345 230 306 230 250 c 0
 230 194 266 154 316 154 c 0
EndSplineSet
EndChar

StartChar: thorn
Encoding: 254 254 210
Width: 605
GlyphClass: 1
Flags: W
LayerCount: 2
Fore
SplineSet
45 -200 m 1
 45 700 l 1
 225 700 l 1
 225 448 l 1
 255 490 299 512 359 512 c 0
 501 512 585 415 585 250 c 0
 585 85 501 -12 359 -12 c 0
 299 -12 255 10 225 52 c 1
 225 -200 l 1
 45 -200 l 1
311 154 m 0
 360 154 396 194 397 250 c 0
 396 306 361 345 312 345 c 0
 261 345 225 306 225 250 c 0
 225 194 261 154 311 154 c 0
EndSplineSet
EndChar

StartChar: q
Encoding: 113 113 211
Width: 605
GlyphClass: 1
Flags: W
LayerCount: 2
Fore
SplineSet
246 -12 m 4
 104 -12 20 85 20 250 c 4
 20 415 104 512 246 512 c 4
 308 512 354 488 384 442 c 5
 390 500 l 5
 560 500 l 5
 560 -200 l 5
 380 -200 l 5
 380 52 l 5
 350 10 306 -12 246 -12 c 4
294 154 m 4
 344 154 380 194 380 250 c 4
 380 306 344 345 293 345 c 4
 244 345 209 306 208 250 c 4
 209 194 245 154 294 154 c 4
EndSplineSet
EndChar

StartChar: r
Encoding: 114 114 212
Width: 417
GlyphClass: 2
Flags: W
AnchorPoint: "Anchor-2" 164 0 basechar 0
AnchorPoint: "Anchor-0" 188 500 basechar 0
LayerCount: 2
Fore
SplineSet
45 0 m 1
 45 500 l 1
 225 500 l 1
 225 406 l 1
 267 469 335 502 402 502 c 1
 402 326 l 1
 307 326 225 299 225 251 c 2
 225 0 l 1
 45 0 l 1
EndSplineSet
EndChar

StartChar: racute
Encoding: 341 341 213
Width: 417
GlyphClass: 2
Flags: W
AnchorPoint: "Anchor-2" 164 0 basechar 0
AnchorPoint: "Anchor-0" 188 500 basechar 0
LayerCount: 2
Fore
SplineSet
89 554 m 1
 199 700 l 1
 389 700 l 1
 259 554 l 1
 89 554 l 1
45 0 m 1
 45 500 l 1
 225 500 l 1
 225 406 l 1
 267 469 335 502 402 502 c 1
 402 326 l 1
 307 326 225 299 225 251 c 2
 225 0 l 1
 45 0 l 1
EndSplineSet
EndChar

StartChar: rcaron
Encoding: 345 345 214
Width: 417
GlyphClass: 2
Flags: W
AnchorPoint: "Anchor-2" 164 0 basechar 0
AnchorPoint: "Anchor-0" 188 500 basechar 0
LayerCount: 2
Fore
SplineSet
97 554 m 1
 -30 700 l 1
 120 700 l 1
 183 636 l 1
 245 700 l 1
 395 700 l 1
 268 554 l 1
 97 554 l 1
45 0 m 1
 45 500 l 1
 225 500 l 1
 225 406 l 1
 267 469 335 502 402 502 c 1
 402 326 l 1
 307 326 225 299 225 251 c 2
 225 0 l 1
 45 0 l 1
EndSplineSet
EndChar

StartChar: uni0157
Encoding: 343 343 215
Width: 417
GlyphClass: 2
Flags: W
AnchorPoint: "Anchor-2" 164 0 basechar 0
AnchorPoint: "Anchor-0" 188 500 basechar 0
LayerCount: 2
Fore
SplineSet
45 0 m 1
 45 500 l 1
 225 500 l 1
 225 406 l 1
 267 469 335 502 402 502 c 1
 402 326 l 1
 307 326 225 299 225 251 c 2
 225 0 l 1
 45 0 l 1
45 -200 m 1
 91 -40 l 1
 259 -40 l 1
 175 -200 l 1
 45 -200 l 1
EndSplineSet
EndChar

StartChar: s
Encoding: 115 115 216
Width: 491
GlyphClass: 2
Flags: W
AnchorPoint: "Anchor-2" 244 1 basechar 0
AnchorPoint: "Anchor-0" 247 500 basechar 0
LayerCount: 2
Fore
SplineSet
234 -12 m 0
 134 -12 49 31 25 103 c 1
 168 159 l 1
 183 123 214 117 234 117 c 0
 255 117 270 126 270 144 c 0
 270 162 252 174 213 184 c 2
 172 194 l 2
 83 216 37 276 37 351 c 0
 37 454 117 512 247 512 c 0
 365 512 424 465 453 397 c 1
 314 344 l 1
 304 371 282 382 250 382 c 0
 227 382 214 370 214 355 c 0
 214 339 233 328 273 318 c 2
 314 308 l 2
 405 286 466 228 466 143 c 0
 466 45 373 -12 234 -12 c 0
EndSplineSet
EndChar

StartChar: sacute
Encoding: 347 347 217
Width: 491
GlyphClass: 2
Flags: W
AnchorPoint: "Anchor-2" 244 1 basechar 0
AnchorPoint: "Anchor-0" 247 500 basechar 0
LayerCount: 2
Fore
SplineSet
148 554 m 1
 258 700 l 1
 448 700 l 1
 318 554 l 1
 148 554 l 1
234 -12 m 0
 134 -12 49 31 25 103 c 1
 168 159 l 1
 183 123 214 117 234 117 c 0
 255 117 270 126 270 144 c 0
 270 162 252 174 213 184 c 2
 172 194 l 2
 83 216 37 276 37 351 c 0
 37 454 117 512 247 512 c 0
 365 512 424 465 453 397 c 1
 314 344 l 1
 304 371 282 382 250 382 c 0
 227 382 214 370 214 355 c 0
 214 339 233 328 273 318 c 2
 314 308 l 2
 405 286 466 228 466 143 c 0
 466 45 373 -12 234 -12 c 0
EndSplineSet
EndChar

StartChar: scaron
Encoding: 353 353 218
Width: 491
GlyphClass: 2
Flags: W
AnchorPoint: "Anchor-2" 244 1 basechar 0
AnchorPoint: "Anchor-0" 247 500 basechar 0
LayerCount: 2
Fore
SplineSet
156 554 m 1
 29 700 l 1
 179 700 l 1
 242 636 l 1
 304 700 l 1
 454 700 l 1
 327 554 l 1
 156 554 l 1
234 -12 m 0
 134 -12 49 31 25 103 c 1
 168 159 l 1
 183 123 214 117 234 117 c 0
 255 117 270 126 270 144 c 0
 270 162 252 174 213 184 c 2
 172 194 l 2
 83 216 37 276 37 351 c 0
 37 454 117 512 247 512 c 0
 365 512 424 465 453 397 c 1
 314 344 l 1
 304 371 282 382 250 382 c 0
 227 382 214 370 214 355 c 0
 214 339 233 328 273 318 c 2
 314 308 l 2
 405 286 466 228 466 143 c 0
 466 45 373 -12 234 -12 c 0
EndSplineSet
EndChar

StartChar: scedilla
Encoding: 351 351 219
Width: 491
GlyphClass: 2
Flags: W
AnchorPoint: "Anchor-2" 244 1 basechar 0
AnchorPoint: "Anchor-0" 247 500 basechar 0
LayerCount: 2
Fore
SplineSet
190 -209 m 0
 158 -209 122 -197 94 -178 c 1
 115 -102 l 1
 134 -111 151 -116 162 -116 c 0
 185 -116 199 -109 199 -97 c 0
 199 -79 179 -68 144 -68 c 1
 169 -6 l 1
 99 9 44 47 25 103 c 1
 168 159 l 1
 183 123 214 117 234 117 c 0
 255 117 270 126 270 144 c 0
 270 162 252 174 213 184 c 2
 172 194 l 2
 83 216 37 276 37 351 c 0
 37 454 117 512 247 512 c 0
 365 512 424 465 453 397 c 1
 314 344 l 1
 304 371 282 382 250 382 c 0
 227 382 214 370 214 355 c 0
 214 339 233 328 273 318 c 2
 314 308 l 2
 405 286 466 228 466 143 c 0
 466 52 386 -4 262 -11 c 1
 256 -25 l 1
 301 -40 328 -71 328 -107 c 0
 328 -171 277 -209 190 -209 c 0
EndSplineSet
Substitution2: "'locl' Localized Forms in Latin lookup 12 subtable" uni0219
Substitution2: "'locl' Localized Forms in Latin lookup 11 subtable" uni0219
Substitution2: "'aalt' Access All Alternates in Latin lookup 0 subtable" uni0219
EndChar

StartChar: scircumflex
Encoding: 349 349 220
Width: 491
GlyphClass: 2
Flags: W
AnchorPoint: "Anchor-2" 244 1 basechar 0
AnchorPoint: "Anchor-0" 247 500 basechar 0
LayerCount: 2
Fore
SplineSet
29 565 m 1
 156 712 l 1
 327 712 l 1
 454 565 l 1
 304 565 l 1
 242 622 l 1
 179 565 l 1
 29 565 l 1
234 -12 m 0
 134 -12 49 31 25 103 c 1
 168 159 l 1
 183 123 214 117 234 117 c 0
 255 117 270 126 270 144 c 0
 270 162 252 174 213 184 c 2
 172 194 l 2
 83 216 37 276 37 351 c 0
 37 454 117 512 247 512 c 0
 365 512 424 465 453 397 c 1
 314 344 l 1
 304 371 282 382 250 382 c 0
 227 382 214 370 214 355 c 0
 214 339 233 328 273 318 c 2
 314 308 l 2
 405 286 466 228 466 143 c 0
 466 45 373 -12 234 -12 c 0
EndSplineSet
EndChar

StartChar: uni0219
Encoding: 537 537 221
Width: 491
GlyphClass: 2
Flags: W
AnchorPoint: "Anchor-2" 244 1 basechar 0
AnchorPoint: "Anchor-0" 247 500 basechar 0
LayerCount: 2
Fore
SplineSet
234 -12 m 0
 134 -12 49 31 25 103 c 1
 168 159 l 1
 183 123 214 117 234 117 c 0
 255 117 270 126 270 144 c 0
 270 162 252 174 213 184 c 2
 172 194 l 2
 83 216 37 276 37 351 c 0
 37 454 117 512 247 512 c 0
 365 512 424 465 453 397 c 1
 314 344 l 1
 304 371 282 382 250 382 c 0
 227 382 214 370 214 355 c 0
 214 339 233 328 273 318 c 2
 314 308 l 2
 405 286 466 228 466 143 c 0
 466 45 373 -12 234 -12 c 0
125 -199 m 1
 171 -39 l 1
 339 -39 l 1
 255 -199 l 1
 125 -199 l 1
EndSplineSet
EndChar

StartChar: germandbls
Encoding: 223 223 222
Width: 609
GlyphClass: 1
Flags: W
LayerCount: 2
Fore
SplineSet
45 0 m 1
 45 476 l 2
 45 638 149 712 306 712 c 0
 455 712 559 646 559 499 c 0
 559 455 540 409 506 371 c 1
 560 340 584 286 584 202 c 0
 584 72 488 0 352 0 c 2
 294 0 l 1
 294 163 l 1
 330 163 l 2
 374 163 402 191 402 221 c 0
 402 254 372 276 330 276 c 2
 294 276 l 1
 294 435 l 1
 306 435 l 2
 350 435 379 459 379 502 c 0
 379 541 345 560 304 560 c 0
 255 560 225 532 225 476 c 2
 225 0 l 1
 45 0 l 1
EndSplineSet
EndChar

StartChar: t
Encoding: 116 116 223
Width: 425
GlyphClass: 2
Flags: W
AnchorPoint: "Anchor-2" 223 0 basechar 0
AnchorPoint: "Anchor-1" 265 700 basechar 0
AnchorPoint: "Anchor-0" 203 500 basechar 0
LayerCount: 2
Fore
SplineSet
268 -12 m 0
 144 -12 85 48 85 158 c 2
 85 350 l 1
 10 350 l 1
 10 500 l 1
 85 500 l 1
 85 656 l 1
 265 656 l 1
 265 500 l 1
 368 500 l 1
 368 350 l 1
 265 350 l 1
 265 207 l 2
 265 169 275 155 300 155 c 0
 311 155 330 163 339 170 c 1
 400 40 l 1
 369 13 315 -12 268 -12 c 0
EndSplineSet
EndChar

StartChar: tcaron
Encoding: 357 357 224
Width: 454
GlyphClass: 2
Flags: W
AnchorPoint: "Anchor-2" 223 0 basechar 0
AnchorPoint: "Anchor-1" 265 700 basechar 0
AnchorPoint: "Anchor-0" 203 500 basechar 0
LayerCount: 2
Fore
SplineSet
290 581 m 1
 313 700 l 1
 463 700 l 1
 420 581 l 1
 290 581 l 1
268 -12 m 0
 144 -12 85 48 85 158 c 2
 85 350 l 1
 10 350 l 1
 10 500 l 1
 85 500 l 1
 85 656 l 1
 265 656 l 1
 265 500 l 1
 368 500 l 1
 368 350 l 1
 265 350 l 1
 265 207 l 2
 265 169 275 155 300 155 c 0
 311 155 330 163 339 170 c 1
 400 40 l 1
 369 13 315 -12 268 -12 c 0
EndSplineSet
EndChar

StartChar: uni021B
Encoding: 539 539 225
Width: 425
GlyphClass: 2
Flags: W
AnchorPoint: "Anchor-2" 223 0 basechar 0
AnchorPoint: "Anchor-1" 265 700 basechar 0
AnchorPoint: "Anchor-0" 203 500 basechar 0
LayerCount: 2
Fore
SplineSet
268 -12 m 0
 144 -12 85 48 85 158 c 2
 85 350 l 1
 10 350 l 1
 10 500 l 1
 85 500 l 1
 85 656 l 1
 265 656 l 1
 265 500 l 1
 368 500 l 1
 368 350 l 1
 265 350 l 1
 265 207 l 2
 265 169 275 155 300 155 c 0
 311 155 330 163 339 170 c 1
 400 40 l 1
 369 13 315 -12 268 -12 c 0
104 -200 m 1
 150 -40 l 1
 318 -40 l 1
 234 -200 l 1
 104 -200 l 1
EndSplineSet
EndChar

StartChar: u
Encoding: 117 117 226
Width: 578
GlyphClass: 2
Flags: W
AnchorPoint: "Anchor-3" 543 0 basechar 0
AnchorPoint: "Anchor-2" 294 0 basechar 0
AnchorPoint: "Anchor-0" 286 500 basechar 0
LayerCount: 2
Fore
SplineSet
220 244 m 2
 220 187 239 159 277 157 c 0
 328 155 353 180 353 234 c 2
 353 500 l 1
 533 500 l 1
 533 0 l 1
 363 0 l 1
 356 61 l 1
 324 13 276 -12 220 -12 c 0
 98 -12 40 60 40 214 c 2
 40 500 l 1
 220 500 l 1
 220 244 l 2
EndSplineSet
EndChar

StartChar: uacute
Encoding: 250 250 227
Width: 578
GlyphClass: 2
Flags: W
AnchorPoint: "Anchor-3" 543 0 basechar 0
AnchorPoint: "Anchor-2" 294 0 basechar 0
AnchorPoint: "Anchor-0" 286 500 basechar 0
LayerCount: 2
Fore
SplineSet
187 554 m 1
 297 700 l 1
 487 700 l 1
 357 554 l 1
 187 554 l 1
220 244 m 2
 220 187 239 159 277 157 c 0
 328 155 353 180 353 234 c 2
 353 500 l 1
 533 500 l 1
 533 0 l 1
 363 0 l 1
 356 61 l 1
 324 13 276 -12 220 -12 c 0
 98 -12 40 60 40 214 c 2
 40 500 l 1
 220 500 l 1
 220 244 l 2
EndSplineSet
EndChar

StartChar: ubreve
Encoding: 365 365 228
Width: 578
GlyphClass: 2
Flags: W
AnchorPoint: "Anchor-3" 543 0 basechar 0
AnchorPoint: "Anchor-2" 294 0 basechar 0
AnchorPoint: "Anchor-0" 286 500 basechar 0
LayerCount: 2
Fore
SplineSet
287 542 m 0
 168 542 84 607 84 700 c 1
 248 700 l 1
 248 677 264 661 287 661 c 0
 309 661 325 677 325 700 c 1
 489 700 l 1
 489 607 405 542 287 542 c 0
220 244 m 2
 220 187 239 159 277 157 c 0
 328 155 353 180 353 234 c 2
 353 500 l 1
 533 500 l 1
 533 0 l 1
 363 0 l 1
 356 61 l 1
 324 13 276 -12 220 -12 c 0
 98 -12 40 60 40 214 c 2
 40 500 l 1
 220 500 l 1
 220 244 l 2
EndSplineSet
EndChar

StartChar: ucircumflex
Encoding: 251 251 229
Width: 578
GlyphClass: 2
Flags: W
AnchorPoint: "Anchor-3" 543 0 basechar 0
AnchorPoint: "Anchor-2" 294 0 basechar 0
AnchorPoint: "Anchor-0" 286 500 basechar 0
LayerCount: 2
Fore
SplineSet
68 565 m 1
 195 712 l 1
 366 712 l 1
 493 565 l 1
 343 565 l 1
 281 622 l 1
 218 565 l 1
 68 565 l 1
220 244 m 2
 220 187 239 159 277 157 c 0
 328 155 353 180 353 234 c 2
 353 500 l 1
 533 500 l 1
 533 0 l 1
 363 0 l 1
 356 61 l 1
 324 13 276 -12 220 -12 c 0
 98 -12 40 60 40 214 c 2
 40 500 l 1
 220 500 l 1
 220 244 l 2
EndSplineSet
EndChar

StartChar: udieresis
Encoding: 252 252 230
Width: 578
GlyphClass: 2
Flags: W
AnchorPoint: "Anchor-3" 543 0 basechar 0
AnchorPoint: "Anchor-2" 294 0 basechar 0
AnchorPoint: "Anchor-0" 286 748 basechar 0
LayerCount: 2
Fore
SplineSet
421 569 m 0
 374 569 333 610 333 657 c 0
 333 704 374 745 421 745 c 0
 468 745 509 704 509 657 c 0
 509 610 468 569 421 569 c 0
151 569 m 0
 103 569 63 609 63 657 c 0
 63 705 103 745 151 745 c 0
 199 745 239 705 239 657 c 0
 239 609 199 569 151 569 c 0
220 244 m 2
 220 187 239 159 277 157 c 0
 328 155 353 180 353 234 c 2
 353 500 l 1
 533 500 l 1
 533 0 l 1
 363 0 l 1
 356 61 l 1
 324 13 276 -12 220 -12 c 0
 98 -12 40 60 40 214 c 2
 40 500 l 1
 220 500 l 1
 220 244 l 2
EndSplineSet
EndChar

StartChar: ugrave
Encoding: 249 249 231
Width: 578
GlyphClass: 2
Flags: W
AnchorPoint: "Anchor-3" 543 0 basechar 0
AnchorPoint: "Anchor-2" 294 0 basechar 0
AnchorPoint: "Anchor-0" 286 500 basechar 0
LayerCount: 2
Fore
SplineSet
228 554 m 1
 96 701 l 1
 286 701 l 1
 398 554 l 1
 228 554 l 1
220 244 m 2
 220 187 239 159 277 157 c 0
 328 155 353 180 353 234 c 2
 353 500 l 1
 533 500 l 1
 533 0 l 1
 363 0 l 1
 356 61 l 1
 324 13 276 -12 220 -12 c 0
 98 -12 40 60 40 214 c 2
 40 500 l 1
 220 500 l 1
 220 244 l 2
EndSplineSet
EndChar

StartChar: uhungarumlaut
Encoding: 369 369 232
Width: 578
GlyphClass: 2
Flags: W
AnchorPoint: "Anchor-3" 543 0 basechar 0
AnchorPoint: "Anchor-2" 294 0 basechar 0
AnchorPoint: "Anchor-0" 286 500 basechar 0
LayerCount: 2
Fore
SplineSet
330 554 m 1
 430 700 l 1
 600 700 l 1
 478 554 l 1
 330 554 l 1
100 554 m 1
 196 700 l 1
 366 700 l 1
 246 554 l 1
 100 554 l 1
220 244 m 2
 220 187 239 159 277 157 c 0
 328 155 353 180 353 234 c 2
 353 500 l 1
 533 500 l 1
 533 0 l 1
 363 0 l 1
 356 61 l 1
 324 13 276 -12 220 -12 c 0
 98 -12 40 60 40 214 c 2
 40 500 l 1
 220 500 l 1
 220 244 l 2
EndSplineSet
EndChar

StartChar: umacron
Encoding: 363 363 233
Width: 578
GlyphClass: 2
Flags: W
AnchorPoint: "Anchor-3" 543 0 basechar 0
AnchorPoint: "Anchor-2" 294 0 basechar 0
AnchorPoint: "Anchor-0" 286 500 basechar 0
LayerCount: 2
Fore
SplineSet
116 549 m 1
 116 700 l 1
 456 700 l 1
 456 549 l 1
 116 549 l 1
220 244 m 2
 220 187 239 159 277 157 c 0
 328 155 353 180 353 234 c 2
 353 500 l 1
 533 500 l 1
 533 0 l 1
 363 0 l 1
 356 61 l 1
 324 13 276 -12 220 -12 c 0
 98 -12 40 60 40 214 c 2
 40 500 l 1
 220 500 l 1
 220 244 l 2
EndSplineSet
EndChar

StartChar: uogonek
Encoding: 371 371 234
Width: 578
GlyphClass: 2
Flags: W
AnchorPoint: "Anchor-3" 543 0 basechar 0
AnchorPoint: "Anchor-2" 294 0 basechar 0
AnchorPoint: "Anchor-0" 286 500 basechar 0
LayerCount: 2
Fore
SplineSet
220 244 m 2
 220 187 239 159 277 157 c 0
 328 155 353 180 353 234 c 2
 353 500 l 1
 533 500 l 1
 533 0 l 1
 497 -23 477 -52 477 -75 c 0
 477 -86 484 -95 495 -95 c 0
 506 -95 513 -92 520 -88 c 1
 572 -196 l 1
 552 -208 527 -212 494 -212 c 0
 410 -212 338 -170 338 -88 c 0
 338 -49 364 -16 395 0 c 1
 363 0 l 1
 356 61 l 1
 324 13 276 -12 220 -12 c 0
 98 -12 40 60 40 214 c 2
 40 500 l 1
 220 500 l 1
 220 244 l 2
EndSplineSet
EndChar

StartChar: uring
Encoding: 367 367 235
Width: 578
GlyphClass: 2
Flags: W
AnchorPoint: "Anchor-3" 543 0 basechar 0
AnchorPoint: "Anchor-2" 294 0 basechar 0
AnchorPoint: "Anchor-0" 286 500 basechar 0
LayerCount: 2
Fore
SplineSet
286 520 m 0
 212 520 148 577 148 649 c 0
 148 722 212 779 286 779 c 0
 359 779 423 722 423 649 c 0
 423 577 359 520 286 520 c 0
286 616 m 0
 306 616 318 629 318 649 c 0
 318 670 306 683 286 683 c 0
 265 683 253 670 253 649 c 0
 253 629 265 616 286 616 c 0
220 244 m 2
 220 187 239 159 277 157 c 0
 328 155 353 180 353 234 c 2
 353 500 l 1
 533 500 l 1
 533 0 l 1
 363 0 l 1
 356 61 l 1
 324 13 276 -12 220 -12 c 0
 98 -12 40 60 40 214 c 2
 40 500 l 1
 220 500 l 1
 220 244 l 2
EndSplineSet
EndChar

StartChar: v
Encoding: 118 118 236
Width: 590
GlyphClass: 1
Flags: W
LayerCount: 2
Fore
SplineSet
206 0 m 1
 5 500 l 1
 191 500 l 1
 295 205 l 1
 399 500 l 1
 585 500 l 1
 384 0 l 1
 206 0 l 1
EndSplineSet
EndChar

StartChar: w
Encoding: 119 119 237
Width: 883
GlyphClass: 2
Flags: W
AnchorPoint: "Anchor-0" 442 500 basechar 0
LayerCount: 2
Fore
SplineSet
180 0 m 1
 10 500 l 1
 194 500 l 1
 273 238 l 1
 353 500 l 1
 530 500 l 1
 607 246 l 1
 689 500 l 1
 873 500 l 1
 702 0 l 1
 526 0 l 1
 441 288 l 1
 356 0 l 1
 180 0 l 1
EndSplineSet
EndChar

StartChar: wacute
Encoding: 7811 7811 238
Width: 883
GlyphClass: 2
Flags: W
AnchorPoint: "Anchor-0" 442 500 basechar 0
LayerCount: 2
Fore
SplineSet
343 554 m 1
 453 700 l 1
 643 700 l 1
 513 554 l 1
 343 554 l 1
180 0 m 1
 10 500 l 1
 194 500 l 1
 273 238 l 1
 353 500 l 1
 530 500 l 1
 607 246 l 1
 689 500 l 1
 873 500 l 1
 702 0 l 1
 526 0 l 1
 441 288 l 1
 356 0 l 1
 180 0 l 1
EndSplineSet
EndChar

StartChar: wcircumflex
Encoding: 373 373 239
Width: 883
GlyphClass: 2
Flags: W
AnchorPoint: "Anchor-0" 442 500 basechar 0
LayerCount: 2
Fore
SplineSet
224 565 m 1
 351 712 l 1
 522 712 l 1
 649 565 l 1
 499 565 l 1
 437 622 l 1
 374 565 l 1
 224 565 l 1
180 0 m 1
 10 500 l 1
 194 500 l 1
 273 238 l 1
 353 500 l 1
 530 500 l 1
 607 246 l 1
 689 500 l 1
 873 500 l 1
 702 0 l 1
 526 0 l 1
 441 288 l 1
 356 0 l 1
 180 0 l 1
EndSplineSet
EndChar

StartChar: wdieresis
Encoding: 7813 7813 240
Width: 883
GlyphClass: 2
Flags: W
AnchorPoint: "Anchor-0" 442 748 basechar 0
LayerCount: 2
Fore
SplineSet
577 569 m 0
 530 569 489 610 489 657 c 0
 489 704 530 745 577 745 c 0
 624 745 665 704 665 657 c 0
 665 610 624 569 577 569 c 0
307 569 m 0
 259 569 219 609 219 657 c 0
 219 705 259 745 307 745 c 0
 355 745 395 705 395 657 c 0
 395 609 355 569 307 569 c 0
180 0 m 1
 10 500 l 1
 194 500 l 1
 273 238 l 1
 353 500 l 1
 530 500 l 1
 607 246 l 1
 689 500 l 1
 873 500 l 1
 702 0 l 1
 526 0 l 1
 441 288 l 1
 356 0 l 1
 180 0 l 1
EndSplineSet
EndChar

StartChar: wgrave
Encoding: 7809 7809 241
Width: 883
GlyphClass: 2
Flags: W
AnchorPoint: "Anchor-0" 442 500 basechar 0
LayerCount: 2
Fore
SplineSet
384 554 m 1
 252 701 l 1
 442 701 l 1
 554 554 l 1
 384 554 l 1
180 0 m 1
 10 500 l 1
 194 500 l 1
 273 238 l 1
 353 500 l 1
 530 500 l 1
 607 246 l 1
 689 500 l 1
 873 500 l 1
 702 0 l 1
 526 0 l 1
 441 288 l 1
 356 0 l 1
 180 0 l 1
EndSplineSet
EndChar

StartChar: x
Encoding: 120 120 242
Width: 592
GlyphClass: 1
Flags: W
LayerCount: 2
Fore
SplineSet
10 0 m 1
 198 259 l 1
 23 500 l 1
 235 500 l 1
 297 406 l 1
 358 500 l 1
 570 500 l 1
 396 258 l 1
 582 0 l 1
 369 0 l 1
 297 112 l 1
 224 0 l 1
 10 0 l 1
EndSplineSet
EndChar

StartChar: y
Encoding: 121 121 243
Width: 622
GlyphClass: 2
Flags: W
HStem: -212 167<117.916 218.88> 480 20G<0 208.028 414.664 622>
AnchorPoint: "Anchor-0" 311 500 basechar 0
LayerCount: 2
Fore
SplineSet
196 -212 m 0
 149 -212 90 -190 60 -170 c 1
 127 -25 l 1
 141 -37 159 -45 174 -45 c 0
 195 -45 216 -36 227 -10 c 2
 235 10 l 1
 316 211 l 1
 138.602040816 211 l 1
 0 500 l 1
 200 500 l 1
 316 211 l 1
 422 500 l 1
 622 500 l 1
 407 -18 l 2
 360 -130 322 -212 196 -212 c 0
EndSplineSet
EndChar

StartChar: yacute
Encoding: 253 253 244
Width: 622
GlyphClass: 2
Flags: W
AnchorPoint: "Anchor-0" 311 500 basechar 0
LayerCount: 2
Fore
SplineSet
212 554 m 1
 322 700 l 1
 512 700 l 1
 382 554 l 1
 212 554 l 1
196 -212 m 0
 149 -212 90 -190 60 -170 c 1
 127 -25 l 1
 141 -37 159 -45 174 -45 c 0
 195 -45 216 -36 227 -10 c 2
 235 10 l 1
 0 500 l 1
 200 500 l 1
 316 211 l 1
 422 500 l 1
 622 500 l 1
 407 -18 l 2
 360 -130 322 -212 196 -212 c 0
EndSplineSet
EndChar

StartChar: ycircumflex
Encoding: 375 375 245
Width: 622
GlyphClass: 2
Flags: W
AnchorPoint: "Anchor-0" 311 500 basechar 0
LayerCount: 2
Fore
SplineSet
93 565 m 1
 220 712 l 1
 391 712 l 1
 518 565 l 1
 368 565 l 1
 306 622 l 1
 243 565 l 1
 93 565 l 1
196 -212 m 0
 149 -212 90 -190 60 -170 c 1
 127 -25 l 1
 141 -37 159 -45 174 -45 c 0
 195 -45 216 -36 227 -10 c 2
 235 10 l 1
 0 500 l 1
 200 500 l 1
 316 211 l 1
 422 500 l 1
 622 500 l 1
 407 -18 l 2
 360 -130 322 -212 196 -212 c 0
EndSplineSet
EndChar

StartChar: ydieresis
Encoding: 255 255 246
Width: 622
GlyphClass: 2
Flags: W
AnchorPoint: "Anchor-0" 311 748 basechar 0
LayerCount: 2
Fore
SplineSet
446 569 m 0
 399 569 358 610 358 657 c 0
 358 704 399 745 446 745 c 0
 493 745 534 704 534 657 c 0
 534 610 493 569 446 569 c 0
176 569 m 0
 128 569 88 609 88 657 c 0
 88 705 128 745 176 745 c 0
 224 745 264 705 264 657 c 0
 264 609 224 569 176 569 c 0
196 -212 m 0
 149 -212 90 -190 60 -170 c 1
 127 -25 l 1
 141 -37 159 -45 174 -45 c 0
 195 -45 216 -36 227 -10 c 2
 235 10 l 1
 0 500 l 1
 200 500 l 1
 316 211 l 1
 422 500 l 1
 622 500 l 1
 407 -18 l 2
 360 -130 322 -212 196 -212 c 0
EndSplineSet
EndChar

StartChar: ygrave
Encoding: 7923 7923 247
Width: 622
GlyphClass: 2
Flags: W
AnchorPoint: "Anchor-0" 311 500 basechar 0
LayerCount: 2
Fore
SplineSet
253 554 m 1
 121 701 l 1
 311 701 l 1
 423 554 l 1
 253 554 l 1
196 -212 m 0
 149 -212 90 -190 60 -170 c 1
 127 -25 l 1
 141 -37 159 -45 174 -45 c 0
 195 -45 216 -36 227 -10 c 2
 235 10 l 1
 0 500 l 1
 200 500 l 1
 316 211 l 1
 422 500 l 1
 622 500 l 1
 407 -18 l 2
 360 -130 322 -212 196 -212 c 0
EndSplineSet
EndChar

StartChar: z
Encoding: 122 122 248
Width: 464
GlyphClass: 2
Flags: HW
AnchorPoint: "Anchor-0" 232 500 basechar 0
LayerCount: 2
Fore
SplineSet
242 125 m 1
 20 125 l 1
 222 355 l 1
 20 355 l 1
 20 500 l 1
 223 500 l 1
 223 374 l 1
 444 375 l 1
 242 144 l 1
 444 144 l 1
 444 0 l 1
 242 0 l 1
 242 125 l 1
EndSplineSet
EndChar

StartChar: zacute
Encoding: 378 378 249
Width: 464
GlyphClass: 2
Flags: W
AnchorPoint: "Anchor-0" 232 500 basechar 0
LayerCount: 2
Fore
SplineSet
133 554 m 1
 243 700 l 1
 433 700 l 1
 303 554 l 1
 133 554 l 1
20 0 m 1
 20 125 l 1
 222 355 l 1
 20 355 l 1
 20 500 l 1
 444 500 l 1
 444 375 l 1
 242 144 l 1
 444 144 l 1
 444 0 l 1
 20 0 l 1
EndSplineSet
EndChar

StartChar: zcaron
Encoding: 382 382 250
Width: 464
GlyphClass: 2
Flags: W
AnchorPoint: "Anchor-0" 232 500 basechar 0
LayerCount: 2
Fore
SplineSet
141 554 m 1
 14 700 l 1
 164 700 l 1
 227 636 l 1
 289 700 l 1
 439 700 l 1
 312 554 l 1
 141 554 l 1
20 0 m 1
 20 125 l 1
 222 355 l 1
 20 355 l 1
 20 500 l 1
 444 500 l 1
 444 375 l 1
 242 144 l 1
 444 144 l 1
 444 0 l 1
 20 0 l 1
EndSplineSet
EndChar

StartChar: zdotaccent
Encoding: 380 380 251
Width: 464
GlyphClass: 2
Flags: W
AnchorPoint: "Anchor-0" 232 500 basechar 0
LayerCount: 2
Fore
SplineSet
232 548 m 0
 178 548 132 594 132 648 c 0
 132 702 178 748 232 748 c 0
 286 748 332 702 332 648 c 0
 332 594 286 548 232 548 c 0
20 0 m 1
 20 125 l 1
 222 355 l 1
 20 355 l 1
 20 500 l 1
 444 500 l 1
 444 375 l 1
 242 144 l 1
 444 144 l 1
 444 0 l 1
 20 0 l 1
EndSplineSet
EndChar

StartChar: a.ss01
Encoding: 65549 -1 252
Width: 604
GlyphClass: 2
Flags: W
AnchorPoint: "Anchor-3" 569 0 basechar 0
AnchorPoint: "Anchor-0" 288 500 basechar 0
LayerCount: 2
Fore
SplineSet
246 -12 m 0
 104 -12 20 85 20 250 c 0
 20 415 104 512 246 512 c 0
 305 512 349 490 379 449 c 1
 379 500 l 1
 559 500 l 1
 559 0 l 1
 388 0 l 1
 383 56 l 1
 353 12 307 -12 246 -12 c 0
294 154 m 0
 339 154 373 187 379 234 c 1
 379 266 l 1
 373 313 339 345 293 345 c 0
 244 345 209 306 208 250 c 0
 209 194 245 154 294 154 c 0
EndSplineSet
EndChar

StartChar: aacute.ss01
Encoding: 65550 -1 253
Width: 604
GlyphClass: 2
Flags: W
AnchorPoint: "Anchor-3" 569 0 basechar 0
AnchorPoint: "Anchor-0" 288 500 basechar 0
LayerCount: 2
Fore
SplineSet
189 554 m 1
 299 700 l 1
 489 700 l 1
 359 554 l 1
 189 554 l 1
246 -12 m 0
 104 -12 20 85 20 250 c 0
 20 415 104 512 246 512 c 0
 305 512 349 490 379 449 c 1
 379 500 l 1
 559 500 l 1
 559 0 l 1
 388 0 l 1
 383 56 l 1
 353 12 307 -12 246 -12 c 0
294 154 m 0
 339 154 373 187 379 234 c 1
 379 266 l 1
 373 313 339 345 293 345 c 0
 244 345 209 306 208 250 c 0
 209 194 245 154 294 154 c 0
EndSplineSet
EndChar

StartChar: abreve.ss01
Encoding: 65551 -1 254
Width: 604
GlyphClass: 2
Flags: W
AnchorPoint: "Anchor-3" 569 0 basechar 0
AnchorPoint: "Anchor-0" 288 500 basechar 0
LayerCount: 2
Fore
SplineSet
289 542 m 0
 170 542 86 607 86 700 c 1
 250 700 l 1
 250 677 266 661 289 661 c 0
 311 661 327 677 327 700 c 1
 491 700 l 1
 491 607 407 542 289 542 c 0
246 -12 m 0
 104 -12 20 85 20 250 c 0
 20 415 104 512 246 512 c 0
 305 512 349 490 379 449 c 1
 379 500 l 1
 559 500 l 1
 559 0 l 1
 388 0 l 1
 383 56 l 1
 353 12 307 -12 246 -12 c 0
294 154 m 0
 339 154 373 187 379 234 c 1
 379 266 l 1
 373 313 339 345 293 345 c 0
 244 345 209 306 208 250 c 0
 209 194 245 154 294 154 c 0
EndSplineSet
EndChar

StartChar: uni01CE.ss01
Encoding: 65552 -1 255
Width: 604
GlyphClass: 2
Flags: W
AnchorPoint: "Anchor-3" 569 0 basechar 0
AnchorPoint: "Anchor-0" 288 500 basechar 0
LayerCount: 2
Fore
SplineSet
197 554 m 1
 70 700 l 1
 220 700 l 1
 283 636 l 1
 345 700 l 1
 495 700 l 1
 368 554 l 1
 197 554 l 1
246 -12 m 0
 104 -12 20 85 20 250 c 0
 20 415 104 512 246 512 c 0
 305 512 349 490 379 449 c 1
 379 500 l 1
 559 500 l 1
 559 0 l 1
 388 0 l 1
 383 56 l 1
 353 12 307 -12 246 -12 c 0
294 154 m 0
 339 154 373 187 379 234 c 1
 379 266 l 1
 373 313 339 345 293 345 c 0
 244 345 209 306 208 250 c 0
 209 194 245 154 294 154 c 0
EndSplineSet
EndChar

StartChar: acircumflex.ss01
Encoding: 65553 -1 256
Width: 604
GlyphClass: 2
Flags: W
AnchorPoint: "Anchor-3" 569 0 basechar 0
AnchorPoint: "Anchor-0" 288 500 basechar 0
LayerCount: 2
Fore
SplineSet
70 565 m 1
 197 712 l 1
 368 712 l 1
 495 565 l 1
 345 565 l 1
 283 622 l 1
 220 565 l 1
 70 565 l 1
246 -12 m 0
 104 -12 20 85 20 250 c 0
 20 415 104 512 246 512 c 0
 305 512 349 490 379 449 c 1
 379 500 l 1
 559 500 l 1
 559 0 l 1
 388 0 l 1
 383 56 l 1
 353 12 307 -12 246 -12 c 0
294 154 m 0
 339 154 373 187 379 234 c 1
 379 266 l 1
 373 313 339 345 293 345 c 0
 244 345 209 306 208 250 c 0
 209 194 245 154 294 154 c 0
EndSplineSet
EndChar

StartChar: adieresis.ss01
Encoding: 65554 -1 257
Width: 604
GlyphClass: 2
Flags: W
AnchorPoint: "Anchor-3" 569 0 basechar 0
AnchorPoint: "Anchor-0" 288 748 basechar 0
LayerCount: 2
Fore
SplineSet
423 569 m 0
 376 569 335 610 335 657 c 0
 335 704 376 745 423 745 c 0
 470 745 511 704 511 657 c 0
 511 610 470 569 423 569 c 0
153 569 m 0
 105 569 65 609 65 657 c 0
 65 705 105 745 153 745 c 0
 201 745 241 705 241 657 c 0
 241 609 201 569 153 569 c 0
246 -12 m 0
 104 -12 20 85 20 250 c 0
 20 415 104 512 246 512 c 0
 305 512 349 490 379 449 c 1
 379 500 l 1
 559 500 l 1
 559 0 l 1
 388 0 l 1
 383 56 l 1
 353 12 307 -12 246 -12 c 0
294 154 m 0
 339 154 373 187 379 234 c 1
 379 266 l 1
 373 313 339 345 293 345 c 0
 244 345 209 306 208 250 c 0
 209 194 245 154 294 154 c 0
EndSplineSet
EndChar

StartChar: agrave.ss01
Encoding: 65555 -1 258
Width: 604
GlyphClass: 2
Flags: W
AnchorPoint: "Anchor-3" 569 0 basechar 0
AnchorPoint: "Anchor-0" 288 500 basechar 0
LayerCount: 2
Fore
SplineSet
230 554 m 1
 98 701 l 1
 288 701 l 1
 400 554 l 1
 230 554 l 1
246 -12 m 0
 104 -12 20 85 20 250 c 0
 20 415 104 512 246 512 c 0
 305 512 349 490 379 449 c 1
 379 500 l 1
 559 500 l 1
 559 0 l 1
 388 0 l 1
 383 56 l 1
 353 12 307 -12 246 -12 c 0
294 154 m 0
 339 154 373 187 379 234 c 1
 379 266 l 1
 373 313 339 345 293 345 c 0
 244 345 209 306 208 250 c 0
 209 194 245 154 294 154 c 0
EndSplineSet
EndChar

StartChar: amacron.ss01
Encoding: 65556 -1 259
Width: 604
GlyphClass: 2
Flags: W
AnchorPoint: "Anchor-3" 569 0 basechar 0
AnchorPoint: "Anchor-0" 288 500 basechar 0
LayerCount: 2
Fore
SplineSet
118 549 m 1
 118 700 l 1
 458 700 l 1
 458 549 l 1
 118 549 l 1
246 -12 m 0
 104 -12 20 85 20 250 c 0
 20 415 104 512 246 512 c 0
 305 512 349 490 379 449 c 1
 379 500 l 1
 559 500 l 1
 559 0 l 1
 388 0 l 1
 383 56 l 1
 353 12 307 -12 246 -12 c 0
294 154 m 0
 339 154 373 187 379 234 c 1
 379 266 l 1
 373 313 339 345 293 345 c 0
 244 345 209 306 208 250 c 0
 209 194 245 154 294 154 c 0
EndSplineSet
EndChar

StartChar: aogonek.ss01
Encoding: 65557 -1 260
Width: 604
GlyphClass: 2
Flags: W
AnchorPoint: "Anchor-3" 569 0 basechar 0
AnchorPoint: "Anchor-0" 288 500 basechar 0
LayerCount: 2
Fore
SplineSet
246 -12 m 0
 104 -12 20 85 20 250 c 0
 20 415 104 512 246 512 c 0
 305 512 349 490 379 449 c 1
 379 500 l 1
 559 500 l 1
 559 0 l 1
 523 -23 503 -52 503 -75 c 0
 503 -86 510 -95 521 -95 c 0
 532 -95 539 -92 546 -88 c 1
 598 -196 l 1
 578 -208 553 -212 520 -212 c 0
 436 -212 364 -170 364 -88 c 0
 364 -49 390 -16 421 0 c 1
 388 0 l 1
 383 56 l 1
 353 12 307 -12 246 -12 c 0
294 154 m 0
 339 154 373 187 379 234 c 1
 379 266 l 1
 373 313 339 345 293 345 c 0
 244 345 209 306 208 250 c 0
 209 194 245 154 294 154 c 0
EndSplineSet
EndChar

StartChar: aring.ss01
Encoding: 65558 -1 261
Width: 604
GlyphClass: 2
Flags: W
AnchorPoint: "Anchor-3" 569 0 basechar 0
AnchorPoint: "Anchor-0" 288 500 basechar 0
LayerCount: 2
Fore
SplineSet
288 520 m 0
 214 520 150 577 150 649 c 0
 150 722 214 779 288 779 c 0
 361 779 425 722 425 649 c 0
 425 577 361 520 288 520 c 0
288 616 m 0
 308 616 320 629 320 649 c 0
 320 670 308 683 288 683 c 0
 267 683 255 670 255 649 c 0
 255 629 267 616 288 616 c 0
246 -12 m 0
 104 -12 20 85 20 250 c 0
 20 415 104 512 246 512 c 0
 305 512 349 490 379 449 c 1
 379 500 l 1
 559 500 l 1
 559 0 l 1
 388 0 l 1
 383 56 l 1
 353 12 307 -12 246 -12 c 0
294 154 m 0
 339 154 373 187 379 234 c 1
 379 266 l 1
 373 313 339 345 293 345 c 0
 244 345 209 306 208 250 c 0
 209 194 245 154 294 154 c 0
EndSplineSet
EndChar

StartChar: atilde.ss01
Encoding: 65559 -1 262
Width: 604
GlyphClass: 2
Flags: W
AnchorPoint: "Anchor-3" 569 0 basechar 0
AnchorPoint: "Anchor-0" 288 700 basechar 0
LayerCount: 2
Fore
SplineSet
369 534 m 0
 268 534 276 606 231 606 c 0
 221 606 208 602 200 567 c 1
 89 567 l 1
 101 673 144 712 225 712 c 0
 334 712 329 640 368 640 c 0
 387 640 391 658 394 679 c 1
 505 679 l 1
 493 586 454 534 369 534 c 0
246 -12 m 0
 104 -12 20 85 20 250 c 0
 20 415 104 512 246 512 c 0
 305 512 349 490 379 449 c 1
 379 500 l 1
 559 500 l 1
 559 0 l 1
 388 0 l 1
 383 56 l 1
 353 12 307 -12 246 -12 c 0
294 154 m 0
 339 154 373 187 379 234 c 1
 379 266 l 1
 373 313 339 345 293 345 c 0
 244 345 209 306 208 250 c 0
 209 194 245 154 294 154 c 0
EndSplineSet
EndChar

StartChar: l.ss02
Encoding: 65560 -1 263
Width: 335
GlyphClass: 2
Flags: W
AnchorPoint: "Anchor-2" 135 0 basechar 0
AnchorPoint: "Anchor-1" 227 700 basechar 0
AnchorPoint: "Anchor-0" 135 700 basechar 0
LayerCount: 2
Fore
SplineSet
219 -12 m 0
 101 -12 45 48 45 158 c 2
 45 700 l 1
 225 700 l 1
 225 207 l 2
 225 173 233 160 253 160 c 0
 260 160 273 166 279 170 c 1
 340 40 l 1
 312 13 262 -12 219 -12 c 0
EndSplineSet
EndChar

StartChar: lacute.ss02
Encoding: 65561 -1 264
Width: 335
GlyphClass: 2
Flags: W
AnchorPoint: "Anchor-2" 135 0 basechar 0
AnchorPoint: "Anchor-1" 227 700 basechar 0
AnchorPoint: "Anchor-0" 135 700 basechar 0
LayerCount: 2
Fore
SplineSet
36 754 m 1
 146 900 l 1
 336 900 l 1
 206 754 l 1
 36 754 l 1
219 -12 m 0
 101 -12 45 48 45 158 c 2
 45 700 l 1
 225 700 l 1
 225 207 l 2
 225 173 233 160 253 160 c 0
 260 160 273 166 279 170 c 1
 340 40 l 1
 312 13 262 -12 219 -12 c 0
EndSplineSet
EndChar

StartChar: lcaron.ss02
Encoding: 65562 -1 265
Width: 335
GlyphClass: 2
Flags: W
AnchorPoint: "Anchor-2" 135 0 basechar 0
AnchorPoint: "Anchor-1" 227 700 basechar 0
AnchorPoint: "Anchor-0" 135 700 basechar 0
LayerCount: 2
Fore
SplineSet
219 -12 m 0
 101 -12 45 48 45 158 c 2
 45 700 l 1
 225 700 l 1
 225 207 l 2
 225 173 233 160 253 160 c 0
 260 160 273 166 279 170 c 1
 340 40 l 1
 312 13 262 -12 219 -12 c 0
242 552 m 1
 265 700 l 1
 415 700 l 1
 372 552 l 1
 242 552 l 1
EndSplineSet
EndChar

StartChar: uni013C.ss02
Encoding: 65563 -1 266
Width: 335
GlyphClass: 2
Flags: W
AnchorPoint: "Anchor-2" 135 0 basechar 0
AnchorPoint: "Anchor-1" 227 700 basechar 0
AnchorPoint: "Anchor-0" 135 700 basechar 0
LayerCount: 2
Fore
SplineSet
219 -12 m 0
 101 -12 45 48 45 158 c 2
 45 700 l 1
 225 700 l 1
 225 207 l 2
 225 173 233 160 253 160 c 0
 260 160 273 166 279 170 c 1
 340 40 l 1
 312 13 262 -12 219 -12 c 0
16 -200 m 1
 62 -40 l 1
 230 -40 l 1
 146 -200 l 1
 16 -200 l 1
EndSplineSet
EndChar

StartChar: lslash.ss02
Encoding: 65564 -1 267
Width: 350
GlyphClass: 2
Flags: W
AnchorPoint: "Anchor-2" 145 0 basechar 0
AnchorPoint: "Anchor-1" 237 700 basechar 0
AnchorPoint: "Anchor-0" 145 700 basechar 0
LayerCount: 2
Fore
SplineSet
0 204 m 1
 0 342 l 1
 55 371 l 1
 55 700 l 1
 235 700 l 1
 235 467 l 1
 290 496 l 1
 290 358 l 1
 235 329 l 1
 235 207 l 2
 235 173 243 160 263 160 c 0
 270 160 283 166 289 170 c 1
 350 40 l 1
 322 13 272 -12 229 -12 c 0
 111 -12 55 48 55 158 c 2
 55 233 l 1
 0 204 l 1
EndSplineSet
EndChar

StartChar: ordfeminine
Encoding: 170 170 268
Width: 343
GlyphClass: 2
Flags: W
AnchorPoint: "Anchor-3" 300 406 basechar 0
AnchorPoint: "Anchor-2" 156 400 basechar 0
AnchorPoint: "Anchor-0" 156 700 basechar 0
LayerCount: 2
Fore
SplineSet
124 393 m 0
 55 393 14 425 14 485 c 0
 14 548 56 576 124 576 c 2
 198 576 l 1
 195 597 186 612 154 612 c 0
 140 612 133 607 120 592 c 1
 14 624 l 1
 43 674 87 707 157 707 c 0
 255 707 315 650 315 570 c 2
 315 400 l 1
 201 400 l 1
 201 430 l 1
 183 406 157 393 124 393 c 0
155 476 m 0
 179 476 195 491 195 510 c 1
 172 510 l 2
 148 510 134 501 134 487 c 0
 134 480 141 476 155 476 c 0
EndSplineSet
EndChar

StartChar: ordmasculine
Encoding: 186 186 269
Width: 359
GlyphClass: 2
Flags: W
AnchorPoint: "Anchor-3" 321 406 basechar 0
AnchorPoint: "Anchor-2" 176 400 basechar 0
AnchorPoint: "Anchor-0" 176 700 basechar 0
LayerCount: 2
Fore
SplineSet
181 393 m 0
 83 393 14 458 14 550 c 0
 14 642 82 707 179 707 c 0
 277 707 345 642 345 550 c 0
 345 458 277 393 181 393 c 0
181 504 m 0
 204 504 222 523 222 550 c 0
 222 577 204 597 179 597 c 0
 155 597 138 577 138 550 c 0
 138 523 155 504 181 504 c 0
EndSplineSet
EndChar

StartChar: zero
Encoding: 48 48 270
Width: 655
GlyphClass: 1
Flags: W
LayerCount: 2
Fore
SplineSet
327 -12 m 0
 150 -12 25 138 25 350 c 0
 25 562 149 712 325 712 c 0
 504 712 630 562 630 350 c 0
 630 138 504 -12 327 -12 c 0
327 156 m 0
 399 156 450 236 450 350 c 0
 450 465 398 546 325 546 c 0
 255 546 205 465 205 350 c 0
 205 236 256 156 327 156 c 0
EndSplineSet
Substitution2: "'ss02' Style Set 2 in Latin lookup 33 subtable" zero.ss02
Substitution2: "'tnum' Tabular Numbers in Latin lookup 30 subtable" zero.tf
Substitution2: "'frac' Diagonal Fractions in Latin lookup 24 subtable" zero.numr
Substitution2: "'dnom' Denominators in Latin lookup 22 subtable" zero.dnom
Substitution2: "'numr' Numerators in Latin lookup 21 subtable" zero.numr
Substitution2: "'sups' Superscript in Latin lookup 20 subtable" uni2070
Substitution2: "'sinf' Scientific Inferiors in Latin lookup 19 subtable" uni2080
Substitution2: "'subs' Subscript in Latin lookup 18 subtable" uni2080
AlternateSubs2: "'aalt' Access All Alternates in Latin lookup 1 subtable" zero.tf zero.dnom zero.numr uni2080 uni2070
EndChar

StartChar: one
Encoding: 49 49 271
Width: 430
GlyphClass: 1
Flags: W
HStem: 0 21G<175 349.042> 682 20G<173.5 194>
VStem: 175 174<0 472>
LayerCount: 2
Fore
SplineSet
175 0 m 1
 175 472 l 1
 132 448 86 435 35 441 c 1
 35 609 l 1
 92 603 153 657 194 702 c 1
 194 473 l 1
 350 473 l 1
 349 0 l 1
 175 0 l 1
EndSplineSet
Substitution2: "'tnum' Tabular Numbers in Latin lookup 30 subtable" one.tf
Substitution2: "'frac' Diagonal Fractions in Latin lookup 24 subtable" one.numr
Substitution2: "'dnom' Denominators in Latin lookup 22 subtable" one.dnom
Substitution2: "'numr' Numerators in Latin lookup 21 subtable" one.numr
Substitution2: "'sups' Superscript in Latin lookup 20 subtable" uni00B9
Substitution2: "'sinf' Scientific Inferiors in Latin lookup 19 subtable" uni2081
Substitution2: "'subs' Subscript in Latin lookup 18 subtable" uni2081
AlternateSubs2: "'aalt' Access All Alternates in Latin lookup 1 subtable" one.tf one.dnom one.numr uni2081 uni00B9
EndChar

StartChar: two
Encoding: 50 50 272
Width: 597
GlyphClass: 1
Flags: W
HStem: 0 162<278 567> 543 170<238.183 352.316>
VStem: 370 190<435.694 527.489>
LayerCount: 2
Fore
SplineSet
45 130 m 1
 45 182 116.707581227 274.454873646 214 337 c 2
 284 382 l 2
 319 405 370 443 370 482 c 0
 370 518 346 543 289 543 c 0
 248 543 220 513 211 477 c 1
 20 508 l 1
 38 616 136 713 289 713 c 0
 458 713 560 620 560 484 c 0
 560 384 498 320 412 264 c 2
 355 227 l 2
 330 211 302 190 278 162 c 1
 567 162 l 1
 567 0 l 1
 271 0 l 1
 271 130 l 1
 45 130 l 1
EndSplineSet
Substitution2: "'tnum' Tabular Numbers in Latin lookup 30 subtable" two.tf
Substitution2: "'frac' Diagonal Fractions in Latin lookup 24 subtable" two.numr
Substitution2: "'dnom' Denominators in Latin lookup 22 subtable" two.dnom
Substitution2: "'numr' Numerators in Latin lookup 21 subtable" two.numr
Substitution2: "'sups' Superscript in Latin lookup 20 subtable" uni00B2
Substitution2: "'sinf' Scientific Inferiors in Latin lookup 19 subtable" uni2082
Substitution2: "'subs' Subscript in Latin lookup 18 subtable" uni2082
AlternateSubs2: "'aalt' Access All Alternates in Latin lookup 1 subtable" two.tf two.dnom two.numr uni2082 uni00B2
EndChar

StartChar: three
Encoding: 51 51 273
Width: 567
GlyphClass: 1
Flags: W
LayerCount: 2
Fore
SplineSet
292 -12 m 0
 150 -12 38 53 20 181 c 1
 198 217 l 1
 206 194 219 147 280 147 c 0
 325 147 351 172 351 212 c 0
 351 242 342 278 250 278 c 2
 188 278 l 1
 188 427 l 1
 250 427 l 2
 324 427 342 453 342 494 c 0
 342 529 316 553 280 553 c 0
 253 553 212 542 202 481 c 1
 25 517 l 1
 43 647 167 712 284 712 c 0
 419 712 527 633 527 514 c 0
 527 438 480 386 415 356 c 1
 487 319 537 259 537 186 c 0
 537 57 416 -12 292 -12 c 0
EndSplineSet
Substitution2: "'tnum' Tabular Numbers in Latin lookup 30 subtable" three.tf
Substitution2: "'frac' Diagonal Fractions in Latin lookup 24 subtable" three.numr
Substitution2: "'dnom' Denominators in Latin lookup 22 subtable" three.dnom
Substitution2: "'numr' Numerators in Latin lookup 21 subtable" three.numr
Substitution2: "'sups' Superscript in Latin lookup 20 subtable" uni00B3
Substitution2: "'sinf' Scientific Inferiors in Latin lookup 19 subtable" uni2083
Substitution2: "'subs' Subscript in Latin lookup 18 subtable" uni2083
AlternateSubs2: "'aalt' Access All Alternates in Latin lookup 1 subtable" three.tf three.dnom three.numr uni2083 uni00B3
EndChar

StartChar: four
Encoding: 52 52 274
Width: 645
GlyphClass: 1
Flags: W
HStem: 0 21G<338 512> 108 157<192 338 512 615> 680 20G<298.366 512>
VStem: 338 174<0 108 265 479>
LayerCount: 2
Fore
SplineSet
338 0 m 1
 338 108 l 1
 192 108 l 1
 192 257 l 5
 10 257 l 1
 312 700 l 1
 512 700 l 1
 512 265 l 1
 615 265 l 1
 615 108 l 1
 512 108 l 1
 512 0 l 1
 338 0 l 1
192 265 m 1
 338 265 l 1
 338 479 l 1
 192 265 l 1
EndSplineSet
Substitution2: "'tnum' Tabular Numbers in Latin lookup 30 subtable" four.tf
Substitution2: "'frac' Diagonal Fractions in Latin lookup 24 subtable" four.numr
Substitution2: "'dnom' Denominators in Latin lookup 22 subtable" four.dnom
Substitution2: "'numr' Numerators in Latin lookup 21 subtable" four.numr
Substitution2: "'sups' Superscript in Latin lookup 20 subtable" uni2074
Substitution2: "'sinf' Scientific Inferiors in Latin lookup 19 subtable" uni2084
Substitution2: "'subs' Subscript in Latin lookup 18 subtable" uni2084
AlternateSubs2: "'aalt' Access All Alternates in Latin lookup 1 subtable" four.tf four.dnom four.numr uni2084 uni2074
EndChar

StartChar: five
Encoding: 53 53 275
Width: 587
GlyphClass: 1
Flags: W
HStem: -12 160<227.324 339.646> 308 136<251.151 339.005> 532 168<254 515>
VStem: 254 261<532 700> 364 193<171.876 282.438>
LayerCount: 2
Fore
SplineSet
296 -12 m 0xe8
 186 -12 58 49 30 153 c 1
 209 189 l 1
 220 161 251 148 283 148 c 0
 331 148 364 179 364 228 c 0xe8
 364 271 332 308 282 308 c 0
 248 308 226 289 215 269 c 1
 49 305 l 1
 77.7341772152 532 l 1
 254 532 l 1
 254 700 l 1
 515 700 l 1
 515 532 l 1
 254 532 l 1xf0
 234 414 l 1
 269 433 312 445 365 444 c 0
 467 441 557 359 557 239 c 0
 557 90 449 -12 296 -12 c 0xe8
EndSplineSet
Substitution2: "'tnum' Tabular Numbers in Latin lookup 30 subtable" five.tf
Substitution2: "'frac' Diagonal Fractions in Latin lookup 24 subtable" five.numr
Substitution2: "'dnom' Denominators in Latin lookup 22 subtable" five.dnom
Substitution2: "'numr' Numerators in Latin lookup 21 subtable" five.numr
Substitution2: "'sups' Superscript in Latin lookup 20 subtable" uni2075
Substitution2: "'sinf' Scientific Inferiors in Latin lookup 19 subtable" uni2085
Substitution2: "'subs' Subscript in Latin lookup 18 subtable" uni2085
AlternateSubs2: "'aalt' Access All Alternates in Latin lookup 1 subtable" five.tf five.dnom five.numr uni2085 uni2075
EndChar

StartChar: six
Encoding: 54 54 276
Width: 593
GlyphClass: 1
Flags: W
LayerCount: 2
Fore
SplineSet
299 -12 m 0
 116 -12 30 124 30 305 c 0
 30 498 100 712 332 712 c 0
 410 712 483 690 541 650 c 1
 454 514 l 1
 413 541 363 551 330 551 c 0
 271 551 224 509 208 406 c 1
 241 438 284 457 337 457 c 0
 469 457 563 348 563 214 c 0
 563 85 462 -12 299 -12 c 0
300 142 m 0
 344 142 379 178 379 224 c 0
 379 271 344 310 300 310 c 0
 255 310 219 271 219 224 c 0
 219 178 255 142 300 142 c 0
EndSplineSet
Substitution2: "'tnum' Tabular Numbers in Latin lookup 30 subtable" six.tf
Substitution2: "'frac' Diagonal Fractions in Latin lookup 24 subtable" six.numr
Substitution2: "'dnom' Denominators in Latin lookup 22 subtable" six.dnom
Substitution2: "'numr' Numerators in Latin lookup 21 subtable" six.numr
Substitution2: "'sups' Superscript in Latin lookup 20 subtable" uni2076
Substitution2: "'sinf' Scientific Inferiors in Latin lookup 19 subtable" uni2086
Substitution2: "'subs' Subscript in Latin lookup 18 subtable" uni2086
AlternateSubs2: "'aalt' Access All Alternates in Latin lookup 1 subtable" six.tf six.dnom six.numr uni2086 uni2076
EndChar

StartChar: seven
Encoding: 55 55 277
Width: 573
GlyphClass: 1
Flags: W
HStem: 0 21G<104 317.211> 530 170<25 337>
LayerCount: 2
Fore
SplineSet
104 0 m 1
 337 530 l 1
 25 530 l 1
 25 700 l 1
 337 700 l 1
 337 570 l 1
 543 570 l 1
 309 0 l 1
 104 0 l 1
EndSplineSet
Substitution2: "'tnum' Tabular Numbers in Latin lookup 30 subtable" seven.tf
Substitution2: "'frac' Diagonal Fractions in Latin lookup 24 subtable" seven.numr
Substitution2: "'dnom' Denominators in Latin lookup 22 subtable" seven.dnom
Substitution2: "'numr' Numerators in Latin lookup 21 subtable" seven.numr
Substitution2: "'sups' Superscript in Latin lookup 20 subtable" uni2077
Substitution2: "'sinf' Scientific Inferiors in Latin lookup 19 subtable" uni2087
Substitution2: "'subs' Subscript in Latin lookup 18 subtable" uni2087
AlternateSubs2: "'aalt' Access All Alternates in Latin lookup 1 subtable" seven.tf seven.dnom seven.numr uni2087 uni2077
EndChar

StartChar: eight
Encoding: 56 56 278
Width: 610
GlyphClass: 1
Flags: W
LayerCount: 2
Fore
SplineSet
304 -12 m 0
 119 -12 30 67 30 182 c 0
 30 266 69 332 148 368 c 1
 83 400 50 454 50 522 c 0
 50 634 138 712 304 712 c 0
 470 712 560 634 560 522 c 0
 560 454 526 400 461 368 c 1
 541 332 580 266 580 182 c 0
 580 67 489 -12 304 -12 c 0
304 427 m 0
 348 427 380 457 380 499 c 0
 380 539 348 567 304 567 c 0
 260 567 230 539 230 499 c 0
 230 457 260 427 304 427 c 0
304 140 m 0
 354 140 390 169 390 209 c 0
 390 257 354 290 304 290 c 0
 255 290 220 257 220 209 c 0
 220 169 255 140 304 140 c 0
EndSplineSet
Substitution2: "'tnum' Tabular Numbers in Latin lookup 30 subtable" eight.tf
Substitution2: "'frac' Diagonal Fractions in Latin lookup 24 subtable" eight.numr
Substitution2: "'dnom' Denominators in Latin lookup 22 subtable" eight.dnom
Substitution2: "'numr' Numerators in Latin lookup 21 subtable" eight.numr
Substitution2: "'sups' Superscript in Latin lookup 20 subtable" uni2078
Substitution2: "'sinf' Scientific Inferiors in Latin lookup 19 subtable" uni2088
Substitution2: "'subs' Subscript in Latin lookup 18 subtable" uni2088
AlternateSubs2: "'aalt' Access All Alternates in Latin lookup 1 subtable" eight.tf eight.dnom eight.numr uni2088 uni2078
EndChar

StartChar: nine
Encoding: 57 57 279
Width: 593
GlyphClass: 1
Flags: W
LayerCount: 2
Fore
SplineSet
294 711 m 0
 477 711 563 575 563 394 c 0
 563 201 493 -13 261 -13 c 0
 183 -13 110 9 52 49 c 1
 139 185 l 1
 180 158 230 148 263 148 c 0
 322 148 369 190 385 293 c 1
 352 261 309 242 256 242 c 0
 124 242 30 351 30 485 c 0
 30 614 131 711 294 711 c 0
293 557 m 0
 249 557 214 521 214 475 c 0
 214 428 249 389 293 389 c 0
 338 389 374 428 374 475 c 0
 374 521 338 557 293 557 c 0
EndSplineSet
Substitution2: "'tnum' Tabular Numbers in Latin lookup 30 subtable" nine.tf
Substitution2: "'frac' Diagonal Fractions in Latin lookup 24 subtable" nine.numr
Substitution2: "'dnom' Denominators in Latin lookup 22 subtable" nine.dnom
Substitution2: "'numr' Numerators in Latin lookup 21 subtable" nine.numr
Substitution2: "'sups' Superscript in Latin lookup 20 subtable" uni2079
Substitution2: "'sinf' Scientific Inferiors in Latin lookup 19 subtable" uni2089
Substitution2: "'subs' Subscript in Latin lookup 18 subtable" uni2089
AlternateSubs2: "'aalt' Access All Alternates in Latin lookup 1 subtable" nine.tf nine.dnom nine.numr uni2089 uni2079
EndChar

StartChar: zero.ss02
Encoding: 65565 -1 280
Width: 655
GlyphClass: 1
Flags: W
LayerCount: 2
Fore
SplineSet
327 -12 m 0
 150 -12 25 138 25 350 c 0
 25 562 149 712 325 712 c 0
 504 712 630 562 630 350 c 0
 630 138 504 -12 327 -12 c 0
205 350 m 0
 205 333 206 317 208 301 c 1
 393 517 l 1
 374 536 351 546 325 546 c 0
 255 546 205 465 205 350 c 0
327 156 m 0
 399 156 450 236 450 350 c 0
 450 368 449 386 446 402 c 1
 260 185 l 1
 279 166 301 156 327 156 c 0
EndSplineSet
EndChar

StartChar: zero.tf
Encoding: 65566 -1 281
Width: 640
GlyphClass: 1
Flags: W
LayerCount: 2
Fore
SplineSet
319 -12 m 0
 142 -12 17 138 17 350 c 0
 17 562 141 712 317 712 c 0
 496 712 622 562 622 350 c 0
 622 138 496 -12 319 -12 c 0
319 156 m 0
 391 156 442 236 442 350 c 0
 442 465 390 546 317 546 c 0
 247 546 197 465 197 350 c 0
 197 236 248 156 319 156 c 0
EndSplineSet
Substitution2: "'ss02' Style Set 2 in Latin lookup 33 subtable" zero.tf.ss02
Substitution2: "'pnum' Proportional Numbers in Latin lookup 29 subtable" zero
Substitution2: "'aalt' Access All Alternates in Latin lookup 0 subtable" zero
EndChar

StartChar: one.tf
Encoding: 65567 -1 282
Width: 640
GlyphClass: 1
Flags: W
LayerCount: 2
Fore
SplineSet
131 0 m 1
 131 162 l 1
 271 162 l 1
 271 472 l 1
 228 448 182 435 131 441 c 1
 131 609 l 1
 188 603 249 657 290 702 c 1
 292 700 l 1
 446 700 l 1
 446 162 l 1
 586 162 l 1
 586 0 l 1
 131 0 l 1
EndSplineSet
Substitution2: "'pnum' Proportional Numbers in Latin lookup 29 subtable" one
Substitution2: "'aalt' Access All Alternates in Latin lookup 0 subtable" one
EndChar

StartChar: two.tf
Encoding: 65568 -1 283
Width: 640
GlyphClass: 1
Flags: W
LayerCount: 2
Fore
SplineSet
71 0 m 1
 71 130 l 2
 71 182 143 274 240 337 c 2
 310 382 l 2
 345 405 396 443 396 482 c 0
 396 518 372 543 315 543 c 0
 274 543 246 513 237 477 c 1
 46 508 l 1
 64 616 162 713 315 713 c 0
 484 713 586 620 586 484 c 0
 586 384 524 320 438 264 c 2
 381 227 l 2
 356 211 328 190 304 162 c 1
 593 162 l 1
 593 0 l 1
 71 0 l 1
EndSplineSet
Substitution2: "'pnum' Proportional Numbers in Latin lookup 29 subtable" two
Substitution2: "'aalt' Access All Alternates in Latin lookup 0 subtable" two
EndChar

StartChar: three.tf
Encoding: 65569 -1 284
Width: 640
GlyphClass: 1
Flags: W
LayerCount: 2
Fore
SplineSet
328 -12 m 0
 186 -12 74 53 56 181 c 1
 234 217 l 1
 242 194 255 147 316 147 c 0
 361 147 387 172 387 212 c 0
 387 242 378 278 286 278 c 2
 224 278 l 1
 224 427 l 1
 286 427 l 2
 360 427 378 453 378 494 c 0
 378 529 352 553 316 553 c 0
 289 553 248 542 238 481 c 1
 61 517 l 1
 79 647 203 712 320 712 c 0
 455 712 563 633 563 514 c 0
 563 438 516 386 451 356 c 1
 523 319 573 259 573 186 c 0
 573 57 452 -12 328 -12 c 0
EndSplineSet
Substitution2: "'pnum' Proportional Numbers in Latin lookup 29 subtable" three
Substitution2: "'aalt' Access All Alternates in Latin lookup 0 subtable" three
EndChar

StartChar: four.tf
Encoding: 65570 -1 285
Width: 640
GlyphClass: 1
Flags: W
LayerCount: 2
Fore
SplineSet
12 108 m 1
 12 257 l 1
 309 700 l 1
 310 699 l 1
 310 700 l 1
 506 700 l 1
 506 265 l 1
 607 265 l 1
 607 108 l 1
 506 108 l 1
 506 0 l 1
 334 0 l 1
 334 108 l 1
 12 108 l 1
191 265 m 1
 334 265 l 1
 334 479 l 1
 191 265 l 1
EndSplineSet
Substitution2: "'pnum' Proportional Numbers in Latin lookup 29 subtable" four
Substitution2: "'aalt' Access All Alternates in Latin lookup 0 subtable" four
EndChar

StartChar: five.tf
Encoding: 65571 -1 286
Width: 640
GlyphClass: 1
Flags: W
LayerCount: 2
Fore
SplineSet
322 -12 m 0
 212 -12 84 49 56 153 c 1
 235 189 l 1
 246 161 277 148 309 148 c 0
 357 148 390 179 390 228 c 0
 390 271 358 308 308 308 c 0
 274 308 252 289 241 269 c 1
 75 305 l 1
 125 700 l 1
 541 700 l 1
 541 532 l 1
 280 532 l 1
 260 414 l 1
 295 433 338 445 391 444 c 0
 493 441 583 359 583 239 c 0
 583 90 475 -12 322 -12 c 0
EndSplineSet
Substitution2: "'pnum' Proportional Numbers in Latin lookup 29 subtable" five
Substitution2: "'aalt' Access All Alternates in Latin lookup 0 subtable" five
EndChar

StartChar: six.tf
Encoding: 65572 -1 287
Width: 640
GlyphClass: 1
Flags: W
LayerCount: 2
Fore
SplineSet
322 -12 m 0
 139 -12 53 124 53 305 c 0
 53 498 123 712 355 712 c 0
 433 712 506 690 564 650 c 1
 477 514 l 1
 436 541 386 551 353 551 c 0
 294 551 247 509 231 406 c 1
 264 438 307 457 360 457 c 0
 492 457 586 348 586 214 c 0
 586 85 485 -12 322 -12 c 0
323 142 m 0
 367 142 402 178 402 224 c 0
 402 271 367 310 323 310 c 0
 278 310 242 271 242 224 c 0
 242 178 278 142 323 142 c 0
EndSplineSet
Substitution2: "'pnum' Proportional Numbers in Latin lookup 29 subtable" six
Substitution2: "'aalt' Access All Alternates in Latin lookup 0 subtable" six
EndChar

StartChar: seven.tf
Encoding: 65573 -1 288
Width: 640
GlyphClass: 1
Flags: W
LayerCount: 2
Fore
SplineSet
138 0 m 1
 371 530 l 1
 59 530 l 1
 59 700 l 1
 577 700 l 1
 577 570 l 1
 343 0 l 1
 138 0 l 1
EndSplineSet
Substitution2: "'pnum' Proportional Numbers in Latin lookup 29 subtable" seven
Substitution2: "'aalt' Access All Alternates in Latin lookup 0 subtable" seven
EndChar

StartChar: eight.tf
Encoding: 65574 -1 289
Width: 640
GlyphClass: 1
Flags: W
LayerCount: 2
Fore
SplineSet
319 -12 m 0
 134 -12 45 67 45 182 c 0
 45 266 84 332 163 368 c 1
 98 400 65 454 65 522 c 0
 65 634 153 712 319 712 c 0
 485 712 575 634 575 522 c 0
 575 454 541 400 476 368 c 1
 556 332 595 266 595 182 c 0
 595 67 504 -12 319 -12 c 0
319 427 m 0
 363 427 395 457 395 499 c 0
 395 539 363 567 319 567 c 0
 275 567 245 539 245 499 c 0
 245 457 275 427 319 427 c 0
319 140 m 0
 369 140 405 169 405 209 c 0
 405 257 369 290 319 290 c 0
 270 290 235 257 235 209 c 0
 235 169 270 140 319 140 c 0
EndSplineSet
Substitution2: "'pnum' Proportional Numbers in Latin lookup 29 subtable" eight
Substitution2: "'aalt' Access All Alternates in Latin lookup 0 subtable" eight
EndChar

StartChar: nine.tf
Encoding: 65575 -1 290
Width: 640
GlyphClass: 1
Flags: W
LayerCount: 2
Fore
SplineSet
318 711 m 0
 501 711 587 575 587 394 c 0
 587 201 517 -13 285 -13 c 0
 207 -13 134 9 76 49 c 1
 163 185 l 1
 204 158 254 148 287 148 c 0
 346 148 393 190 409 293 c 1
 376 261 333 242 280 242 c 0
 148 242 54 351 54 485 c 0
 54 614 155 711 318 711 c 0
317 557 m 0
 273 557 238 521 238 475 c 0
 238 428 273 389 317 389 c 0
 362 389 398 428 398 475 c 0
 398 521 362 557 317 557 c 0
EndSplineSet
Substitution2: "'pnum' Proportional Numbers in Latin lookup 29 subtable" nine
Substitution2: "'aalt' Access All Alternates in Latin lookup 0 subtable" nine
EndChar

StartChar: zero.tf.ss02
Encoding: 65576 -1 291
Width: 640
GlyphClass: 1
Flags: W
LayerCount: 2
Fore
SplineSet
319 -12 m 0
 142 -12 17 138 17 350 c 0
 17 562 141 712 317 712 c 0
 496 712 622 562 622 350 c 0
 622 138 496 -12 319 -12 c 0
197 350 m 0
 197 330 199 311 202 293 c 1
 390 513 l 1
 370 534 345 546 317 546 c 0
 247 546 197 465 197 350 c 0
319 156 m 0
 391 156 442 236 442 350 c 0
 442 365 441 380 439 394 c 1
 256 181 l 1
 274 165 295 156 319 156 c 0
EndSplineSet
EndChar

StartChar: zero.dnom
Encoding: 65577 -1 292
Width: 406
GlyphClass: 1
Flags: W
LayerCount: 2
Fore
SplineSet
203 -6 m 0
 95 -6 18 82 18 211 c 0
 18 340 95 428 202 428 c 0
 311 428 388 340 388 211 c 0
 388 82 312 -6 203 -6 c 0
203 106 m 0
 241 106 268 149 268 211 c 0
 268 273 241 318 202 318 c 0
 168 318 144 273 144 211 c 0
 144 150 168 106 203 106 c 0
EndSplineSet
EndChar

StartChar: one.dnom
Encoding: 65578 -1 293
Width: 279
GlyphClass: 1
Flags: W
LayerCount: 2
Fore
SplineSet
107 0 m 1
 107 270 l 1
 81 257 54 252 25 255 c 1
 25 367 l 1
 58 363 91 390 120 421 c 1
 121 420 l 1
 223 420 l 1
 223 0 l 1
 107 0 l 1
EndSplineSet
EndChar

StartChar: two.dnom
Encoding: 65579 -1 294
Width: 372
GlyphClass: 1
Flags: W
LayerCount: 2
Fore
SplineSet
29 0 m 1
 29 85 l 2
 29 114 76 173 137 211 c 2
 169 231 l 2
 190 244 221 264 221 286 c 0
 221 303 210 315 179 315 c 0
 161 315 146 301 141 281 c 1
 14 301 l 1
 24 368 85 428 180 428 c 0
 285 428 347 371 347 287 c 0
 347 222 307 186 255 153 c 2
 220 131 l 2
 211 125 200 117 190 108 c 1
 351 108 l 1
 351 0 l 1
 29 0 l 1
EndSplineSet
EndChar

StartChar: three.dnom
Encoding: 65580 -1 295
Width: 355
GlyphClass: 1
Flags: W
LayerCount: 2
Fore
SplineSet
185 -6 m 0
 96 -6 23 34 14 120 c 1
 134 141 l 1
 137 128 142 99 177 99 c 0
 197 99 210 110 210 130 c 0
 210 140 213 161 162 161 c 2
 119 161 l 1
 119 259 l 1
 162 259 l 2
 201 259 206 273 206 294 c 0
 206 311 193 323 177 323 c 0
 159 323 139 313 136 279 c 1
 17 300 l 1
 25 386 106 428 179 428 c 0
 261 428 329 381 329 308 c 0
 329 262 300 231 261 212 c 1
 304 190 334 155 334 112 c 0
 334 34 259 -6 185 -6 c 0
EndSplineSet
EndChar

StartChar: four.dnom
Encoding: 65581 -1 296
Width: 398
GlyphClass: 1
Flags: W
LayerCount: 2
Fore
SplineSet
7 57 m 1
 7 157 l 1
 186 420 l 1
 187 419 l 1
 187 420 l 1
 320 420 l 1
 320 161 l 1
 377 161 l 1
 377 57 l 1
 320 57 l 1
 320 0 l 1
 204 0 l 1
 204 57 l 1
 7 57 l 1
127 161 m 1
 204 161 l 1
 204 275 l 1
 127 161 l 1
EndSplineSet
EndChar

StartChar: five.dnom
Encoding: 65582 -1 297
Width: 365
GlyphClass: 1
Flags: W
LayerCount: 2
Fore
SplineSet
185 -7 m 0
 117 -7 35 32 21 97 c 1
 142 119 l 1
 144 106 159 99 176 99 c 0
 199 99 215 114 215 138 c 0
 215 158 200 178 175 178 c 0
 159 178 148 170 142 156 c 1
 31 180 l 1
 63 420 l 1
 318 420 l 1
 318 308 l 1
 165 308 l 1
 155 250 l 1
 175 261 201 268 233 267 c 0
 291 265 344 217 344 146 c 0
 344 55 278 -7 185 -7 c 0
EndSplineSet
EndChar

StartChar: six.dnom
Encoding: 65583 -1 298
Width: 367
GlyphClass: 1
Flags: W
LayerCount: 2
Fore
SplineSet
184 -7 m 0
 76 -7 21 72 21 180 c 0
 21 290 59 427 206 427 c 0
 254 427 298 414 333 390 c 1
 276 299 l 1
 252 315 222 320 204 320 c 0
 176 320 151 301 141 251 c 1
 160 267 183 276 211 276 c 0
 290 276 346 208 346 129 c 0
 346 52 285 -7 184 -7 c 0
185 95 m 0
 206 95 224 114 224 136 c 0
 224 158 206 179 185 179 c 0
 164 179 145 159 145 136 c 0
 145 113 164 95 185 95 c 0
EndSplineSet
EndChar

StartChar: seven.dnom
Encoding: 65584 -1 299
Width: 356
GlyphClass: 1
Flags: W
LayerCount: 2
Fore
SplineSet
70 0 m 1
 196 307 l 1
 18 307 l 1
 18 420 l 1
 335 420 l 1
 335 335 l 1
 207 0 l 1
 70 0 l 1
EndSplineSet
EndChar

StartChar: eight.dnom
Encoding: 65585 -1 300
Width: 378
GlyphClass: 1
Flags: W
LayerCount: 2
Fore
SplineSet
188 -7 m 0
 74 -7 21 40 21 109 c 0
 21 159 43 199 91 221 c 1
 52 240 32 273 32 313 c 0
 32 380 85 427 188 427 c 0
 292 427 345 380 345 313 c 0
 345 273 325 240 286 221 c 1
 334 199 357 159 357 109 c 0
 357 40 302 -7 188 -7 c 0
188 260 m 0
 210 260 226 276 226 298 c 0
 226 317 210 332 188 332 c 0
 166 332 152 317 152 298 c 0
 152 276 166 260 188 260 c 0
188 93 m 0
 212 93 230 108 230 128 c 0
 230 153 212 170 188 170 c 0
 165 170 148 153 148 128 c 0
 148 108 165 93 188 93 c 0
EndSplineSet
EndChar

StartChar: nine.dnom
Encoding: 65586 -1 301
Width: 367
GlyphClass: 1
Flags: W
LayerCount: 2
Fore
SplineSet
161 -8 m 0
 114 -8 69 5 34 29 c 1
 91 120 l 1
 115 104 147 99 163 99 c 0
 190 99 215 116 225 168 c 1
 208 153 185 143 156 143 c 0
 77 143 21 211 21 291 c 0
 21 367 82 427 183 427 c 0
 291 427 346 347 346 239 c 0
 346 130 308 -8 161 -8 c 0
182 240 m 0
 203 240 222 261 222 284 c 0
 222 306 203 325 182 325 c 0
 161 325 143 306 143 284 c 0
 143 261 161 240 182 240 c 0
EndSplineSet
EndChar

StartChar: zero.numr
Encoding: 65587 -1 302
Width: 406
GlyphClass: 1
Flags: W
LayerCount: 2
Fore
SplineSet
203 273 m 0
 95 273 18 361 18 490 c 0
 18 619 95 707 202 707 c 0
 311 707 388 619 388 490 c 0
 388 361 312 273 203 273 c 0
203 385 m 0
 241 385 268 428 268 490 c 0
 268 552 241 597 202 597 c 0
 168 597 144 552 144 490 c 0
 144 429 168 385 203 385 c 0
EndSplineSet
Substitution2: "Single Substitution lookup 26 subtable" zero.dnom
Substitution2: "'aalt' Access All Alternates in Latin lookup 0 subtable" zero.dnom
EndChar

StartChar: one.numr
Encoding: 65588 -1 303
Width: 279
GlyphClass: 1
Flags: W
LayerCount: 2
Fore
SplineSet
107 280 m 1
 107 550 l 1
 81 537 54 532 25 535 c 1
 25 647 l 1
 58 643 91 670 120 701 c 1
 121 700 l 1
 223 700 l 1
 223 280 l 1
 107 280 l 1
EndSplineSet
Substitution2: "Single Substitution lookup 26 subtable" one.dnom
Substitution2: "'aalt' Access All Alternates in Latin lookup 0 subtable" one.dnom
EndChar

StartChar: two.numr
Encoding: 65589 -1 304
Width: 372
GlyphClass: 1
Flags: W
LayerCount: 2
Fore
SplineSet
29 280 m 1
 29 365 l 2
 29 394 76 453 137 491 c 2
 169 511 l 2
 190 524 221 544 221 566 c 0
 221 583 210 595 179 595 c 0
 161 595 146 581 141 561 c 1
 14 581 l 1
 24 648 85 708 180 708 c 0
 285 708 347 651 347 567 c 0
 347 502 307 466 255 433 c 2
 220 411 l 2
 211 405 200 397 190 388 c 1
 351 388 l 1
 351 280 l 1
 29 280 l 1
EndSplineSet
Substitution2: "Single Substitution lookup 26 subtable" two.dnom
Substitution2: "'aalt' Access All Alternates in Latin lookup 0 subtable" two.dnom
EndChar

StartChar: three.numr
Encoding: 65590 -1 305
Width: 355
GlyphClass: 1
Flags: W
LayerCount: 2
Fore
SplineSet
185 273 m 0
 96 273 23 313 14 399 c 1
 134 420 l 1
 137 407 142 378 177 378 c 0
 197 378 210 389 210 409 c 0
 210 419 213 440 162 440 c 2
 119 440 l 1
 119 538 l 1
 162 538 l 2
 201 538 206 552 206 573 c 0
 206 590 193 602 177 602 c 0
 159 602 139 592 136 558 c 1
 17 579 l 1
 25 665 106 707 179 707 c 0
 261 707 329 660 329 587 c 0
 329 541 300 510 261 491 c 1
 304 469 334 434 334 391 c 0
 334 313 259 273 185 273 c 0
EndSplineSet
Substitution2: "Single Substitution lookup 26 subtable" three.dnom
Substitution2: "'aalt' Access All Alternates in Latin lookup 0 subtable" three.dnom
EndChar

StartChar: four.numr
Encoding: 65591 -1 306
Width: 398
GlyphClass: 1
Flags: W
LayerCount: 2
Fore
SplineSet
7 337 m 1
 7 437 l 1
 186 700 l 1
 187 699 l 1
 187 700 l 1
 320 700 l 1
 320 441 l 1
 377 441 l 1
 377 337 l 1
 320 337 l 1
 320 280 l 1
 204 280 l 1
 204 337 l 1
 7 337 l 1
127 441 m 1
 204 441 l 1
 204 555 l 1
 127 441 l 1
EndSplineSet
Substitution2: "Single Substitution lookup 26 subtable" four.dnom
Substitution2: "'aalt' Access All Alternates in Latin lookup 0 subtable" four.dnom
EndChar

StartChar: five.numr
Encoding: 65592 -1 307
Width: 365
GlyphClass: 1
Flags: W
LayerCount: 2
Fore
SplineSet
185 273 m 0
 117 273 35 312 21 377 c 1
 142 399 l 1
 144 386 159 379 176 379 c 0
 199 379 215 394 215 418 c 0
 215 438 200 458 175 458 c 0
 159 458 148 450 142 436 c 1
 31 460 l 1
 63 700 l 1
 318 700 l 1
 318 588 l 1
 165 588 l 1
 155 530 l 1
 175 541 201 548 233 547 c 0
 291 545 344 497 344 426 c 0
 344 335 278 273 185 273 c 0
EndSplineSet
Substitution2: "Single Substitution lookup 26 subtable" five.dnom
Substitution2: "'aalt' Access All Alternates in Latin lookup 0 subtable" five.dnom
EndChar

StartChar: six.numr
Encoding: 65593 -1 308
Width: 367
GlyphClass: 1
Flags: W
LayerCount: 2
Fore
SplineSet
184 273 m 0
 76 273 21 352 21 460 c 0
 21 570 59 707 206 707 c 0
 254 707 298 694 333 670 c 1
 276 579 l 1
 252 595 222 600 204 600 c 0
 176 600 151 581 141 531 c 1
 160 547 183 556 211 556 c 0
 290 556 346 488 346 409 c 0
 346 332 285 273 184 273 c 0
185 375 m 0
 206 375 224 394 224 416 c 0
 224 438 206 459 185 459 c 0
 164 459 145 439 145 416 c 0
 145 393 164 375 185 375 c 0
EndSplineSet
Substitution2: "Single Substitution lookup 26 subtable" six.dnom
Substitution2: "'aalt' Access All Alternates in Latin lookup 0 subtable" six.dnom
EndChar

StartChar: seven.numr
Encoding: 65594 -1 309
Width: 356
GlyphClass: 1
Flags: W
LayerCount: 2
Fore
SplineSet
70 280 m 1
 196 587 l 1
 18 587 l 1
 18 700 l 1
 335 700 l 1
 335 615 l 1
 207 280 l 1
 70 280 l 1
EndSplineSet
Substitution2: "Single Substitution lookup 26 subtable" seven.dnom
Substitution2: "'aalt' Access All Alternates in Latin lookup 0 subtable" seven.dnom
EndChar

StartChar: eight.numr
Encoding: 65595 -1 310
Width: 378
GlyphClass: 1
Flags: W
LayerCount: 2
Fore
SplineSet
188 273 m 0
 74 273 21 320 21 389 c 0
 21 439 43 479 91 501 c 1
 52 520 32 553 32 593 c 0
 32 660 85 707 188 707 c 0
 292 707 345 660 345 593 c 0
 345 553 325 520 286 501 c 1
 334 479 357 439 357 389 c 0
 357 320 302 273 188 273 c 0
188 540 m 0
 210 540 226 556 226 578 c 0
 226 597 210 612 188 612 c 0
 166 612 152 597 152 578 c 0
 152 556 166 540 188 540 c 0
188 373 m 0
 212 373 230 388 230 408 c 0
 230 433 212 450 188 450 c 0
 165 450 148 433 148 408 c 0
 148 388 165 373 188 373 c 0
EndSplineSet
Substitution2: "Single Substitution lookup 26 subtable" eight.dnom
Substitution2: "'aalt' Access All Alternates in Latin lookup 0 subtable" eight.dnom
EndChar

StartChar: nine.numr
Encoding: 65596 -1 311
Width: 367
GlyphClass: 1
Flags: W
LayerCount: 2
Fore
SplineSet
161 272 m 0
 114 272 69 285 34 309 c 1
 91 400 l 1
 115 384 147 379 163 379 c 0
 190 379 215 396 225 448 c 1
 208 433 185 423 156 423 c 0
 77 423 21 491 21 571 c 0
 21 647 82 707 183 707 c 0
 291 707 346 627 346 519 c 0
 346 410 308 272 161 272 c 0
182 520 m 0
 203 520 222 541 222 564 c 0
 222 586 203 605 182 605 c 0
 161 605 143 586 143 564 c 0
 143 541 161 520 182 520 c 0
EndSplineSet
Substitution2: "Single Substitution lookup 26 subtable" nine.dnom
Substitution2: "'aalt' Access All Alternates in Latin lookup 0 subtable" nine.dnom
EndChar

StartChar: fraction
Encoding: 8260 8260 312
Width: 226
GlyphClass: 1
Flags: W
LayerCount: 2
Fore
SplineSet
-185 0 m 1
 296 700 l 1
 411 700 l 1
 -70 0 l 1
 -185 0 l 1
EndSplineSet
EndChar

StartChar: onehalf
Encoding: 189 189 313
Width: 877
GlyphClass: 1
Flags: W
LayerCount: 2
Fore
SplineSet
107 280 m 1
 107 550 l 1
 81 537 54 532 25 535 c 1
 25 647 l 1
 58 643 91 670 120 701 c 1
 121 700 l 1
 223 700 l 1
 223 280 l 1
 107 280 l 1
94 0 m 1
 575 700 l 1
 690 700 l 1
 209 0 l 1
 94 0 l 1
534 0 m 1
 534 85 l 2
 534 114 581 173 642 211 c 2
 674 231 l 2
 695 244 726 264 726 286 c 0
 726 303 715 315 684 315 c 0
 666 315 651 301 646 281 c 1
 519 301 l 1
 529 368 590 428 685 428 c 0
 790 428 852 371 852 287 c 0
 852 222 812 186 760 153 c 2
 725 131 l 2
 716 125 705 117 695 108 c 1
 856 108 l 1
 856 0 l 1
 534 0 l 1
EndSplineSet
EndChar

StartChar: onequarter
Encoding: 188 188 314
Width: 848
GlyphClass: 1
Flags: W
LayerCount: 2
Fore
SplineSet
107 280 m 1
 107 550 l 1
 81 537 54 532 25 535 c 1
 25 647 l 1
 58 643 91 670 120 701 c 1
 121 700 l 1
 223 700 l 1
 223 280 l 1
 107 280 l 1
94 0 m 1
 575 700 l 1
 690 700 l 1
 209 0 l 1
 94 0 l 1
457 57 m 1
 457 157 l 1
 636 420 l 1
 637 419 l 1
 637 420 l 1
 770 420 l 1
 770 161 l 1
 827 161 l 1
 827 57 l 1
 770 57 l 1
 770 0 l 1
 654 0 l 1
 654 57 l 1
 457 57 l 1
577 161 m 1
 654 161 l 1
 654 275 l 1
 577 161 l 1
EndSplineSet
EndChar

StartChar: threequarters
Encoding: 190 190 315
Width: 924
GlyphClass: 1
Flags: W
LayerCount: 2
Fore
SplineSet
185 273 m 0
 96 273 23 313 14 399 c 1
 134 420 l 1
 137 407 142 378 177 378 c 0
 197 378 210 389 210 409 c 0
 210 419 213 440 162 440 c 2
 119 440 l 1
 119 538 l 1
 162 538 l 2
 201 538 206 552 206 573 c 0
 206 590 193 602 177 602 c 0
 159 602 139 592 136 558 c 1
 17 579 l 1
 25 665 106 707 179 707 c 0
 261 707 329 660 329 587 c 0
 329 541 300 510 261 491 c 1
 304 469 334 434 334 391 c 0
 334 313 259 273 185 273 c 0
170 0 m 1
 651 700 l 1
 766 700 l 1
 285 0 l 1
 170 0 l 1
533 57 m 1
 533 157 l 1
 712 420 l 1
 713 419 l 1
 713 420 l 1
 846 420 l 1
 846 161 l 1
 903 161 l 1
 903 57 l 1
 846 57 l 1
 846 0 l 1
 730 0 l 1
 730 57 l 1
 533 57 l 1
653 161 m 1
 730 161 l 1
 730 275 l 1
 653 161 l 1
EndSplineSet
EndChar

StartChar: oneeighth
Encoding: 8539 8539 316
Width: 883
GlyphClass: 1
Flags: W
LayerCount: 2
Fore
SplineSet
107 280 m 1
 107 550 l 1
 81 537 54 532 25 535 c 1
 25 647 l 1
 58 643 91 670 120 701 c 1
 121 700 l 1
 223 700 l 1
 223 280 l 1
 107 280 l 1
94 0 m 1
 575 700 l 1
 690 700 l 1
 209 0 l 1
 94 0 l 1
693 -7 m 0
 579 -7 526 40 526 109 c 0
 526 159 548 199 596 221 c 1
 557 240 537 273 537 313 c 0
 537 380 590 427 693 427 c 0
 797 427 850 380 850 313 c 0
 850 273 830 240 791 221 c 1
 839 199 862 159 862 109 c 0
 862 40 807 -7 693 -7 c 0
693 260 m 0
 715 260 731 276 731 298 c 0
 731 317 715 332 693 332 c 0
 671 332 657 317 657 298 c 0
 657 276 671 260 693 260 c 0
693 93 m 0
 717 93 735 108 735 128 c 0
 735 153 717 170 693 170 c 0
 670 170 653 153 653 128 c 0
 653 108 670 93 693 93 c 0
EndSplineSet
EndChar

StartChar: threeeighths
Encoding: 8540 8540 317
Width: 959
GlyphClass: 1
Flags: W
LayerCount: 2
Fore
SplineSet
185 273 m 0
 96 273 23 313 14 399 c 1
 134 420 l 1
 137 407 142 378 177 378 c 0
 197 378 210 389 210 409 c 0
 210 419 213 440 162 440 c 2
 119 440 l 1
 119 538 l 1
 162 538 l 2
 201 538 206 552 206 573 c 0
 206 590 193 602 177 602 c 0
 159 602 139 592 136 558 c 1
 17 579 l 1
 25 665 106 707 179 707 c 0
 261 707 329 660 329 587 c 0
 329 541 300 510 261 491 c 1
 304 469 334 434 334 391 c 0
 334 313 259 273 185 273 c 0
170 0 m 1
 651 700 l 1
 766 700 l 1
 285 0 l 1
 170 0 l 1
769 -7 m 0
 655 -7 602 40 602 109 c 0
 602 159 624 199 672 221 c 1
 633 240 613 273 613 313 c 0
 613 380 666 427 769 427 c 0
 873 427 926 380 926 313 c 0
 926 273 906 240 867 221 c 1
 915 199 938 159 938 109 c 0
 938 40 883 -7 769 -7 c 0
769 260 m 0
 791 260 807 276 807 298 c 0
 807 317 791 332 769 332 c 0
 747 332 733 317 733 298 c 0
 733 276 747 260 769 260 c 0
769 93 m 0
 793 93 811 108 811 128 c 0
 811 153 793 170 769 170 c 0
 746 170 729 153 729 128 c 0
 729 108 746 93 769 93 c 0
EndSplineSet
EndChar

StartChar: fiveeighths
Encoding: 8541 8541 318
Width: 969
GlyphClass: 1
Flags: W
LayerCount: 2
Fore
SplineSet
185 273 m 0
 117 273 35 312 21 377 c 1
 142 399 l 1
 144 386 159 379 176 379 c 0
 199 379 215 394 215 418 c 0
 215 438 200 458 175 458 c 0
 159 458 148 450 142 436 c 1
 31 460 l 1
 63 700 l 1
 318 700 l 1
 318 588 l 1
 165 588 l 1
 155 530 l 1
 175 541 201 548 233 547 c 0
 291 545 344 497 344 426 c 0
 344 335 278 273 185 273 c 0
180 0 m 1
 661 700 l 1
 776 700 l 1
 295 0 l 1
 180 0 l 1
779 -7 m 0
 665 -7 612 40 612 109 c 0
 612 159 634 199 682 221 c 1
 643 240 623 273 623 313 c 0
 623 380 676 427 779 427 c 0
 883 427 936 380 936 313 c 0
 936 273 916 240 877 221 c 1
 925 199 948 159 948 109 c 0
 948 40 893 -7 779 -7 c 0
779 260 m 0
 801 260 817 276 817 298 c 0
 817 317 801 332 779 332 c 0
 757 332 743 317 743 298 c 0
 743 276 757 260 779 260 c 0
779 93 m 0
 803 93 821 108 821 128 c 0
 821 153 803 170 779 170 c 0
 756 170 739 153 739 128 c 0
 739 108 756 93 779 93 c 0
EndSplineSet
EndChar

StartChar: seveneighths
Encoding: 8542 8542 319
Width: 940
GlyphClass: 1
Flags: W
LayerCount: 2
Fore
SplineSet
151 0 m 1
 632 700 l 1
 747 700 l 1
 266 0 l 1
 151 0 l 1
70 280 m 1
 196 587 l 1
 18 587 l 1
 18 700 l 1
 335 700 l 1
 335 615 l 1
 207 280 l 1
 70 280 l 1
750 -7 m 0
 636 -7 583 40 583 109 c 0
 583 159 605 199 653 221 c 1
 614 240 594 273 594 313 c 0
 594 380 647 427 750 427 c 0
 854 427 907 380 907 313 c 0
 907 273 887 240 848 221 c 1
 896 199 919 159 919 109 c 0
 919 40 864 -7 750 -7 c 0
750 260 m 0
 772 260 788 276 788 298 c 0
 788 317 772 332 750 332 c 0
 728 332 714 317 714 298 c 0
 714 276 728 260 750 260 c 0
750 93 m 0
 774 93 792 108 792 128 c 0
 792 153 774 170 750 170 c 0
 727 170 710 153 710 128 c 0
 710 108 727 93 750 93 c 0
EndSplineSet
EndChar

StartChar: uni2080
Encoding: 8320 8320 320
Width: 406
GlyphClass: 1
Flags: W
LayerCount: 2
Fore
SplineSet
203 -106 m 0
 95 -106 18 -18 18 111 c 0
 18 240 95 328 202 328 c 0
 311 328 388 240 388 111 c 0
 388 -18 312 -106 203 -106 c 0
203 6 m 0
 241 6 268 49 268 111 c 0
 268 173 241 218 202 218 c 0
 168 218 144 173 144 111 c 0
 144 50 168 6 203 6 c 0
EndSplineSet
EndChar

StartChar: uni2081
Encoding: 8321 8321 321
Width: 279
GlyphClass: 1
Flags: W
LayerCount: 2
Fore
SplineSet
107 -100 m 1
 107 170 l 1
 81 157 54 152 25 155 c 1
 25 267 l 1
 58 263 91 290 120 321 c 1
 121 320 l 1
 223 320 l 1
 223 -100 l 1
 107 -100 l 1
EndSplineSet
EndChar

StartChar: uni2082
Encoding: 8322 8322 322
Width: 372
GlyphClass: 1
Flags: W
LayerCount: 2
Fore
SplineSet
29 -100 m 1
 29 -15 l 2
 29 14 76 73 137 111 c 2
 169 131 l 2
 190 144 221 164 221 186 c 0
 221 203 210 215 179 215 c 0
 161 215 146 201 141 181 c 1
 14 201 l 1
 24 268 85 328 180 328 c 0
 285 328 347 271 347 187 c 0
 347 122 307 86 255 53 c 2
 220 31 l 2
 211 25 200 17 190 8 c 1
 351 8 l 1
 351 -100 l 1
 29 -100 l 1
EndSplineSet
EndChar

StartChar: uni2083
Encoding: 8323 8323 323
Width: 355
GlyphClass: 1
Flags: W
LayerCount: 2
Fore
SplineSet
185 -106 m 0
 96 -106 23 -66 14 20 c 1
 134 41 l 1
 137 28 142 -1 177 -1 c 0
 197 -1 210 10 210 30 c 0
 210 40 213 61 162 61 c 2
 119 61 l 1
 119 159 l 1
 162 159 l 2
 201 159 206 173 206 194 c 0
 206 211 193 223 177 223 c 0
 159 223 139 213 136 179 c 1
 17 200 l 1
 25 286 106 328 179 328 c 0
 261 328 329 281 329 208 c 0
 329 162 300 131 261 112 c 1
 304 90 334 55 334 12 c 0
 334 -66 259 -106 185 -106 c 0
EndSplineSet
EndChar

StartChar: uni2084
Encoding: 8324 8324 324
Width: 398
GlyphClass: 1
Flags: W
LayerCount: 2
Fore
SplineSet
7 -43 m 1
 7 57 l 1
 186 320 l 1
 187 319 l 1
 187 320 l 1
 320 320 l 1
 320 61 l 1
 377 61 l 1
 377 -43 l 1
 320 -43 l 1
 320 -100 l 1
 204 -100 l 1
 204 -43 l 1
 7 -43 l 1
127 61 m 1
 204 61 l 1
 204 175 l 1
 127 61 l 1
EndSplineSet
EndChar

StartChar: uni2085
Encoding: 8325 8325 325
Width: 365
GlyphClass: 1
Flags: W
LayerCount: 2
Fore
SplineSet
185 -107 m 0
 117 -107 35 -68 21 -3 c 1
 142 19 l 1
 144 6 159 -1 176 -1 c 0
 199 -1 215 14 215 38 c 0
 215 58 200 78 175 78 c 0
 159 78 148 70 142 56 c 1
 31 80 l 1
 63 320 l 1
 318 320 l 1
 318 208 l 1
 165 208 l 1
 155 150 l 1
 175 161 201 168 233 167 c 0
 291 165 344 117 344 46 c 0
 344 -45 278 -107 185 -107 c 0
EndSplineSet
EndChar

StartChar: uni2086
Encoding: 8326 8326 326
Width: 367
GlyphClass: 1
Flags: W
LayerCount: 2
Fore
SplineSet
184 -107 m 0
 76 -107 21 -28 21 80 c 0
 21 190 59 327 206 327 c 0
 254 327 298 314 333 290 c 1
 276 199 l 1
 252 215 222 220 204 220 c 0
 176 220 151 201 141 151 c 1
 160 167 183 176 211 176 c 0
 290 176 346 108 346 29 c 0
 346 -48 285 -107 184 -107 c 0
185 -5 m 0
 206 -5 224 14 224 36 c 0
 224 58 206 79 185 79 c 0
 164 79 145 59 145 36 c 0
 145 13 164 -5 185 -5 c 0
EndSplineSet
EndChar

StartChar: uni2087
Encoding: 8327 8327 327
Width: 356
GlyphClass: 1
Flags: W
LayerCount: 2
Fore
SplineSet
70 -100 m 1
 196 207 l 1
 18 207 l 1
 18 320 l 1
 335 320 l 1
 335 235 l 1
 207 -100 l 1
 70 -100 l 1
EndSplineSet
EndChar

StartChar: uni2088
Encoding: 8328 8328 328
Width: 378
GlyphClass: 1
Flags: W
LayerCount: 2
Fore
SplineSet
188 -107 m 0
 74 -107 21 -60 21 9 c 0
 21 59 43 99 91 121 c 1
 52 140 32 173 32 213 c 0
 32 280 85 327 188 327 c 0
 292 327 345 280 345 213 c 0
 345 173 325 140 286 121 c 1
 334 99 357 59 357 9 c 0
 357 -60 302 -107 188 -107 c 0
188 160 m 0
 210 160 226 176 226 198 c 0
 226 217 210 232 188 232 c 0
 166 232 152 217 152 198 c 0
 152 176 166 160 188 160 c 0
188 -7 m 0
 212 -7 230 8 230 28 c 0
 230 53 212 70 188 70 c 0
 165 70 148 53 148 28 c 0
 148 8 165 -7 188 -7 c 0
EndSplineSet
EndChar

StartChar: uni2089
Encoding: 8329 8329 329
Width: 367
GlyphClass: 1
Flags: W
LayerCount: 2
Fore
SplineSet
161 -108 m 0
 114 -108 69 -95 34 -71 c 1
 91 20 l 1
 115 4 147 -1 163 -1 c 0
 190 -1 215 16 225 68 c 1
 208 53 185 43 156 43 c 0
 77 43 21 111 21 191 c 0
 21 267 82 327 183 327 c 0
 291 327 346 247 346 139 c 0
 346 30 308 -108 161 -108 c 0
182 140 m 0
 203 140 222 161 222 184 c 0
 222 206 203 225 182 225 c 0
 161 225 143 206 143 184 c 0
 143 161 161 140 182 140 c 0
EndSplineSet
EndChar

StartChar: uni2070
Encoding: 8304 8304 330
Width: 406
GlyphClass: 1
Flags: W
LayerCount: 2
Fore
SplineSet
203 373 m 0
 95 373 18 461 18 590 c 0
 18 719 95 807 202 807 c 0
 311 807 388 719 388 590 c 0
 388 461 312 373 203 373 c 0
203 485 m 0
 241 485 268 528 268 590 c 0
 268 652 241 697 202 697 c 0
 168 697 144 652 144 590 c 0
 144 529 168 485 203 485 c 0
EndSplineSet
EndChar

StartChar: uni00B9
Encoding: 185 185 331
Width: 279
GlyphClass: 1
Flags: W
LayerCount: 2
Fore
SplineSet
107 380 m 1
 107 650 l 1
 81 637 54 632 25 635 c 1
 25 747 l 1
 58 743 91 770 120 801 c 1
 121 800 l 1
 223 800 l 1
 223 380 l 1
 107 380 l 1
EndSplineSet
EndChar

StartChar: uni00B2
Encoding: 178 178 332
Width: 372
GlyphClass: 1
Flags: W
LayerCount: 2
Fore
SplineSet
29 380 m 1
 29 465 l 2
 29 494 76 553 137 591 c 2
 169 611 l 2
 190 624 221 644 221 666 c 0
 221 683 210 695 179 695 c 0
 161 695 146 681 141 661 c 1
 14 681 l 1
 24 748 85 808 180 808 c 0
 285 808 347 751 347 667 c 0
 347 602 307 566 255 533 c 2
 220 511 l 2
 211 505 200 497 190 488 c 1
 351 488 l 1
 351 380 l 1
 29 380 l 1
EndSplineSet
EndChar

StartChar: uni00B3
Encoding: 179 179 333
Width: 355
GlyphClass: 1
Flags: W
LayerCount: 2
Fore
SplineSet
185 373 m 0
 96 373 23 413 14 499 c 1
 134 520 l 1
 137 507 142 478 177 478 c 0
 197 478 210 489 210 509 c 0
 210 519 213 540 162 540 c 2
 119 540 l 1
 119 638 l 1
 162 638 l 2
 201 638 206 652 206 673 c 0
 206 690 193 702 177 702 c 0
 159 702 139 692 136 658 c 1
 17 679 l 1
 25 765 106 807 179 807 c 0
 261 807 329 760 329 687 c 0
 329 641 300 610 261 591 c 1
 304 569 334 534 334 491 c 0
 334 413 259 373 185 373 c 0
EndSplineSet
EndChar

StartChar: uni2074
Encoding: 8308 8308 334
Width: 398
GlyphClass: 1
Flags: W
LayerCount: 2
Fore
SplineSet
204 380 m 1
 204 437 l 1
 7 437 l 1
 7 537 l 1
 186 800 l 1
 187 799 l 1
 187 800 l 1
 320 800 l 1
 320 541 l 1
 377 541 l 1
 377 437 l 1
 320 437 l 1
 320 380 l 1
 204 380 l 1
127 541 m 1
 204 541 l 1
 204 655 l 1
 127 541 l 1
EndSplineSet
EndChar

StartChar: uni2075
Encoding: 8309 8309 335
Width: 365
GlyphClass: 1
Flags: W
LayerCount: 2
Fore
SplineSet
185 373 m 0
 117 373 35 412 21 477 c 1
 142 499 l 1
 144 486 159 479 176 479 c 0
 199 479 215 494 215 518 c 0
 215 538 200 558 175 558 c 0
 159 558 148 550 142 536 c 1
 31 560 l 1
 63 800 l 1
 318 800 l 1
 318 688 l 1
 165 688 l 1
 155 630 l 1
 175 641 201 648 233 647 c 0
 291 645 344 597 344 526 c 0
 344 435 278 373 185 373 c 0
EndSplineSet
EndChar

StartChar: uni2076
Encoding: 8310 8310 336
Width: 367
GlyphClass: 1
Flags: W
LayerCount: 2
Fore
SplineSet
184 373 m 0
 76 373 21 452 21 560 c 0
 21 670 59 807 206 807 c 0
 254 807 298 794 333 770 c 1
 276 679 l 1
 252 695 222 700 204 700 c 0
 176 700 151 681 141 631 c 1
 160 647 183 656 211 656 c 0
 290 656 346 588 346 509 c 0
 346 432 285 373 184 373 c 0
185 475 m 0
 206 475 224 494 224 516 c 0
 224 538 206 559 185 559 c 0
 164 559 145 539 145 516 c 0
 145 493 164 475 185 475 c 0
EndSplineSet
EndChar

StartChar: uni2077
Encoding: 8311 8311 337
Width: 356
GlyphClass: 1
Flags: W
LayerCount: 2
Fore
SplineSet
70 380 m 1
 196 687 l 1
 18 687 l 1
 18 800 l 1
 335 800 l 1
 335 715 l 1
 207 380 l 1
 70 380 l 1
EndSplineSet
EndChar

StartChar: uni2078
Encoding: 8312 8312 338
Width: 378
GlyphClass: 1
Flags: W
LayerCount: 2
Fore
SplineSet
188 373 m 0
 74 373 21 420 21 489 c 0
 21 539 43 579 91 601 c 1
 52 620 32 653 32 693 c 0
 32 760 85 807 188 807 c 0
 292 807 345 760 345 693 c 0
 345 653 325 620 286 601 c 1
 334 579 357 539 357 489 c 0
 357 420 302 373 188 373 c 0
188 640 m 0
 210 640 226 656 226 678 c 0
 226 697 210 712 188 712 c 0
 166 712 152 697 152 678 c 0
 152 656 166 640 188 640 c 0
188 473 m 0
 212 473 230 488 230 508 c 0
 230 533 212 550 188 550 c 0
 165 550 148 533 148 508 c 0
 148 488 165 473 188 473 c 0
EndSplineSet
EndChar

StartChar: uni2079
Encoding: 8313 8313 339
Width: 367
GlyphClass: 1
Flags: W
LayerCount: 2
Fore
SplineSet
161 372 m 0
 114 372 69 385 34 409 c 1
 91 500 l 1
 115 484 147 479 163 479 c 0
 190 479 215 496 225 548 c 1
 208 533 185 523 156 523 c 0
 77 523 21 591 21 671 c 0
 21 747 82 807 183 807 c 0
 291 807 346 727 346 619 c 0
 346 510 308 372 161 372 c 0
182 620 m 0
 203 620 222 641 222 664 c 0
 222 686 203 705 182 705 c 0
 161 705 143 686 143 664 c 0
 143 641 161 620 182 620 c 0
EndSplineSet
EndChar

StartChar: period
Encoding: 46 46 344
Width: 286
GlyphClass: 1
Flags: W
LayerCount: 2
Fore
SplineSet
143 -15 m 0
 87 -15 40 32 40 88 c 0
 40 144 87 191 143 191 c 0
 199 191 246 144 246 88 c 0
 246 32 199 -15 143 -15 c 0
EndSplineSet
EndChar

StartChar: comma
Encoding: 44 44 345
Width: 286
GlyphClass: 1
Flags: W
LayerCount: 2
Fore
SplineSet
18 -113 m 1
 84 146 l 1
 264 146 l 1
 148 -113 l 1
 18 -113 l 1
EndSplineSet
EndChar

StartChar: colon
Encoding: 58 58 346
Width: 346
GlyphClass: 1
Flags: W
LayerCount: 2
Fore
SplineSet
173 294 m 0
 117 294 70 341 70 397 c 0
 70 453 117 500 173 500 c 0
 229 500 276 453 276 397 c 0
 276 341 229 294 173 294 c 0
173 -1 m 0
 117 -1 70 46 70 102 c 0
 70 158 117 205 173 205 c 0
 229 205 276 158 276 102 c 0
 276 46 229 -1 173 -1 c 0
EndSplineSet
EndChar

StartChar: semicolon
Encoding: 59 59 347
Width: 347
GlyphClass: 1
Flags: W
LayerCount: 2
Fore
SplineSet
174 290 m 0
 118 290 71 337 71 393 c 0
 71 449 118 496 174 496 c 0
 230 496 277 449 277 393 c 0
 277 337 230 290 174 290 c 0
28 -113 m 1
 94 146 l 1
 274 146 l 1
 158 -113 l 1
 28 -113 l 1
EndSplineSet
EndChar

StartChar: ellipsis
Encoding: 8230 8230 348
Width: 798
GlyphClass: 1
Flags: W
LayerCount: 2
Fore
SplineSet
143 -15 m 0
 87 -15 40 32 40 88 c 0
 40 144 87 191 143 191 c 0
 199 191 246 144 246 88 c 0
 246 32 199 -15 143 -15 c 0
399 -15 m 0
 343 -15 296 32 296 88 c 0
 296 144 343 191 399 191 c 0
 455 191 502 144 502 88 c 0
 502 32 455 -15 399 -15 c 0
655 -15 m 0
 599 -15 552 32 552 88 c 0
 552 144 599 191 655 191 c 0
 711 191 758 144 758 88 c 0
 758 32 711 -15 655 -15 c 0
EndSplineSet
EndChar

StartChar: exclam
Encoding: 33 33 349
Width: 326
GlyphClass: 1
Flags: W
LayerCount: 2
Fore
SplineSet
78 251 m 1
 63 700 l 1
 263 700 l 1
 248 251 l 1
 78 251 l 1
163 -16 m 0
 107 -16 60 31 60 87 c 0
 60 143 107 190 163 190 c 0
 219 190 266 143 266 87 c 0
 266 31 219 -16 163 -16 c 0
EndSplineSet
EndChar

StartChar: exclamdown
Encoding: 161 161 350
Width: 306
GlyphClass: 1
Flags: W
LayerCount: 2
Fore
SplineSet
163 512 m 0
 219 512 266 465 266 409 c 0
 266 353 219 306 163 306 c 0
 107 306 60 353 60 409 c 0
 60 465 107 512 163 512 c 0
248 245 m 1
 263 -204 l 1
 63 -204 l 1
 78 245 l 1
 248 245 l 1
EndSplineSet
EndChar

StartChar: question
Encoding: 63 63 351
Width: 522
GlyphClass: 1
Flags: W
LayerCount: 2
Fore
SplineSet
151 213 m 1
 144 387 l 1
 237 396 l 2
 290 402 327 423 327 478 c 0
 327 521 293 552 244 552 c 0
 210 552 186 532 176 505 c 1
 15 548 l 1
 41 649 125 712 244 712 c 0
 392 712 497 615 497 478 c 0
 497 377 428 307 322 289 c 1
 319 213 l 1
 151 213 l 1
235 -15 m 0
 179 -15 132 32 132 88 c 0
 132 144 179 191 235 191 c 0
 291 191 338 144 338 88 c 0
 338 32 291 -15 235 -15 c 0
EndSplineSet
EndChar

StartChar: questiondown
Encoding: 191 191 352
Width: 476
GlyphClass: 1
Flags: W
LayerCount: 2
Fore
SplineSet
261 512 m 0
 317 512 364 465 364 409 c 0
 364 353 317 306 261 306 c 0
 205 306 158 353 158 409 c 0
 158 465 205 512 261 512 c 0
345 284 m 1
 352 110 l 1
 259 101 l 2
 206 95 169 74 169 19 c 0
 169 -24 203 -55 252 -55 c 0
 286 -55 310 -35 320 -8 c 1
 481 -51 l 1
 455 -152 371 -215 252 -215 c 0
 104 -215 -1 -118 -1 19 c 0
 -1 120 68 190 174 208 c 1
 177 284 l 1
 345 284 l 1
EndSplineSet
EndChar

StartChar: periodcentered
Encoding: 183 183 353
Width: 266
GlyphClass: 1
Flags: W
LayerCount: 2
Fore
SplineSet
133 246 m 0
 77 246 30 293 30 349 c 0
 30 405 77 452 133 452 c 0
 189 452 236 405 236 349 c 0
 236 293 189 246 133 246 c 0
EndSplineSet
Substitution2: "Single Substitution lookup 15 subtable" periodcentered.loclCAT.case
Substitution2: "Single Substitution lookup 14 subtable" periodcentered.loclCAT
AlternateSubs2: "'aalt' Access All Alternates in Latin lookup 1 subtable" periodcentered.loclCAT periodcentered.loclCAT.case
EndChar

StartChar: bullet
Encoding: 8226 8226 354
Width: 449
GlyphClass: 1
Flags: W
LayerCount: 2
Fore
SplineSet
224 155 m 0
 150 155 90 214 90 288 c 0
 90 361 150 420 224 420 c 0
 299 420 359 361 359 288 c 0
 359 214 299 155 224 155 c 0
EndSplineSet
EndChar

